<ttFont>
          <CharString index="0">
            315 -94 callgsubr
            53 hlineto
            -61 -349 rlineto
            -5 -29 -3 -26 -24 vvcurveto
            -117 63 -65 171 211 63 114 135 24 vhcurveto
            64 361 -82 callsubr
            -200 -20 callgsubr
            -58 -336 rlineto
            -123 -21 -52 -61 -117 hhcurveto
            -109 -28 46 69 27 4 31 6 33 hvcurveto
            56 314 rlineto
            return
          </CharString>
          <CharString index="1">
            -2 -12 2 -3 13 1 rlinecurve
            return
          </CharString>
          <CharString index="2">
            -12 -2 2 -30 callsubr
            return
          </CharString>
          <CharString index="3">
            13 4 11 callgsubr
            return
          </CharString>
          <CharString index="4">
            13 -1 4 3 2 12 9 -100 callgsubr
            return
          </CharString>
          <CharString index="5">
            646 234 rmoveto
            13 -1 4 3 2 12 9 51 rcurveline
            -107 callgsubr
            -206 hlineto
            -91 callgsubr
            64 hlineto
            -25 -133 rlineto
            -13 -26 -39 -10 -48 hhcurveto
            -143 -51 94 110 167 74 160 173 57 45 -21 -20 31 hvcurveto
            -16 -72 -99 callgsubr
            54 hlineto
            -104 callsubr
            22 125 3 13 11 callsubr
            7 rlinecurve
            35 -58 -75 16 -66 hhcurveto
            -242 -143 -203 -220 -150 54 -135 249 77 76 16 21 49 3 callgsubr
            12 33 188 rcurveline
            return
          </CharString>
          <CharString index="6">
            89 485 rmoveto
            -106 74 -34 70 -33 vhcurveto
            65 -31 57 -27 -70 vvcurveto
            -84 -61 -26 -87 -41 -46 12 13 -20 vhcurveto
            21 92 -41 callgsubr
            -3 hvcurveto
            -26 -159 -3 -12 3 -4 12 -4 rlinecurve
            -14 45 62 -10 69 hhcurveto
            160 106 84 137 113 -84 43 -65 33 hvcurveto
            -62 32 -55 22 65 vvcurveto
            55 43 37 82 31 41 -11 -13 21 vhcurveto
            -14 callsubr
            54 hlineto
            -104 callsubr
            24 137 3 12 -3 4 -12 4 rlinecurve
            13 -45 -51 9 -57 hhcurveto
            -168 -86 -98 -113 hvcurveto
            return
          </CharString>
          <CharString index="7">
            458 hlineto
            -104 callsubr
            24 134 rlineto
            -107 callgsubr
            -54 -57 callsubr
            -9 -69 rlineto
            -229 hlineto
            41 229 rlineto
            192 hlineto
            -104 callsubr
            8 48 rlineto
            -107 callgsubr
            -193 hlineto
            38 213 rlineto
            return
          </CharString>
          <CharString index="8">
            13 -1 3 3 3 12 8 -100 callgsubr
            return
          </CharString>
          <CharString index="9">
            rmoveto
            44 27 32 40 30 -21 20 -34 -44 -27 -29 -40 -30 23 -23 32 hvcurveto
            -203 hmoveto
            44 27 32 40 30 -21 20 -34 -44 -27 -29 -40 -30 23 -23 32 hvcurveto
            endchar
          </CharString>
          <CharString index="10">
            -103 callsubr
            -216 -106 callgsubr
            return
          </CharString>
          <CharString index="11">
            -50 -94 callsubr
            return
          </CharString>
          <CharString index="12">
            -8 callgsubr
            50 2 -47 callsubr
            -1 rlinecurve
            return
          </CharString>
          <CharString index="13">
            rcurveline
            -105 callsubr
            return
          </CharString>
          <CharString index="14">
            51 hlineto
            -103 callsubr
            return
          </CharString>
          <CharString index="15">
            85 495 rmoveto
            -68 callgsubr
            -2 hvcurveto
            -10 -58 callsubr
            -57 -332 rlineto
            -59 -10 20 -36 65 hhcurveto
            42 42 23 20 25 hvcurveto
            return
          </CharString>
          <CharString index="16">
            rmoveto
            -61 -34 9 -56 callsubr
            -2 hvcurveto
            -1 -7 0 -5 -6 vvcurveto
            -66 52 -38 98 101 62 39 83 16 vhcurveto
            12 3 -39 callsubr
            -29 hlineto
            -68 callgsubr
            -5 hvcurveto
            -36 -15 -39 -10 -51 hhcurveto
            endchar
          </CharString>
          <CharString index="17">
            -519 rlineto
            -51 hlineto
            -13 1 -3 -3 -3 -12 -8 -96 callsubr
            return
          </CharString>
          <CharString index="18">
            vvcurveto
            -40 23 -34 56 40 36 17 15 24 vhcurveto
            -25 callsubr
            -6 11 -7 15 rcurveline
            -5 11 -5 1 -11 -5 rrcurveto
            -6 -12 -12 -4 -13 hhcurveto
            -21 -8 11 18 return
          </CharString>
          <CharString index="19">
            456 495 rmoveto
            -68 callgsubr
            -2 hvcurveto
            -54 -302 rlineto
            -49 -9 -58 -49 -63 hhcurveto
            -79 2 50 71 13 hvcurveto
            50 -14 callgsubr
            -138 hlineto
            -91 callgsubr
            42 1 -46 -258 rlineto
            -113 -20 45 -57 101 hhcurveto
            59 61 17 59 50 hvcurveto
            -45 -1 17 -31 -49 callgsubr
            return
          </CharString>
          <CharString index="20">
            407 46 rmoveto
            10 8 1 4 -7 11 -17 31 rcurveline
            -6 11 -4 1 -11 -6 rrcurveto
            -21 -35 -35 -13 -51 hhcurveto
            -78 -33 48 63 8 0 6 1 8 hvcurveto
            -2 20 22 -2 22 hhcurveto
            120 130 41 131 1 hvcurveto
            76 -51 57 -105 -187 -89 -168 -153 -117 56 -80 142 66 67 21 37 51 vhcurveto
            -129 374 rmoveto
            37 27 -17 -35 -68 -81 -25 -73 -17 callgsubr
            return
          </CharString>
          <CharString index="21">
            13 3 -70 callgsubr
            return
          </CharString>
          <CharString index="22">
            rmoveto
            -29 -47 -15 -79 -14 hvcurveto
            -9 -2 2 -5 10 hhcurveto
            31 hlineto
            10 2 1 9 1 hvcurveto
            15 3 12 7 19 35 78 -38 59 hhcurveto
            49 35 25 74 10 hvcurveto
            9 1 -1 5 -10 hhcurveto
            -24 hlineto
            -10 -5 -2 -11 -2 hvcurveto
            -24 -4 -16 -3 -19 return
          </CharString>
          <CharString index="23">
            -106 callgsubr
            52 hlineto
            return
          </CharString>
          <CharString index="24">
            rmoveto
            43 35 30 47 35 -22 31 -47 -37 -39 -32 -45 -36 25 -30 42 hvcurveto
            return
          </CharString>
          <CharString index="25">
            rlineto
            -93 callsubr
            return
          </CharString>
          <CharString index="26">
            18 callsubr
            -238 -141 -200 -241 -158 -90 106 161 232 136 209 237 104 153 -51 -219 vhcurveto
            -126 -8 rmoveto
            114 -44 76 -103 -190 -44 -205 -133 -90 30 -98 116 187 48 201 135 vhcurveto
            return
          </CharString>
          <CharString index="27">
            752 -89 callgsubr
            -188 hlineto
            -86 callgsubr
            -8 -52 -106 callsubr
            50 return
          </CharString>
          <CharString index="28">
            rmoveto
            27 33 24 27 42 vvcurveto
            30 -22 24 -34 -43 -25 -32 -36 -24 12 -20 8 -14 vhcurveto
            -46 -90 -6 -11 2 -4 11 -6 rlinecurve
            4 -3 -19 callsubr
            return
          </CharString>
          <CharString index="29">
            -83 callgsubr
            488 rlineto
            213 hlineto
            -83 -471 rlineto
            -72 -13 -10 -36 -61 hhcurveto
            -83 callgsubr
            return
          </CharString>
          <CharString index="30">
            rmoveto
            -29 -47 -15 -79 -14 hvcurveto
            -9 -2 2 -5 10 hhcurveto
            31 hlineto
            10 2 1 9 1 hvcurveto
            15 3 10 8 19 35 80 -39 59 hhcurveto
            47 36 22 77 11 hvcurveto
            9 1 -1 5 -10 hhcurveto
            -27 hlineto
            -10 -5 -2 -11 -2 hvcurveto
            -24 -4 -13 -3 -19 return
          </CharString>
          <CharString index="31">
            -86 callgsubr
            -8 -51 -106 callsubr
            return
          </CharString>
          <CharString index="32">
            458 hlineto
            -104 callsubr
            23 134 rlineto
            -107 callgsubr
            -54 -57 callsubr
            -9 -69 rlineto
            -229 hlineto
            41 229 rlineto
            192 hlineto
            -104 callsubr
            9 48 rlineto
            -107 callgsubr
            -193 hlineto
            37 213 rlineto
            209 hlineto
            -16 -69 rlineto
            -12 -3 2 -30 callsubr
            54 hlineto
            -104 callsubr
            23 134 rlineto
            -107 callgsubr
            -530 -20 callsubr
            -368 -519 rlineto
            -50 hlineto
            -13 1 -3 -3 -3 -12 -8 -96 callsubr
            206 hlineto
            -95 callsubr
            -55 hlineto
            return
          </CharString>
          <CharString index="33">
            -4 1 -12 -5 rrcurveto
            return
          </CharString>
          <CharString index="34">
            201 -156 rmoveto
            -49 -47 15 13 -29 hvcurveto
            -11 5 -4 -1 -5 -12 -21 -47 rcurveline
            -5 -3 callgsubr
            -5 rrcurveto
            -17 35 57 -19 72 hhcurveto
            145 68 70 111 29 hvcurveto
            14 55 10 61 4 26 70 397 rcurveline
            -107 callgsubr
            -80 hlineto
            -68 callgsubr
            -2 hvcurveto
            -53 -302 rlineto
            -49 -9 -58 -49 -63 hhcurveto
            -55 -16 24 39 17 3 20 4 21 hvcurveto
            49 -14 callgsubr
            -138 -67 callsubr
            42 1 -46 -258 rlineto
            -3 -17 -1 -15 -14 vvcurveto
            -82 48 -42 86 59 58 23 53 48 vhcurveto
            -16 -88 rlineto
            -91 -16 -50 -41 -80 hhcurveto
            return
          </CharString>
          <CharString index="35">
            746 rmoveto
            -59 callsubr
            -102 -584 rlineto
            -59 -10 20 -36 65 hhcurveto
            42 42 23 20 25 hvcurveto
            return
          </CharString>
          <CharString index="36">
            51 36 32 47 33 -26 26 -41 -48 -37 -31 -48 -32 23 -27 42 hvcurveto
            return
          </CharString>
          <CharString index="37">
            426 746 rmoveto
            -59 callsubr
            -37 -216 rlineto
            22 -14 -45 34 -69 hhcurveto
            -190 -74 -177 -152 -129 63 -60 102 65 54 26 55 39 hvcurveto
            -49 16 -32 62 -27 callgsubr
            vhcurveto
            -64 callgsubr
            113 634 rlineto
            -107 callgsubr
            -327 -672 rmoveto
            -74 -25 41 76 93 33 137 127 71 31 -52 -1 1 hvcurveto
            -34 -187 rlineto
            -72 -12 -66 -35 -52 hhcurveto
            return
          </CharString>
          <CharString index="38">
            -83 callsubr
            endchar
          </CharString>
          <CharString index="39">
            -104 callgsubr
            -5 10 21 4 hvcurveto
            113 return
          </CharString>
          <CharString index="40">
            hlineto
            -76 callsubr
            return
          </CharString>
          <CharString index="41">
            73 -12 72 -60 79 -70 -21 226 75 275 115 0 -20 return
          </CharString>
          <CharString index="42">
            506 308 rmoveto
            169 -124 29 -75 -184 -98 -139 -180 -131 71 -68 118 186 106 130 190 vhcurveto
            -118 -2 rmoveto
            -84 -33 -151 -124 -68 -22 51 65 88 24 144 125 64 34 -33 -80 vhcurveto
            return
          </CharString>
          <CharString index="43">
            79 rmoveto
            401 -32 callgsubr
            -82 hlineto
            1 callgsubr
            hintmask 10111000
            -305 vlineto
            -49 -49 -51 -63 -79 -7 40 71 vhcurveto
            294 -32 callgsubr
            -82 hlineto
            -11 -4 -4 -11 hvcurveto
            -667 vlineto
            -11 4 -4 11 vhcurveto
            75 hlineto
            -22 callgsubr
            190 vlineto
            -6 18 28 -4 25 hhcurveto
            69 51 32 46 34 hvcurveto
            hintmask 01111000
            9 -56 rlineto
            -10 2 3 -5 10 hhcurveto
            112 -5 callsubr
            49 -32 callgsubr
            endchar
          </CharString>
          <CharString index="44">
            124 -233 rlineto
            -60 32 23 -21 61 hhcurveto
            38 35 17 16 24 hvcurveto
            -25 callsubr
            -6 11 -10 16 rcurveline
            -6 12 -74 callsubr
            -6 -13 -9 -1 -2 callgsubr
            -10 7 27 -15 hvcurveto
            -146 269 222 235 rlineto
            52 hlineto
            13 -1 4 3 2 12 10 -100 callgsubr
            -199 hlineto
            -13 -3 -3 -12 -2 hvcurveto
            -9 -52 -1 -12 2 -3 13 1 rlinecurve
            45 hlineto
            -200 -214 rlineto
            -51 hlineto
            38 214 rlineto
            return
          </CharString>
          <CharString index="45">
            -105 callsubr
            59 hlineto
            13 3 3 return
          </CharString>
          <CharString index="46">
            -62 callgsubr
            endchar
          </CharString>
          <CharString index="47">
            232 hmoveto
            -95 callsubr
            -62 hlineto
            38 216 rlineto
            -2 16 16 -1 24 hhcurveto
            20 hlineto
            return
          </CharString>
          <CharString index="48">
            -91 callgsubr
            43 hlineto
            return
          </CharString>
          <CharString index="49">
            -52 -106 callsubr
            43 hlineto
            return
          </CharString>
          <CharString index="50">
            hlineto
            -50 callgsubr
            return
          </CharString>
          <CharString index="51">
            36 -1 hvcurveto
            13 -1 -39 callsubr
            -30 hlineto
            -13 -3 -3 -12 return
          </CharString>
          <CharString index="52">
            44 15 -51 callsubr
            79 hlineto
            -104 callsubr
            return
          </CharString>
          <CharString index="53">
            -41 85 -83 callsubr
            return
          </CharString>
          <CharString index="54">
            5 1 8 10 rlinecurve
            return
          </CharString>
          <CharString index="55">
            51 hlineto
            -97 callsubr
            53 hlineto
            return
          </CharString>
          <CharString index="56">
            rmoveto
            -105 callsubr
            return
          </CharString>
          <CharString index="57">
            131 16 13 2 3 3 3 12 rlinecurve
            3 25 2 -47 callsubr
            2 rlinecurve
            -122 16 7 161 rlineto
            13 1 -3 -34 callsubr
            -22 hlineto
            -68 callgsubr
            -4 hvcurveto
            -53 -163 -129 -15 -13 -2 -3 -3 -3 -12 rlinecurve
            -3 -25 -2 -12 2 -3 13 -2 rlinecurve
            121 -16 rlineto
            endchar
          </CharString>
          <CharString index="58">
            -8 -7 1 -15 callgsubr
          </CharString>
          <CharString index="59">
            -99 callgsubr
            79 hlineto
            -104 callsubr
            return
          </CharString>
          <CharString index="60">
            12 -95 callgsubr
            return
          </CharString>
          <CharString index="61">
            rmoveto
            2 11 -3 2 -11 -4 -427 -172 rcurveline
            -12 -5 -4 -4 -2 -12 -6 -38 rcurveline
            -3 -12 3 -4 11 -6 363 -177 rcurveline
            11 -5 4 1 2 12 8 46 rcurveline
            3 12 -3 4 -11 6 -298 140 rcurveline
            347 132 12 5 4 4 2 12 rlinecurve
            return
          </CharString>
          <CharString index="62">
            -53 callsubr
            endchar
          </CharString>
          <CharString index="63">
            rmoveto
            -61 -31 15 -56 callsubr
            -3 hvcurveto
            -1 -9 -1 -7 -8 vvcurveto
            -65 50 -43 96 110 62 53 79 14 vhcurveto
            12 2 -39 callsubr
            -29 hlineto
            -68 callgsubr
            -5 hvcurveto
            -36 -15 -42 -16 -51 hhcurveto
            endchar
          </CharString>
          <CharString index="64">
            -59 0 79 229 78 213 80 return
          </CharString>
          <CharString index="65">
            -4 10 hhcurveto
            return
          </CharString>
          <CharString index="66">
            -13 -2 2 -30 callsubr
            12 17 -1 -1 18 hvcurveto
            32 -3 20 -13 -33 vvcurveto
            -43 -34 -22 -46 -41 -15 16 29 -1 vhcurveto
            13 -3 3 -13 vhcurveto
            -38 hlineto
            -13 -3 -3 -13 hvcurveto
            -67 -1 40 -35 85 hhcurveto
            96 66 46 79 48 -34 23 -26 6 hvcurveto
            return
          </CharString>
          <CharString index="67">
            29 callgsubr
            -52 -106 callsubr
            44 hlineto
            -114 -650 -48 callsubr
            43 240 rlineto
            34 hlineto
            69 9 -19 -55 8 hvcurveto
            return
          </CharString>
          <CharString index="68">
            -10 callsubr
            hhcurveto
            return
          </CharString>
          <CharString index="69">
            rmoveto
            -10 -6 -10 callgsubr
            42 hlineto
            10 9 4 8 7 hvcurveto
            87 102 rlineto
            8 8 0 4 -11 hhcurveto
            -72 hlineto
            return
          </CharString>
          <CharString index="70">
            72 12 11 -47 callgsubr
            19 return
          </CharString>
          <CharString index="71">
            -106 callgsubr
            53 return
          </CharString>
          <CharString index="72">
            -15 -13 2 2 -10 hvcurveto
            75 12 43 return
          </CharString>
          <CharString index="73">
            3 -13 hhcurveto
            return
          </CharString>
          <CharString index="74">
            hlineto
            -10 -28 callsubr
            return
          </CharString>
          <CharString index="75">
            rmoveto
            32 35 18 25 42 vvcurveto
            30 -22 24 -34 -43 -25 -32 -36 -24 11 -17 10 -15 vhcurveto
            -42 -83 15 callgsubr
          </CharString>
          <CharString index="76">
            53 rcurveline
            -107 callgsubr
            return
          </CharString>
          <CharString index="77">
            -3 13 hhcurveto
            return
          </CharString>
          <CharString index="78">
            46 219 rlineto
            4 18 4 30 15 vvcurveto
            80 -51 45 -83 -57 -63 -15 -69 -58 vhcurveto
            return
          </CharString>
          <CharString index="79">
            -38 rlineto
            -12 -3 2 -30 callsubr
            return
          </CharString>
          <CharString index="80">
            -83 51 -49 73 116 60 110 99 82 -53 43 -69 -113 -65 -100 -102 vhcurveto
            81 hmoveto
            47 16 94 72 33 17 -15 -49 -48 -15 -99 -71 -35 -17 return
          </CharString>
          <CharString index="81">
            50 18 31 30 49 vvcurveto
            52 -40 35 -77 -66 -66 -27 -75 -16 vhcurveto
            -12 -3 -13 callsubr
            30 hlineto
            -42 callgsubr
            31 10 25 13 32 hhcurveto
            return
          </CharString>
          <CharString index="82">
            11 -12 callgsubr
            return
          </CharString>
          <CharString index="83">
            217 -181 50 -130 -62 -83 -3 -2 -76 vhcurveto
            return
          </CharString>
          <CharString index="84">
            11 5 3 4 3 return
          </CharString>
          <CharString index="85">
            0 -3 callsubr
            return
          </CharString>
          <CharString index="86">
            -66 callgsubr
            51 hlineto
            return
          </CharString>
          <CharString index="87">
            hlineto
            -86 callgsubr
            -8 -52 -106 callsubr
            51 hlineto
            return
          </CharString>
          <CharString index="88">
            11 -6 -53 callsubr
            return
          </CharString>
          <CharString index="89">
            19 callgsubr
            -7 8 20 4 hvcurveto
            return
          </CharString>
          <CharString index="90">
            -32 -12 86 347 85 -11 -20 return
          </CharString>
          <CharString index="91">
            81 10 callsubr
            return
          </CharString>
          <CharString index="92">
            54 10 57 44 67 hhcurveto
            51 17 -24 -37 -19 -4 -20 -4 -21 hvcurveto
            return
          </CharString>
          <CharString index="93">
            -16 -68 rlineto
            -12 -3 2 -30 callsubr
            return
          </CharString>
          <CharString index="94">
            3 -3 12 hhcurveto
            return
          </CharString>
          <CharString index="95">
            81 -60 -21 return
          </CharString>
          <CharString index="96">
            126 77 126 return
          </CharString>
          <CharString index="97">
            -3 3 -12 return
          </CharString>
          <CharString index="98">
            rmoveto
            -10 -2 4 -5 10 hhcurveto
            35 hlineto
            10 7 4 11 4 hvcurveto
            65 190 rlineto
            11 3 -3 -21 callgsubr
            -72 hlineto
            return
          </CharString>
          <CharString index="99">
            -296 -22 callsubr
            return
          </CharString>
          <CharString index="100">
            -10 -8 -4 return
          </CharString>
          <CharString index="101">
            -150 -12 84 129 74 145 86 return
          </CharString>
          <CharString index="102">
            hlineto
            10 5 4 11 hvcurveto
            return
          </CharString>
          <CharString index="103">
            -10 5 -5 10 vhcurveto
            return
          </CharString>
          <CharString index="104">
            1 callsubr
            81 return
          </CharString>
          <CharString index="105">
            rlineto
            -59 -11 21 -36 65 hhcurveto
            42 42 23 20 25 hvcurveto
            return
          </CharString>
          <CharString index="106">
            rlineto
            -53 8 17 -32 61 hhcurveto
            38 40 19 17 24 hvcurveto
            return
          </CharString>
          <CharString index="107">
            17 callgsubr
            1 return
          </CharString>
          <CharString index="108">
            79 519 return
          </CharString>
          <CharString index="109">
            -34 callgsubr
            -50 rcurveline
            -12 return
          </CharString>
          <CharString index="110">
            -72 -12 -67 -36 -52 hhcurveto
            return
          </CharString>
          <CharString index="111">
            hhcurveto
            -16 -5 10 return
          </CharString>
          <CharString index="112">
            131 hstemhm
            return
          </CharString>
          <CharString index="113">
            rmoveto
            47 33 29 44 30 -24 24 -38 -44 -34 -28 -45 -29 21 -25 39 hvcurveto
            endchar
          </CharString>
          <CharString index="114">
            1 -12 72 -60 79 213 69 241 83 return
          </CharString>
          <CharString index="115">
            120 -12 81 -69 79 -70 -21 318 86 return
          </CharString>
          <CharString index="116">
            -19 -12 81 -81 92 335 79 return
          </CharString>
          <CharString index="117">
            53 -7 callgsubr
            return
          </CharString>
          <CharString index="118">
            -2 4 -11 return
          </CharString>
          <CharString index="119">
            -99 callgsubr
            139 hlineto
            291 153 169 249 hvcurveto
            return
          </CharString>
          <CharString index="120">
            4 -30 callsubr
            return
          </CharString>
          <CharString index="121">
            hlineto
            -13 -5 -2 -11 -7 hvcurveto
            -424 -646 rlineto
            -9 -7 2 -4 12 hhcurveto
            return
          </CharString>
          <CharString index="122">
            -106 -12 86 535 87 return
          </CharString>
          <CharString index="123">
            hstemhm
            -8 585 return
          </CharString>
          <CharString index="124">
            83 -12 708 return
          </CharString>
          <CharString index="125">
            hintmask 10100000
            678 426 rmoveto
            return
          </CharString>
          <CharString index="126">
            -85 -82 -15 hvcurveto
            -17 -98 rlineto
            return
          </CharString>
          <CharString index="127">
            hlineto
            13 -1 4 3 2 12 9 51 rcurveline
            -107 callgsubr
            return
          </CharString>
          <CharString index="128">
            94 18 callgsubr
            212 75 rmoveto
            -164 hlineto
            218 310 rlineto
            return
          </CharString>
          <CharString index="129">
            -95 54 -57 87 128 64 124 102 98 -60 48 -80 vhcurveto
            return
          </CharString>
          <CharString index="130">
            61 352 rlineto
            -284 -339 rmoveto
            -77 -22 46 64 hvcurveto
            return
          </CharString>
          <CharString index="131">
            hlineto
            -86 callgsubr
            endchar
          </CharString>
          <CharString index="132">
            80 518 81 hstemhm
            -8 495 return
          </CharString>
          <CharString index="133">
            -334 -240 87 568 80 return
          </CharString>
          <CharString index="134">
            52 97 52 hstem
            150 58 85 56 vstem
            248 return
          </CharString>
          <CharString index="135">
            -21 333 173 -103 103 -92 81 5 -20 hstemhm
            return
          </CharString>
          <CharString index="136">
            -37 -240 85 143 87 338 81 -73 85 return
          </CharString>
          <CharString index="137">
            -72 -12 -11 -36 -61 hhcurveto
            endchar
          </CharString>
          <CharString index="138">
            -35 0 78 523 78 return
          </CharString>
          <CharString index="139">
            122 506 rmoveto
            -37 -32 -13 -17 -29 hvcurveto
            return
          </CharString>
          <CharString index="140">
            rcurveline
            -107 callgsubr
            -120 hlineto
            13 return
          </CharString>
          <CharString index="141">
            hlineto
            12 6 2 9 8 hvcurveto
            return
          </CharString>
          <CharString index="142">
            -13 -12 callsubr
            679 80 return
          </CharString>
          <CharString index="143">
            746 rmoveto
            -68 callgsubr
            -2 hvcurveto
            -9 return
          </CharString>
          <CharString index="144">
            -28 -240 84 144 92 335 79 return
          </CharString>
          <CharString index="145">
            hintmask 00000000
            hintmask 11100000
            return
          </CharString>
        <CharString name=".notdef">
          endchar
        </CharString>
        <CharString name=".null">
          -623 endchar
        </CharString>
        <CharString name="A">
          -66 callsubr
          hstemhm
          -35 696 hintmask 00000000
          hintmask 01010110
          439 214 rmoveto
          hintmask 00110110
          26 -141 rlineto
          -53 9 12 -32 61 hhcurveto
          38 42 18 16 24 hvcurveto
          hintmask 10010110
          -25 callsubr
          -5 11 -7 15 rcurveline
          -5 11 -5 2 -12 -5 rrcurveto
          -5 -13 -10 -2 -8 4 callsubr
          26 -4 hvcurveto
          -89 568 rlineto
          12 -2 -3 -34 callsubr
          -86 hlineto
          -46 callgsubr
          -11 -6 hvcurveto
          hintmask 01011010
          -302 -586 rlineto
          -61 hlineto
          -13 1 -4 -3 -2 -12 -9 -96 callsubr
          214 hlineto
          -104 callsubr
          10 50 2 -47 callsubr
          -1 rlinecurve
          -62 hlineto
          69 18 callgsubr
          214 75 rmoveto
          -179 hlineto
          139 275 rlineto
          endchar
        </CharString>
        <CharString name="AE">
          28 callgsubr
          hstemhm
          -37 953 -161 89 hintmask 00000000
          hintmask 11111000
          -6 callgsubr
          hintmask 10110100
          -75 callsubr
          hintmask 11111000
          21 callsubr
          endchar
        </CharString>
        <CharString name="AEacute">
          28 callgsubr
          10 callsubr
          -37 953 -332 179 -8 89 hintmask 00000000
          hintmask 11110100
          -6 callgsubr
          hintmask 10110001
          -75 callsubr
          hintmask 11110100
          21 callsubr
          85 147 -96 callgsubr
          hintmask 00001010
          -61 callsubr
        </CharString>
        <CharString name="Aacute">
          -66 callsubr
          73 -7 callgsubr
          -35 696 -290 179 -105 callgsubr
          -16 182 -96 callgsubr
          hintmask 0000001010000000
          -61 callsubr
        </CharString>
        <CharString name="Abreve">
          -66 callsubr
          76 76 hstemhm
          -35 696 -381 330 -105 callgsubr
          hintmask 0000001010000000
          51 247 -91 callsubr
        </CharString>
        <CharString name="Acircumflex">
          -66 callsubr
          73 5 callsubr
          -35 696 -392 294 -105 callgsubr
          -50 168 -103 callgsubr
          hintmask 0000001010000000
          -49 callsubr
        </CharString>
        <CharString name="Adieresis">
          -66 callsubr
          79 122 hstemhm
          -35 696 -394 -11 callsubr
          -105 callgsubr
          hintmask 0000001011000000
          135 174 -98 callsubr
        </CharString>
        <CharString name="Agrave">
          -66 callsubr
          73 -7 callgsubr
          -35 696 -322 124 -105 callgsubr
          hintmask 0000001010000000
          46 279 -82 callgsubr
        </CharString>
        <CharString name="Amacron">
          -66 callsubr
          101 81 hstemhm
          -35 696 -380 308 -105 callgsubr
          hintmask 0000001010000000
          171 196 -81 callgsubr
        </CharString>
        <CharString name="Aogonek">
          73 -231 66 165 79 -74 -21 230 75 275 115 0 -20 hstemhm
          438 91 hintmask 00000000
          hintmask 11010110
          439 214 rmoveto
          hintmask 10110110
          27 -146 9 -48 10 -31 47 -5 rlinecurve
          -45 -33 -49 -48 -60 -89 callsubr
          48 56 60 48 32 hvcurveto
          7 5 7 5 7 4 10 8 1 4 -5 12 -7 14 rcurveline
          -5 12 -74 callsubr
          -7 -14 -11 -2 -8 4 callsubr
          26 -4 hvcurveto
          -90 573 rlineto
          12 -2 -3 -34 callsubr
          -86 hlineto
          -46 callgsubr
          -11 -6 hvcurveto
          hintmask 11011010
          -302 -586 rlineto
          -61 hlineto
          -13 1 -4 -3 -2 -12 -9 -96 callsubr
          214 hlineto
          -104 callsubr
          9 50 2 -47 callsubr
          -1 rlinecurve
          -62 hlineto
          70 18 callgsubr
          214 75 rmoveto
          -179 hlineto
          139 275 rlineto
          endchar
        </CharString>
        <CharString name="Aring">
          -66 callsubr
          47 52 97 52 hstemhm
          -35 696 -327 58 85 56 hintmask 0000000000000000
          hintmask 0101010010000000
          439 214 rmoveto
          hintmask 0011010010000000
          26 -141 rlineto
          -53 9 12 -32 61 hhcurveto
          38 42 18 16 24 hvcurveto
          hintmask 1001010010000000
          -25 callsubr
          -5 11 -7 15 rcurveline
          -5 11 -5 2 -12 -5 rrcurveto
          -5 -13 -10 -2 -8 4 callsubr
          26 -4 hvcurveto
          -89 568 rlineto
          12 -2 -3 -34 callsubr
          -86 hlineto
          -46 callgsubr
          -11 -6 hvcurveto
          hintmask 0101100010000000
          -302 -586 rlineto
          -61 hlineto
          -13 1 -4 -3 -2 -12 -9 -96 callsubr
          214 hlineto
          -104 callsubr
          10 50 2 -47 callsubr
          -1 rlinecurve
          -62 hlineto
          69 18 callgsubr
          214 75 rmoveto
          -179 hlineto
          139 275 rlineto
          hintmask 0000001101100000
          42 142 -79 callgsubr
          endchar
        </CharString>
        <CharString name="Aringacute">
          73 -12 72 -60 79 -70 -21 226 75 410 -20 117 52 hstemhm
          327 58 85 56 hintmask 00000000
          hintmask 01011111
          439 214 rmoveto
          hintmask 00111111
          26 -141 rlineto
          -53 9 12 -32 61 hhcurveto
          38 42 18 16 24 hvcurveto
          hintmask 10011111
          -25 callsubr
          -5 11 -7 15 rcurveline
          -5 11 -5 2 -12 -5 rrcurveto
          -5 -13 -10 -2 -8 4 callsubr
          26 -4 hvcurveto
          -89 569 rlineto
          26 19 16 32 37 vvcurveto
          50 -36 45 -63 -57 -43 -44 -56 -31 11 -29 21 -19 vhcurveto
          hintmask 01011111
          -304 -590 rlineto
          -61 hlineto
          -13 1 -4 -3 -2 -12 -9 -96 callsubr
          214 hlineto
          -104 callsubr
          10 50 2 -47 callsubr
          -1 rlinecurve
          -62 hlineto
          69 18 callgsubr
          214 75 rmoveto
          -179 hlineto
          139 275 rlineto
          -11 314 -96 callgsubr
          -62 callgsubr
          -14 -180 rmoveto
          28 15 -20 -28 -27 -16 -22 -27 -27 -15 22 27 28 13 20 29 hvcurveto
          endchar
        </CharString>
        <CharString name="Atilde">
          -66 callsubr
          91 -20 hstemhm
          -35 696 -409 355 -105 callgsubr
          -47 294 -85 callsubr
          hhcurveto
          hintmask 0000001010000000
          -29 callgsubr
        </CharString>
        <CharString name="B">
          -26 0 79 236 83 204 83 -5 -20 hstemhm
          438 115 -104 118 -16 callgsubr
          125 680 rmoveto
          hintmask 11011000
          -40 callgsubr
          72 hlineto
          54 48 1 3 43 hvcurveto
          138 9 124 63 141 vvcurveto
          70 -43 65 -90 15 vhcurveto
          hintmask 11100100
          91 30 56 55 86 vvcurveto
          84 -65 63 -168 vhcurveto
          hintmask 11101000
          -58 -77 -3 -2 -74 hvcurveto
          174 -365 rmoveto
          93 46 -38 -64 -124 -104 -10 -101 hvcurveto
          -49 hlineto
          43 236 rlineto
          86 287 rmoveto
          hintmask 11100100
          73 63 -12 -69 -94 -84 -29 -86 hvcurveto
          -38 hlineto
          36 204 rlineto
          endchar
        </CharString>
        <CharString name="C">
          16 callgsubr
          hstem
          50 123 302 90 vstem
          339 -12 rmoveto
          55 68 7 29 65 hvcurveto
          -98 callgsubr
          -173 89 -111 200 hvcurveto
          endchar
        </CharString>
        <CharString name="CR">
          -423 endchar
        </CharString>
        <CharString name="Cacute">
          16 callgsubr
          36 -7 callgsubr
          50 123 212 179 -89 90 hintmask 11010100
          339 -12 rmoveto
          55 68 7 29 65 hvcurveto
          -98 callgsubr
          -173 89 -111 200 hvcurveto
          49 758 -96 callgsubr
          hintmask 00101000
          -61 callsubr
        </CharString>
        <CharString name="Ccaron">
          16 callgsubr
          36 5 callsubr
          50 123 147 294 -139 90 hintmask 11010100
          339 -12 rmoveto
          55 68 7 29 65 hvcurveto
          -98 callgsubr
          -173 89 -111 200 hvcurveto
          208 875 -92 callgsubr
          hintmask 00101000
          -33 callgsubr
        </CharString>
        <CharString name="Ccedilla">
          9 -11 87 532 88 hstem
          50 123 125 85 92 90 vstem
          527 24 rmoveto
          -98 callgsubr
          -166 81 -108 183 -9 hvcurveto
          -42 -50 -87 callgsubr
          16 20 52 2 60 8 58 26 rlinecurve
          endchar
        </CharString>
        <CharString name="Ccircumflex">
          16 callgsubr
          36 5 callsubr
          50 123 115 294 -107 90 hintmask 11010100
          339 -12 rmoveto
          55 68 7 29 65 hvcurveto
          -98 callgsubr
          -173 89 -111 200 hvcurveto
          20 744 -103 callgsubr
          hintmask 00101000
          -49 callsubr
        </CharString>
        <CharString name="Cdotaccent">
          16 callgsubr
          34 143 hstemhm
          50 123 203 145 -46 90 hintmask 11010100
          339 -12 rmoveto
          55 68 7 29 65 hvcurveto
          -98 callgsubr
          -173 89 -111 200 hvcurveto
          hintmask 00101000
          104 742 -69 callsubr
        </CharString>
        <CharString name="D">
          63 0 79 523 83 -5 -20 hstemhm
          534 123 hintmask 00000000
          hintmask 11010000
          125 680 rmoveto
          hintmask 10110000
          -40 callgsubr
          139 hlineto
          291 153 169 249 hvcurveto
          hintmask 11010000
          -24 callsubr
          150 -78 rmoveto
          -37 callgsubr
          endchar
        </CharString>
        <CharString name="Dcaron">
          63 0 79 523 83 -5 -20 72 5 callsubr
          254 294 -14 123 hintmask 00000000
          hintmask 11000100
          125 680 rmoveto
          hintmask 10100100
          -40 callgsubr
          139 hlineto
          291 153 169 249 hvcurveto
          hintmask 11000100
          -24 callsubr
          150 -78 rmoveto
          -37 callgsubr
          297 784 -92 callgsubr
          hintmask 00011000
          -33 callgsubr
        </CharString>
        <CharString name="Dcroat">
          -75 callgsubr
        </CharString>
        <CharString name="Delta">
          -52 callgsubr
        </CharString>
        <CharString name="E">
          -43 callsubr
          16 callsubr
          -160 89 hintmask 00000000
          hintmask 11110000
          483 599 rmoveto
          -16 -69 -99 callgsubr
          54 hlineto
          -104 callsubr
          23 134 rlineto
          -107 callgsubr
          -438 -84 callsubr
          -90 -519 rlineto
          -88 callgsubr
          hintmask 11101000
          -100 callsubr
          endchar
        </CharString>
        <CharString name="Eacute">
          -43 callsubr
          53 126 16 callsubr
          -277 179 -62 -101 callgsubr
          hintmask 11100010
          -100 callsubr
          27 147 -96 callgsubr
          hintmask 00010100
          -61 callsubr
        </CharString>
        <CharString name="Ebreve">
          -43 callsubr
          56 76 16 callsubr
          -361 330 -129 -101 callgsubr
          hintmask 11100010
          -100 callsubr
          hintmask 00010100
          101 212 -91 callsubr
        </CharString>
        <CharString name="Ecaron">
          -43 callsubr
          53 131 16 callsubr
          -345 294 -109 -101 callgsubr
          hintmask 11100010
          -100 callsubr
          183 264 -92 callgsubr
          hintmask 00010100
          -33 callgsubr
        </CharString>
        <CharString name="Ecircumflex">
          -43 callsubr
          53 131 16 callsubr
          -360 294 -94 -101 callgsubr
          hintmask 11100010
          -100 callsubr
          12 133 -103 callgsubr
          hintmask 00010100
          -49 callsubr
        </CharString>
        <CharString name="Edieresis">
          -43 callsubr
          59 122 16 callsubr
          -371 -11 callsubr
          -118 -101 callgsubr
          hintmask 11100001
          -100 callsubr
          hintmask 00010110
          188 139 -98 callsubr
        </CharString>
        <CharString name="Edotaccent">
          -43 callsubr
          51 143 16 callsubr
          -281 145 -24 -101 callgsubr
          hintmask 11100010
          -100 callsubr
          hintmask 00010100
          87 131 -69 callsubr
        </CharString>
        <CharString name="Egrave">
          -43 callsubr
          53 126 16 callsubr
          -294 124 10 -101 callgsubr
          hintmask 11100010
          -100 callsubr
          hintmask 00010100
          104 244 -82 callgsubr
        </CharString>
        <CharString name="Emacron">
          -43 callsubr
          81 81 16 callsubr
          -350 308 -118 -101 callgsubr
          hintmask 11100010
          -100 callsubr
          hintmask 00010100
          231 161 -81 callgsubr
        </CharString>
        <CharString name="Eng">
          120 -240 90 150 1 callsubr
          80 hstem
          -8 788 vstem
          -80 callsubr
          1 -80 -438 -241 504 rlineto
          11 -6 -4 -34 callsubr
          -145 -36 callsubr
          1 -90 -519 rlineto
          -52 hlineto
          -13 1 -4 -34 callgsubr
          -51 -94 callsubr
          220 hlineto
          -8 callgsubr
          51 2 -47 callsubr
          -1 rlinecurve
          -81 -1 78 435 248 -501 -5 -31 rlineto
          -98 -17 -28 -34 -61 hhcurveto
          -39 -34 8 9 -25 hvcurveto
          -12 4 -4 -1 -5 -12 -20 -51 rcurveline
          -4 -3 callgsubr
          -5 rrcurveto
          -13 31 50 -13 53 hhcurveto
          134 53 75 123 22 hvcurveto
          114 641 rlineto
          endchar
        </CharString>
        <CharString name="Eogonek">
          -59 -231 66 165 79 229 78 213 80 hstem
          237 91 89 89 vstem
          483 599 rmoveto
          -16 -69 -99 callgsubr
          54 hlineto
          -104 callsubr
          23 134 rlineto
          -107 callgsubr
          -438 -84 callsubr
          -90 -519 rlineto
          -88 callgsubr
          351 hlineto
          -72 -44 -48 -55 -58 -89 callsubr
          48 57 60 51 28 hvcurveto
          28 hlineto
          -104 callsubr
          24 134 rlineto
          -107 callgsubr
          -54 -57 callsubr
          -9 -69 rlineto
          -229 hlineto
          41 229 rlineto
          192 hlineto
          -104 callsubr
          8 48 rlineto
          -107 callgsubr
          -193 hlineto
          38 213 rlineto
          endchar
        </CharString>
        <CharString name="Eth">
          -75 callgsubr
        </CharString>
        <CharString name="Euro">
          -96 -12 73 121 53 39 53 134 70 hstemhm
          79 101 208 84 hintmask 00000000
          hintmask 11111100
          32 289 rmoveto
          -12 -4 -13 callsubr
          43 hlineto
          -4 -15 -2 -10 -1 -14 rrcurveto
          -46 hlineto
          -13 -4 -80 callgsubr
          -7 -23 rlineto
          -12 -3 -13 callsubr
          58 hlineto
          -87 3 53 -107 152 hhcurveto
          48 56 10 24 53 3 callgsubr
          13 15 93 rcurveline
          -107 callgsubr
          -51 -57 callsubr
          -5 -56 rlineto
          -14 -25 -25 -5 -35 hhcurveto
          -88 -33 50 71 -3 hvcurveto
          169 hlineto
          -42 callgsubr
          7 23 rlineto
          12 4 -39 callsubr
          -183 hlineto
          1 15 1 10 4 14 rrcurveto
          190 hlineto
          -42 callgsubr
          8 23 rlineto
          12 4 -39 callsubr
          -196 hlineto
          71 18 44 63 89 hhcurveto
          41 44 -16 -16 15 hvcurveto
          -13 -54 rlineto
          -12 -3 2 -30 callsubr
          49 hlineto
          -86 callsubr
          16 94 2 13 11 callsubr
          6 rlinecurve
          27 -47 -58 12 -55 hhcurveto
          -103 -122 -58 -146 -38 hvcurveto
          -39 hlineto
          -68 callgsubr
          -4 hvcurveto
          endchar
        </CharString>
        <CharString name="F">
          -83 0 79 234 78 208 80 hstem
          -8 595 vstem
          417 313 rmoveto
          -104 callsubr
          8 48 rlineto
          -107 callgsubr
          -193 hlineto
          38 208 rlineto
          217 hlineto
          -16 -69 -99 callgsubr
          54 hlineto
          -104 callsubr
          23 134 rlineto
          -107 callgsubr
          -448 -84 callsubr
          -91 -90 callsubr
          256 hlineto
          -95 callsubr
          -93 hlineto
          42 234 rlineto
          endchar
        </CharString>
        <CharString name="G">
          0 callgsubr
          hstem
          50 122 vstem
          -102 callsubr
          endchar
        </CharString>
        <CharString name="Gbreve">
          0 callgsubr
          39 76 hstemhm
          50 122 135 330 hintmask 11101000
          -102 callsubr
          hintmask 00010100
          -137 577 -91 callsubr
        </CharString>
        <CharString name="Gcircumflex">
          0 callgsubr
          36 5 callsubr
          50 122 132 294 hintmask 11101000
          -102 callsubr
          -230 498 -103 callgsubr
          hintmask 00010100
          -49 callsubr
        </CharString>
        <CharString name="Gcommaaccent">
          74 -13 callgsubr
          58 90 156 80 295 87 hstemhm
          50 122 78 124 hintmask 01111000
          -102 callsubr
          hintmask 10000100
          -282 -460 -102 callgsubr
        </CharString>
        <CharString name="Gdotaccent">
          0 callgsubr
          34 143 hstemhm
          50 122 214 145 hintmask 11101000
          -102 callsubr
          hintmask 00010100
          -152 496 -69 callsubr
        </CharString>
        <CharString name="H">
          8 callsubr
          206 81 hstemhm
          -8 778 hintmask 00000000
          hintmask 01011100
          -58 callgsubr
          hintmask 00111100
          -40 -223 rlineto
          -59 -10 18 -36 67 hhcurveto
          42 42 23 20 25 hvcurveto
          hintmask 10011100
          -104 callgsubr
          -4 10 21 4 hvcurveto
          89 498 rlineto
          -52 callsubr
          -37 -206 rlineto
          -303 hlineto
          endchar
        </CharString>
        <CharString name="Hbar">
          8 callsubr
          94 53 59 81 hstemhm
          -8 778 hintmask 00000000
          hintmask 01011110
          275 -11 callgsubr
          -52 callsubr
          -11 -59 rlineto
          -53 hlineto
          -86 callgsubr
          -3 -23 -99 callgsubr
          53 hlineto
          -72 -407 rlineto
          -51 hlineto
          -13 1 -3 -3 -3 -12 -8 -96 callsubr
          216 hlineto
          13 3 11 callgsubr
          9 50 1 -47 callsubr
          -1 rlinecurve
          -52 hlineto
          41 227 rlineto
          303 hlineto
          hintmask 00111110
          -40 -223 rlineto
          -59 -10 18 -36 67 hhcurveto
          42 42 23 20 25 hvcurveto
          hintmask 10011110
          -104 callgsubr
          -4 10 21 4 hvcurveto
          69 386 rlineto
          52 hlineto
          -86 callsubr
          3 23 rlineto
          -107 callgsubr
          -52 hlineto
          11 59 rlineto
          -52 callsubr
          -11 -59 rlineto
          -303 hlineto
          -26 -147 rmoveto
          17 94 rlineto
          303 hlineto
          -17 -94 rlineto
          endchar
        </CharString>
        <CharString name="Hcircumflex">
          8 callsubr
          206 20 callgsubr
          -8 778 -471 294 hintmask 00000000
          hintmask 01011010
          -58 callgsubr
          hintmask 00111010
          -40 -223 rlineto
          -59 -10 18 -36 67 hhcurveto
          42 42 23 20 25 hvcurveto
          hintmask 10011010
          -104 callgsubr
          -4 10 21 4 hvcurveto
          89 498 rlineto
          -52 callsubr
          -37 -206 rlineto
          -303 hlineto
          132 340 -103 callgsubr
          hintmask 00000101
          -49 callsubr
        </CharString>
        <CharString name="I">
          -8 callsubr
          hstem
          -7 362 vstem
          -93 callgsubr
          51 hlineto
          -90 -30 callgsubr
          91 519 rlineto
          endchar
        </CharString>
        <CharString name="IJ">
          161 -22 callsubr
          hstemhm
          -7 362 vstemhm
          -93 callgsubr
          51 hlineto
          -90 -30 callgsubr
          91 519 rlineto
          163 81 rmoveto
          -68 callgsubr
          -2 hvcurveto
          -23 -133 rlineto
          -62 callsubr
          12 2 hvcurveto
          10 68 rlineto
          131 hlineto
          -108 -617 rlineto
          -98 -17 -32 -44 -61 hhcurveto
          -39 -34 8 9 -25 hvcurveto
          -12 4 -4 -1 -5 -12 -16 -41 rcurveline
          -4 -3 callgsubr
          -5 rrcurveto
          -13 31 50 -13 53 hhcurveto
          134 53 75 123 22 hvcurveto
          124 706 rlineto
          -107 callgsubr
          endchar
        </CharString>
        <CharString name="Iacute">
          -8 callsubr
          53 126 hstemhm
          -7 362 -158 179 hintmask 11010000
          -93 callgsubr
          51 hlineto
          -90 -30 callgsubr
          91 519 rlineto
          -75 148 -96 callgsubr
          hintmask 00101000
          -61 callsubr
        </CharString>
        <CharString name="Ibreve">
          -8 callsubr
          56 76 hstemhm
          -7 362 -248 330 hintmask 11010000
          -93 callgsubr
          51 hlineto
          -90 -30 callgsubr
          91 519 rlineto
          hintmask 00101000
          -7 213 -91 callsubr
        </CharString>
        <CharString name="Icircumflex">
          -8 callsubr
          53 131 hstemhm
          -7 362 -260 294 hintmask 11010000
          -93 callgsubr
          51 hlineto
          -90 -30 callgsubr
          91 519 rlineto
          -109 134 -103 callgsubr
          hintmask 00101000
          -49 callsubr
        </CharString>
        <CharString name="Idieresis">
          -8 callsubr
          59 122 hstemhm
          -7 362 -263 -11 callsubr
          hintmask 11010000
          -93 callgsubr
          51 hlineto
          -90 -30 callgsubr
          91 519 rlineto
          hintmask 00101100
          75 140 -98 callsubr
        </CharString>
        <CharString name="Idotaccent">
          -8 callsubr
          51 143 hstemhm
          -7 362 -182 145 hintmask 11010000
          -93 callgsubr
          51 hlineto
          -90 -30 callgsubr
          91 519 rlineto
          hintmask 00101000
          -35 132 -69 callsubr
        </CharString>
        <CharString name="Igrave">
          -8 callsubr
          53 126 hstemhm
          -7 362 -189 124 hintmask 11010000
          -93 callgsubr
          51 hlineto
          -90 -30 callgsubr
          91 519 rlineto
          hintmask 00101000
          -12 245 -82 callgsubr
        </CharString>
        <CharString name="Imacron">
          -8 callsubr
          81 81 hstemhm
          -7 362 -254 308 hintmask 11010000
          -93 callgsubr
          51 hlineto
          -90 -30 callgsubr
          91 519 rlineto
          hintmask 00101000
          106 162 -81 callgsubr
        </CharString>
        <CharString name="Iogonek">
          -296 -231 66 165 -3 callsubr
          hstem
          5 91 vstem
          -93 callgsubr
          -85 callgsubr
          118 hlineto
          -72 -44 -48 -55 -58 -89 callsubr
          48 57 60 51 28 hvcurveto
          18 hlineto
          -95 callsubr
          -52 hlineto
          91 519 rlineto
          endchar
        </CharString>
        <CharString name="Itilde">
          -8 callsubr
          71 -20 hstemhm
          -7 362 -279 355 hintmask 11010000
          -93 callgsubr
          51 hlineto
          -90 -30 callgsubr
          91 519 rlineto
          -108 260 -85 callsubr
          hhcurveto
          hintmask 00101000
          -29 callgsubr
        </CharString>
        <CharString name="J">
          -151 -240 80 759 80 hstemhm
          87 95 38 callsubr
          129 679 rmoveto
          -68 callgsubr
          -2 hvcurveto
          -23 -133 rlineto
          -62 callsubr
          12 2 hvcurveto
          10 68 rlineto
          131 hlineto
          -108 -617 rlineto
          -98 -17 -32 -44 -61 hhcurveto
          -39 -34 8 9 -25 hvcurveto
          -12 4 -4 -1 -5 -12 -16 -41 rcurveline
          -4 -3 callgsubr
          -5 rrcurveto
          -13 31 50 -13 53 hhcurveto
          134 53 75 123 22 hvcurveto
          124 706 rlineto
          -107 callgsubr
          endchar
        </CharString>
        <CharString name="Jcircumflex">
          -151 -240 80 759 80 53 5 callsubr
          87 95 -50 294 hintmask 00000000
          hintmask 11010000
          129 679 rmoveto
          -68 callgsubr
          -2 hvcurveto
          -23 -133 rlineto
          -62 callsubr
          12 2 hvcurveto
          10 68 rlineto
          131 hlineto
          -108 -617 rlineto
          -98 -17 -32 -44 -61 hhcurveto
          -39 -34 8 9 -25 hvcurveto
          -12 4 -4 -1 -5 -12 -16 -41 rcurveline
          -4 -3 callgsubr
          -5 rrcurveto
          -13 31 50 -13 53 hhcurveto
          134 53 75 123 22 hvcurveto
          124 706 rlineto
          -107 callgsubr
          -225 53 -103 callgsubr
          hintmask 00101000
          -49 callsubr
        </CharString>
        <CharString name="K">
          50 -12 72 -60 79 223 82 214 81 hstemhm
          -8 676 hintmask 00000000
          hintmask 01111000
          326 -97 callgsubr
          52 hlineto
          -91 -30 callgsubr
          39 223 rlineto
          48 hlineto
          hintmask 10111000
          -63 callsubr
          endchar
        </CharString>
        <CharString name="Kcommaaccent">
          50 -13 callgsubr
          58 72 -60 79 223 82 214 81 hstemhm
          -8 676 -456 124 hintmask 00000000
          hintmask 00111100
          326 -97 callgsubr
          52 hlineto
          -91 -30 callgsubr
          39 223 rlineto
          48 hlineto
          hintmask 01011100
          -63 callsubr
          hintmask 10000010
          11 -824 -102 callgsubr
        </CharString>
        <CharString name="L">
          -98 0 25 callsubr
          -91 90 38 callsubr
          326 -94 callgsubr
          52 hlineto
          -90 -519 rlineto
          -88 callgsubr
          372 -33 callsubr
          hintmask 11010000
          -74 callgsubr
          91 518 rlineto
          endchar
        </CharString>
        <CharString name="Lacute">
          -98 0 80 518 -16 callsubr
          -8 495 -294 179 24 90 hintmask 00000000
          hintmask 11010000
          326 -94 callgsubr
          52 hlineto
          -90 -519 rlineto
          -88 callgsubr
          372 -33 callsubr
          hintmask 11000100
          -74 callgsubr
          91 518 rlineto
          -79 148 -96 callgsubr
          hintmask 00101000
          -61 callsubr
        </CharString>
        <CharString name="Lcaron">
          -98 0 80 379 220 -81 81 hstemhm
          -8 495 -91 90 -81 134 hintmask 00000000
          hintmask 10110000
          326 -94 callgsubr
          52 hlineto
          -90 -519 rlineto
          -88 callgsubr
          372 -33 callsubr
          hintmask 10101000
          -74 callgsubr
          91 518 rlineto
          hintmask 01000100
          163 66 -48 callgsubr
        </CharString>
        <CharString name="Lcommaaccent">
          -98 -13 callgsubr
          70 25 callsubr
          -353 124 138 90 hintmask 00000000
          hintmask 01110000
          326 -94 callgsubr
          52 hlineto
          -90 -519 rlineto
          -88 callgsubr
          372 -33 callsubr
          hintmask 01100100
          -74 callgsubr
          91 518 rlineto
          hintmask 10001000
          -68 -824 -102 callgsubr
        </CharString>
        <CharString name="Ldot">
          -98 0 80 176 143 199 81 hstemhm
          -8 495 -126 145 -110 90 hintmask 00000000
          hintmask 10110000
          326 -94 callgsubr
          52 hlineto
          -90 -519 rlineto
          -88 callgsubr
          372 -33 callsubr
          hintmask 10100100
          -74 callgsubr
          91 518 rlineto
          hintmask 01001000
          153 -342 -69 callsubr
        </CharString>
        <CharString name="Lslash">
          -98 0 25 callsubr
          -91 90 38 callsubr
          326 -94 callgsubr
          52 hlineto
          -42 -240 -75 -20 -12 -3 -4 -4 -2 -12 rlinecurve
          -6 -36 -2 -11 3 -3 11 3 rlinecurve
          76 21 -37 -214 rlineto
          -88 callgsubr
          372 -33 callsubr
          hintmask 11010000
          -74 callgsubr
          42 240 179 52 12 3 3 4 3 12 rlinecurve
          4 32 2 11 -3 3 -11 -3 rlinecurve
          -178 -50 38 214 rlineto
          endchar
        </CharString>
        <CharString name="M">
          289 -12 81 -69 79 -70 -21 610 81 hstemhm
          -8 944 hintmask 00000000
          hintmask 00111000
          733 -12 rmoveto
          42 42 23 20 25 hvcurveto
          hintmask 10011000
          -104 callgsubr
          -3 10 21 4 hvcurveto
          83 498 -82 callsubr
          -173 hlineto
          -46 callgsubr
          -11 -6 hvcurveto
          -296 -545 -116 544 rlineto
          12 -2 -4 -34 callsubr
          -170 -20 callsubr
          hintmask 01011000
          -91 -519 rlineto
          -52 hlineto
          -13 1 -3 2 callsubr
          -1 2 -30 callsubr
          201 hlineto
          13 3 11 callgsubr
          9 50 1 -47 callsubr
          -1 rlinecurve
          -65 hlineto
          77 429 110 -493 rlineto
          -12 2 13 callsubr
          74 hlineto
          -78 callgsubr
          11 7 hvcurveto
          273 493 rlineto
          hintmask 00111000
          -74 -424 rlineto
          -59 -10 19 -36 66 hhcurveto
          endchar
        </CharString>
        <CharString name="N">
          120 -22 callsubr
          hstem
          -8 788 vstem
          -80 callsubr
          hlineto
          -80 -437 -244 504 rlineto
          11 -6 -4 -34 callsubr
          -142 -84 callsubr
          -89 -519 rlineto
          -52 hlineto
          -13 1 -4 -3 -2 -12 -9 -96 callsubr
          220 hlineto
          -95 callsubr
          -81 hlineto
          77 440 249 -505 rlineto
          -11 6 13 callsubr
          71 hlineto
          -104 callsubr
          103 583 rlineto
          endchar
        </CharString>
        <CharString name="Nacute">
          120 0 79 519 -16 callsubr
          -8 788 -368 179 hintmask 11010000
          -80 callsubr
          hlineto
          -80 -437 -244 504 rlineto
          11 -6 -4 -34 callsubr
          -142 -84 callsubr
          -89 -519 rlineto
          -52 hlineto
          -13 1 -4 -3 -2 -12 -9 -96 callsubr
          220 hlineto
          -95 callsubr
          -81 hlineto
          77 440 249 -505 rlineto
          -11 6 13 callsubr
          71 hlineto
          -104 callsubr
          103 583 rlineto
          -286 148 -96 callgsubr
          hintmask 00101000
          -61 callsubr
        </CharString>
        <CharString name="Ncaron">
          120 0 79 519 20 callgsubr
          -8 788 -454 294 hintmask 11010000
          -80 callsubr
          hlineto
          -80 -437 -244 504 rlineto
          11 -6 -4 -34 callsubr
          -142 -84 callsubr
          -89 -519 rlineto
          -52 hlineto
          -13 1 -4 -3 -2 -12 -9 -96 callsubr
          220 hlineto
          -95 callsubr
          -81 hlineto
          77 440 249 -505 rlineto
          -11 6 13 callsubr
          71 hlineto
          -104 callsubr
          103 583 rlineto
          -148 265 -92 callgsubr
          hintmask 00101000
          -33 callgsubr
        </CharString>
        <CharString name="Ncommaaccent">
          120 -13 callgsubr
          70 -3 callsubr
          hstemhm
          -8 788 -528 124 hintmask 01110000
          -80 callsubr
          hlineto
          -80 -437 -244 504 rlineto
          11 -6 -4 -34 callsubr
          -142 -84 callsubr
          -89 -519 rlineto
          -52 hlineto
          -13 1 -4 -3 -2 -12 -9 -96 callsubr
          220 hlineto
          -95 callsubr
          -81 hlineto
          77 440 249 -505 rlineto
          -11 6 13 callsubr
          71 hlineto
          -104 callsubr
          103 583 rlineto
          hintmask 10001000
          -376 -824 -102 callgsubr
        </CharString>
        <CharString name="Ntilde">
          120 -22 callsubr
          71 -20 hstemhm
          -8 788 -498 355 hintmask 11010000
          -80 callsubr
          hlineto
          -80 -437 -244 504 rlineto
          11 -6 -4 -34 callsubr
          -142 -84 callsubr
          -89 -519 rlineto
          -52 hlineto
          -13 1 -4 -3 -2 -12 -9 -96 callsubr
          220 hlineto
          -95 callsubr
          -81 hlineto
          77 440 249 -505 rlineto
          -11 6 13 callsubr
          71 hlineto
          -104 callsubr
          103 583 rlineto
          -328 260 -85 callsubr
          hhcurveto
          hintmask 00101000
          -29 callgsubr
        </CharString>
        <CharString name="O">
          17 callsubr
          hstem
          48 630 vstem
          -84 callgsubr
          endchar
        </CharString>
        <CharString name="OE">
          370 164 144 78 213 hstem
          48 954 vstem
          908 599 rmoveto
          -16 -69 -99 callgsubr
          54 hlineto
          -104 callsubr
          23 134 rlineto
          -107 callgsubr
          -378 hlineto
          -68 callgsubr
          -2 hvcurveto
          -7 -45 rlineto
          56 -38 -67 21 -72 hhcurveto
          -223 -136 -200 -232 -161 86 -115 162 63 77 20 51 51 hvcurveto
          -10 -44 rlineto
          -12 -3 3 -30 callsubr
          399 hlineto
          -104 callsubr
          24 134 rlineto
          -107 callgsubr
          -54 -57 callsubr
          -9 -69 rlineto
          -229 hlineto
          41 229 rlineto
          192 hlineto
          -104 callsubr
          8 48 rlineto
          -107 callgsubr
          -193 hlineto
          38 213 rlineto
          -149 -181 rmoveto
          -147 -48 -189 -187 -116 -30 95 102 133 44 197 38 callgsubr
        </CharString>
        <CharString name="Oacute">
          9 callgsubr
          -305 179 hintmask 10100000
          -84 callgsubr
          -176 328 -96 callgsubr
          hintmask 01010000
          -61 callsubr
        </CharString>
        <CharString name="Obreve">
          17 callsubr
          39 76 hstemhm
          48 630 -378 330 -81 callsubr
          hintmask 01010000
          -91 393 -91 callsubr
        </CharString>
        <CharString name="Ocircumflex">
          17 callsubr
          36 5 callsubr
          48 630 -388 294 hintmask 10100000
          -84 callgsubr
          -191 314 -103 callgsubr
          hintmask 01010000
          -49 callsubr
        </CharString>
        <CharString name="Odieresis">
          17 callsubr
          42 122 hstemhm
          48 630 -392 -11 callsubr
          -81 callsubr
          hintmask 01011000
          -8 320 -98 callsubr
        </CharString>
        <CharString name="Ograve">
          9 callgsubr
          -318 124 -81 callsubr
          hintmask 01010000
          -95 425 -82 callgsubr
        </CharString>
        <CharString name="Ohungarumlaut">
          9 callgsubr
          -342 313 hintmask 10100000
          -84 callgsubr
          -70 328 -38 callsubr
          hintmask 01010000
          -57 callgsubr
        </CharString>
        <CharString name="Omacron">
          17 callsubr
          64 81 hstemhm
          48 630 -381 308 -81 callsubr
          hintmask 01010000
          25 342 -81 callgsubr
        </CharString>
        <CharString name="Omega">
          -72 callgsubr
        </CharString>
        <CharString name="Oslash">
          83 -85 844 hstem
          48 630 vstem
          -73 callgsubr
          endchar
        </CharString>
        <CharString name="Oslashacute">
          83 -85 844 -27 -7 callgsubr
          48 630 -320 179 hintmask 10100000
          -73 callgsubr
          -44 137 -96 callgsubr
          hintmask 01010000
          -61 callsubr
        </CharString>
        <CharString name="Otilde">
          17 callsubr
          54 -20 hstemhm
          48 630 -410 355 hintmask 10100000
          -84 callgsubr
          -193 440 -85 callsubr
          hhcurveto
          hintmask 01010000
          -29 callgsubr
        </CharString>
        <CharString name="P">
          -57 0 79 193 78 252 83 -5 -20 hstemhm
          455 117 -16 callgsubr
          252 hmoveto
          -95 callsubr
          -82 hlineto
          34 196 rlineto
          -2 17 15 -1 24 hhcurveto
          170 128 78 161 107 -80 67 -153 -54 -83 -3 -2 -76 hvcurveto
          hintmask 11011000
          -13 -1 -4 -3 -2 -12 -10 -52 rcurveline
          -2 -12 2 -3 13 1 rrcurveto
          51 hlineto
          -89 -90 callsubr
          hintmask 11101000
          305 602 rmoveto
          78 65 -23 -72 -110 -81 -47 -110 -8 -15 0 1 -8 hvcurveto
          43 251 rlineto
          endchar
        </CharString>
        <CharString name="Q">
          83 6 -21 24 -21 hstemhm
          48 630 hintmask 00000000
          hintmask 01100000
          678 426 rmoveto
          219 -153 51 -104 -237 -136 -209 -232 -143 77 -100 141 -20 vhcurveto
          -7 vlineto
          hintmask 10100000
          -29 -24 -6 -24 -43 vvcurveto
          -11 4 -5 10 vhcurveto
          28 hlineto
          10 5 3 11 hvcurveto
          13 -1 3 13 16 hhcurveto
          18 34 -21 -55 86 hvcurveto
          -28 44 27 -17 38 hhcurveto
          44 41 26 76 22 -3 11 -14 hvcurveto
          -22 hlineto
          -10 -5 -6 -11 -19 -3 -6 -16 -22 -34 24 32 -49 hvcurveto
          -19 13 -35 21 -36 8 rrcurveto
          7 vlineto
          hintmask 01100000
          196 41 112 187 203 vvcurveto
          -126 -8 rmoveto
          -135 -48 -206 -187 -116 -30 103 90 133 44 206 38 callgsubr
        </CharString>
        <CharString name="R">
          7 callsubr
          hstemhm
          453 117 hintmask 00000000
          hintmask 01111000
          -60 callsubr
          hintmask 10111000
          77 -223 rlineto
          -51 18 21 -30 61 hhcurveto
          38 39 17 16 23 hvcurveto
          -25 callsubr
          -5 11 -8 17 rcurveline
          -5 31 callgsubr
          -6 -14 -10 -2 -2 callgsubr
          -11 9 26 -9 hvcurveto
          -75 223 rlineto
          95 39 65 63 103 vvcurveto
          102 -79 60 -152 -54 -83 -3 -2 -76 vhcurveto
          -13 -1 -4 -3 -2 -12 -9 -52 rcurveline
          -2 -12 2 -3 13 1 rrcurveto
          -85 callgsubr
          305 602 rmoveto
          72 69 -20 -75 -102 -85 -44 -104 -8 -15 0 1 -8 hvcurveto
          43 240 rlineto
          endchar
        </CharString>
        <CharString name="Racute">
          7 callsubr
          47 -7 callgsubr
          278 179 -4 117 hintmask 00000000
          hintmask 01110010
          -60 callsubr
          hintmask 10110010
          77 -223 rlineto
          -51 18 21 -30 61 hhcurveto
          38 39 17 16 23 hvcurveto
          -25 callsubr
          -5 11 -8 17 rcurveline
          -5 31 callgsubr
          -6 -14 -10 -2 -2 callgsubr
          -11 9 26 -9 hvcurveto
          -75 223 rlineto
          95 39 65 63 103 vvcurveto
          102 -79 60 -152 -54 -83 -3 -2 -76 vhcurveto
          -13 -1 -4 -3 -2 -12 -9 -52 rcurveline
          -2 -12 2 -3 13 1 rrcurveto
          -85 callgsubr
          305 602 rmoveto
          72 69 -20 -75 -102 -85 -44 -104 -8 -15 0 1 -8 hvcurveto
          43 240 rlineto
          5 144 -96 callgsubr
          hintmask 00001100
          -61 callsubr
        </CharString>
        <CharString name="Rcaron">
          7 callsubr
          47 5 callsubr
          226 294 -67 117 hintmask 00000000
          hintmask 01110010
          -60 callsubr
          hintmask 10110010
          77 -223 rlineto
          -51 18 21 -30 61 hhcurveto
          38 39 17 16 23 hvcurveto
          -25 callsubr
          -5 11 -8 17 rcurveline
          -5 31 callgsubr
          -6 -14 -10 -2 -2 callgsubr
          -11 9 26 -9 hvcurveto
          -75 223 rlineto
          95 39 65 63 103 vvcurveto
          102 -79 60 -152 -54 -83 -3 -2 -76 vhcurveto
          -13 -1 -4 -3 -2 -12 -9 -52 rcurveline
          -2 -12 2 -3 13 1 rrcurveto
          -85 callgsubr
          305 602 rmoveto
          72 69 -20 -75 -102 -85 -44 -104 -8 -15 0 1 -8 hvcurveto
          43 240 rlineto
          177 261 -92 callgsubr
          hintmask 00001100
          -33 callgsubr
        </CharString>
        <CharString name="Rcommaaccent">
          1 -13 callgsubr
          58 72 -60 79 213 69 241 83 hstemhm
          193 124 136 117 hintmask 00000000
          hintmask 00111010
          -60 callsubr
          hintmask 01011010
          77 -223 rlineto
          -51 18 21 -30 61 hhcurveto
          38 39 17 16 23 hvcurveto
          -25 callsubr
          -5 11 -8 17 rcurveline
          -5 31 callgsubr
          -6 -14 -10 -2 -2 callgsubr
          -11 9 26 -9 hvcurveto
          -75 223 rlineto
          95 39 65 63 103 vvcurveto
          102 -79 60 -152 -54 -83 -3 -2 -76 vhcurveto
          -13 -1 -4 -3 -2 -12 -9 -52 rcurveline
          -2 -12 2 -3 13 1 rrcurveto
          -85 callgsubr
          305 602 rmoveto
          72 69 -20 -75 -102 -85 -44 -104 -8 -15 0 1 -8 hvcurveto
          43 240 rlineto
          hintmask 10000100
          -10 -828 -102 callgsubr
        </CharString>
        <CharString name="S">
          15 callsubr
          hstem
          89 108 158 108 vstem
          -101 callsubr
          endchar
        </CharString>
        <CharString name="Sacute">
          15 callsubr
          36 -7 callgsubr
          89 108 93 179 -114 108 hintmask 11010100
          -101 callsubr
          204 261 -96 callgsubr
          hintmask 00101000
          -61 callsubr
        </CharString>
        <CharString name="Scaron">
          15 callsubr
          36 5 callsubr
          89 108 25 294 -161 108 hintmask 11010100
          -101 callsubr
          360 378 -92 callgsubr
          hintmask 00101000
          -33 callgsubr
        </CharString>
        <CharString name="Scedilla">
          15 callsubr
          hstemhm
          89 108 -15 85 88 108 -16 callgsubr
          89 485 rmoveto
          -106 74 -34 70 -33 vhcurveto
          65 -31 57 -27 -70 vvcurveto
          -84 -61 -26 -87 -41 -46 12 13 -20 vhcurveto
          21 92 -41 callgsubr
          -3 hvcurveto
          -26 -159 -3 -12 3 -4 12 -4 rlinecurve
          hintmask 11011000
          -14 45 62 -10 69 hhcurveto
          -41 -49 -87 callgsubr
          18 23 rlineto
          134 14 86 80 124 vvcurveto
          113 -84 43 -65 33 vhcurveto
          hintmask 11101000
          -62 32 -55 22 65 vvcurveto
          55 43 37 82 31 41 -11 -13 21 vhcurveto
          -14 callsubr
          54 hlineto
          -104 callsubr
          24 137 3 12 -3 4 -12 4 rlinecurve
          13 -45 -51 9 -57 hhcurveto
          -168 -86 -98 -113 hvcurveto
          endchar
        </CharString>
        <CharString name="Scircumflex">
          15 callsubr
          36 5 callsubr
          89 108 11 294 -147 108 hintmask 11010100
          -101 callsubr
          190 247 -103 callgsubr
          hintmask 00101000
          -49 callsubr
        </CharString>
        <CharString name="Scommaaccent">
          -106 -13 callgsubr
          58 86 535 87 hstemhm
          89 108 -65 124 99 108 hintmask 01110100
          -101 callsubr
          hintmask 10001000
          116 -711 -102 callgsubr
        </CharString>
        <CharString name="T">
          -30 0 8 callgsubr
          38 callsubr
          -71 callgsubr
          hintmask 11010000
          -76 callgsubr
          276 hlineto
          13 3 11 callgsubr
          endchar
        </CharString>
        <CharString name="Tbar">
          -30 0 79 208 58 254 80 hstemhm
          61 579 -578 94 hintmask 00000000
          hintmask 11110000
          412 65 rmoveto
          2 -47 callsubr
          -1 rrcurveto
          -82 hlineto
          36 208 rlineto
          97 hlineto
          -86 callsubr
          4 28 rlineto
          -107 callgsubr
          -97 hlineto
          45 254 rlineto
          135 hlineto
          -14 callsubr
          58 hlineto
          -104 callsubr
          23 133 rlineto
          -107 callgsubr
          hintmask 11101000
          -521 hlineto
          -68 callgsubr
          -2 hvcurveto
          -24 -133 rlineto
          -62 callsubr
          13 2 hvcurveto
          8 67 rlineto
          135 hlineto
          -45 -254 rlineto
          -94 hlineto
          -86 callgsubr
          -4 -28 -99 callgsubr
          94 hlineto
          -36 -208 rlineto
          -81 hlineto
          -13 1 -3 -3 -3 -12 -8 -96 callsubr
          276 hlineto
          -86 callsubr
          endchar
        </CharString>
        <CharString name="Tcaron">
          -30 0 79 520 80 53 5 callsubr
          62 578 -577 94 88 294 hintmask 00000000
          hintmask 11010000
          -71 callgsubr
          hintmask 11001000
          -76 callgsubr
          276 hlineto
          13 3 11 callgsubr
          69 848 -92 callgsubr
          hintmask 00100100
          -33 callgsubr
        </CharString>
        <CharString name="Thorn">
          -57 0 79 76 78 250 83 32 81 hstem
          435 117 vstem
          -93 callgsubr
          52 hlineto
          -92 -519 rlineto
          -50 hlineto
          -13 1 -3 -3 -3 -12 -8 -96 callsubr
          245 hlineto
          -95 callsubr
          -83 hlineto
          14 78 rlineto
          -2 16 21 0 20 hhcurveto
          170 128 78 161 107 -81 65 -153 hvcurveto
          -50 hlineto
          7 32 rlineto
          160 -208 rmoveto
          -110 -81 -47 -110 vhcurveto
          -34 hlineto
          44 250 rlineto
          37 hlineto
          78 66 -21 -72 hvcurveto
          endchar
        </CharString>
        <CharString name="U">
          4 callgsubr
          hstem
          83 115 vstem
          -107 callsubr
          endchar
        </CharString>
        <CharString name="Uacute">
          -1 callgsubr
          201 179 hintmask 11010000
          -107 callsubr
          138 148 -96 callgsubr
          hintmask 00101000
          -61 callsubr
        </CharString>
        <CharString name="Ubreve">
          4 callgsubr
          56 76 hstemhm
          83 115 106 330 hintmask 11010000
          -107 callsubr
          hintmask 00101000
          201 213 -91 callsubr
        </CharString>
        <CharString name="Ucircumflex">
          4 callgsubr
          53 131 hstemhm
          83 115 100 294 hintmask 11010000
          -107 callsubr
          105 134 -103 callgsubr
          hintmask 00101000
          -49 callsubr
        </CharString>
        <CharString name="Udieresis">
          4 callgsubr
          59 122 hstemhm
          83 115 98 -11 callsubr
          hintmask 11010000
          -107 callsubr
          hintmask 00101100
          290 140 -98 callsubr
        </CharString>
        <CharString name="Ugrave">
          -1 callgsubr
          158 124 hintmask 11010000
          -107 callsubr
          hintmask 00101000
          189 245 -82 callgsubr
        </CharString>
        <CharString name="Uhungarumlaut">
          -1 callgsubr
          149 313 hintmask 11010000
          -107 callsubr
          229 148 -38 callsubr
          hintmask 00101000
          -57 callgsubr
        </CharString>
        <CharString name="Umacron">
          4 callgsubr
          81 81 hstemhm
          83 115 109 308 hintmask 11010000
          -107 callsubr
          hintmask 00101000
          323 162 -81 callgsubr
        </CharString>
        <CharString name="Uogonek">
          98 -231 66 153 90 520 81 hstemhm
          83 115 25 91 hintmask 00000000
          hintmask 11110000
          315 -94 callgsubr
          53 hlineto
          -61 -349 rlineto
          -5 -29 -3 -26 -24 vvcurveto
          -117 63 -65 171 vhcurveto
          8 hlineto
          hintmask 11111000
          -62 -42 -40 -50 -53 -89 callsubr
          48 61 66 54 21 hvcurveto
          124 48 42 80 20 110 64 361 rcurveline
          -93 callsubr
          -200 -20 callgsubr
          -58 -336 rlineto
          -123 -21 -52 -61 -117 hhcurveto
          hintmask 11110000
          -109 -28 46 69 27 4 31 6 33 hvcurveto
          56 314 rlineto
          endchar
        </CharString>
        <CharString name="Uring">
          4 callgsubr
          32 52 97 52 hstemhm
          83 115 157 58 85 56 hintmask 11001000
          -107 callsubr
          hintmask 00110110
          189 113 -79 callgsubr
          endchar
        </CharString>
        <CharString name="Utilde">
          4 callgsubr
          71 -20 hstemhm
          83 115 82 355 hintmask 11010000
          -107 callsubr
          107 260 -85 callsubr
          hhcurveto
          hintmask 00101000
          -29 callgsubr
        </CharString>
        <CharString name="V">
          61 -7 118 -97 -21 605 81 hstemhm
          65 684 hintmask 00000000
          hintmask 01110000
          341 -7 rmoveto
          -78 callgsubr
          11 6 hvcurveto
          297 591 rlineto
          58 hlineto
          13 -1 4 3 2 12 10 -100 callgsubr
          -215 -106 callgsubr
          62 hlineto
          hintmask 10110000
          -235 -487 -64 487 rlineto
          55 hlineto
          -99 callsubr
          -243 -106 callgsubr
          62 hlineto
          87 -590 rlineto
          -12 2 3 -30 callsubr
          endchar
        </CharString>
        <CharString name="W">
          374 14 -21 605 81 hstem
          65 991 vstem
          295 -7 rmoveto
          -78 callgsubr
          11 5 hvcurveto
          226 513 49 -511 rlineto
          -13 2 3 -30 callsubr
          98 hlineto
          -78 callgsubr
          11 5 hvcurveto
          246 591 -82 callsubr
          -207 hlineto
          -68 callgsubr
          -2 hvcurveto
          -10 -52 -106 callsubr
          62 hlineto
          -189 -469 -50 534 rlineto
          13 -1 -3 -34 callsubr
          -85 hlineto
          -46 callgsubr
          -11 -5 hvcurveto
          -237 -533 -23 466 rlineto
          63 hlineto
          -99 callsubr
          -241 -106 callgsubr
          59 hlineto
          39 -589 rlineto
          -13 1 3 -30 callsubr
          endchar
        </CharString>
        <CharString name="Wacute">
          374 14 -21 605 -16 callsubr
          65 991 -524 179 hintmask 11010000
          295 -7 rmoveto
          -78 callgsubr
          11 5 hvcurveto
          226 513 49 -511 rlineto
          -13 2 3 -30 callsubr
          98 hlineto
          -78 callgsubr
          11 5 hvcurveto
          246 591 -82 callsubr
          -207 hlineto
          -68 callgsubr
          -2 hvcurveto
          -10 -52 -106 callsubr
          62 hlineto
          -189 -469 -50 534 rlineto
          13 -1 -3 -34 callsubr
          -85 hlineto
          -46 callgsubr
          -11 -5 hvcurveto
          -237 -533 -23 466 rlineto
          63 hlineto
          -99 callsubr
          -241 -106 callgsubr
          59 hlineto
          39 -589 rlineto
          -13 1 3 -30 callsubr
          341 753 -96 callgsubr
          hintmask 00101000
          -61 callsubr
        </CharString>
        <CharString name="Wcircumflex">
          374 14 -21 605 20 callgsubr
          65 991 -618 294 hintmask 11010000
          295 -7 rmoveto
          -78 callgsubr
          11 5 hvcurveto
          226 513 49 -511 rlineto
          -13 2 3 -30 callsubr
          98 hlineto
          -78 callgsubr
          11 5 hvcurveto
          246 591 -82 callsubr
          -207 hlineto
          -68 callgsubr
          -2 hvcurveto
          -10 -52 -106 callsubr
          62 hlineto
          -189 -469 -50 534 rlineto
          13 -1 -3 -34 callsubr
          -85 hlineto
          -46 callgsubr
          -11 -5 hvcurveto
          -237 -533 -23 466 rlineto
          63 hlineto
          -99 callsubr
          -241 -106 callgsubr
          59 hlineto
          39 -589 rlineto
          -13 1 3 -30 callsubr
          315 739 -103 callgsubr
          hintmask 00101000
          -49 callsubr
        </CharString>
        <CharString name="Wdieresis">
          374 14 -21 605 81 59 122 hstemhm
          65 991 -622 -11 callsubr
          hintmask 11010000
          295 -7 rmoveto
          -78 callgsubr
          11 5 hvcurveto
          226 513 49 -511 rlineto
          -13 2 3 -30 callsubr
          98 hlineto
          -78 callgsubr
          11 5 hvcurveto
          246 591 -82 callsubr
          -207 hlineto
          -68 callgsubr
          -2 hvcurveto
          -10 -52 -106 callsubr
          62 hlineto
          -189 -469 -50 534 rlineto
          13 -1 -3 -34 callsubr
          -85 hlineto
          -46 callgsubr
          -11 -5 hvcurveto
          -237 -533 -23 466 rlineto
          63 hlineto
          -99 callsubr
          -241 -106 callgsubr
          59 hlineto
          39 -589 rlineto
          -13 1 3 -30 callsubr
          hintmask 00101100
          498 745 -98 callsubr
        </CharString>
        <CharString name="Wgrave">
          374 14 -21 605 -16 callsubr
          65 991 -543 124 hintmask 11010000
          295 -7 rmoveto
          -78 callgsubr
          11 5 hvcurveto
          226 513 49 -511 rlineto
          -13 2 3 -30 callsubr
          98 hlineto
          -78 callgsubr
          11 5 hvcurveto
          246 591 -82 callsubr
          -207 hlineto
          -68 callgsubr
          -2 hvcurveto
          -10 -52 -106 callsubr
          62 hlineto
          -189 -469 -50 534 rlineto
          13 -1 -3 -34 callsubr
          -85 hlineto
          -46 callgsubr
          -11 -5 hvcurveto
          -237 -533 -23 466 rlineto
          63 hlineto
          -99 callsubr
          -241 -106 callgsubr
          59 hlineto
          39 -589 rlineto
          -13 1 3 -30 callsubr
          hintmask 00101000
          416 850 -82 callgsubr
        </CharString>
        <CharString name="X">
          54 -22 callsubr
          hstem
          -42 753 vstem
          315 269 rmoveto
          103 -190 rlineto
          -63 hlineto
          -13 1 -3 -3 -3 -12 -8 -96 callsubr
          260 hlineto
          -95 callsubr
          -60 hlineto
          -151 277 228 242 rlineto
          51 hlineto
          -99 callsubr
          -209 hlineto
          -86 callgsubr
          -8 -52 -106 callsubr
          55 hlineto
          -163 -180 -97 180 rlineto
          60 hlineto
          -99 callsubr
          -248 hlineto
          -86 callgsubr
          -8 -52 -106 callsubr
          53 hlineto
          144 -260 -241 -259 rlineto
          -52 hlineto
          -13 1 -3 -3 -3 -12 -7 -96 callsubr
          216 hlineto
          -95 callsubr
          -63 hlineto
          endchar
        </CharString>
        <CharString name="Y">
          41 -22 callsubr
          hstem
          78 626 vstem
          243 79 rmoveto
          -88 callgsubr
          216 hlineto
          -95 callsubr
          -52 hlineto
          33 191 236 328 -82 callsubr
          -205 hlineto
          -68 callgsubr
          -2 hvcurveto
          -10 -52 -106 callsubr
          56 hlineto
          -169 -238 -79 238 rlineto
          53 hlineto
          -99 callsubr
          -236 hlineto
          -68 callgsubr
          -2 hvcurveto
          -10 -52 -106 callsubr
          57 hlineto
          125 -341 rlineto
          endchar
        </CharString>
        <CharString name="Yacute">
          41 0 79 519 -16 callsubr
          78 626 -352 179 hintmask 11010000
          243 79 rmoveto
          -88 callgsubr
          216 hlineto
          -95 callsubr
          -52 hlineto
          33 191 236 328 -82 callsubr
          -205 hlineto
          -68 callgsubr
          -2 hvcurveto
          -10 -52 -106 callsubr
          56 hlineto
          -169 -238 -79 238 rlineto
          53 hlineto
          -99 callsubr
          -236 hlineto
          -68 callgsubr
          -2 hvcurveto
          -10 -52 -106 callsubr
          57 hlineto
          125 -341 rlineto
          81 489 -96 callgsubr
          hintmask 00101000
          -61 callsubr
        </CharString>
        <CharString name="Ycircumflex">
          41 0 79 519 20 callgsubr
          78 626 -452 294 hintmask 11010000
          243 79 rmoveto
          -88 callgsubr
          216 hlineto
          -95 callsubr
          -52 hlineto
          33 191 236 328 -82 callsubr
          -205 hlineto
          -68 callgsubr
          -2 hvcurveto
          -10 -52 -106 callsubr
          56 hlineto
          -169 -238 -79 238 rlineto
          53 hlineto
          -99 callsubr
          -236 hlineto
          -68 callgsubr
          -2 hvcurveto
          -10 -52 -106 callsubr
          57 hlineto
          125 -341 rlineto
          49 475 -103 callgsubr
          hintmask 00101000
          -49 callsubr
        </CharString>
        <CharString name="Ydieresis">
          41 -22 callsubr
          59 122 hstemhm
          78 626 -443 -11 callsubr
          hintmask 11010000
          243 79 rmoveto
          -88 callgsubr
          216 hlineto
          -95 callsubr
          -52 hlineto
          33 191 236 328 -82 callsubr
          -205 hlineto
          -68 callgsubr
          -2 hvcurveto
          -10 -52 -106 callsubr
          56 hlineto
          -169 -238 -79 238 rlineto
          53 hlineto
          -99 callsubr
          -236 hlineto
          -68 callgsubr
          -2 hvcurveto
          -10 -52 -106 callsubr
          57 hlineto
          125 -341 rlineto
          hintmask 00101100
          245 481 -98 callsubr
        </CharString>
        <CharString name="Ygrave">
          41 0 79 519 -16 callsubr
          78 626 -364 124 hintmask 11010000
          243 79 rmoveto
          -88 callgsubr
          216 hlineto
          -95 callsubr
          -52 hlineto
          33 191 236 328 -82 callsubr
          -205 hlineto
          -68 callgsubr
          -2 hvcurveto
          -10 -52 -106 callsubr
          56 hlineto
          -169 -238 -79 238 rlineto
          53 hlineto
          -99 callsubr
          -236 hlineto
          -68 callgsubr
          -2 hvcurveto
          -10 -52 -106 callsubr
          57 hlineto
          125 -341 rlineto
          hintmask 00101000
          163 586 -82 callgsubr
        </CharString>
        <CharString name="Z">
          31 callsubr
          hstemhm
          91 95 252 92 hintmask 00000000
          hintmask 11110000
          91 521 rmoveto
          -62 callsubr
          13 2 hvcurveto
          10 79 rlineto
          267 hlineto
          -455 -519 -7 -9 -4 -7 -2 -11 rlinecurve
          -6 -40 -99 callgsubr
          424 -33 callsubr
          54 hlineto
          -104 callsubr
          34 197 rlineto
          -107 callgsubr
          -57 -57 callsubr
          -8 -80 rlineto
          -297 hlineto
          460 522 7 9 4 7 2 11 rlinecurve
          6 37 rlineto
          -107 callgsubr
          -470 24 callsubr
        </CharString>
        <CharString name="Zacute">
          31 callsubr
          10 callsubr
          91 95 133 179 -60 92 hintmask 00000000
          hintmask 11010100
          91 521 rmoveto
          -62 callsubr
          13 2 hvcurveto
          10 79 rlineto
          267 hlineto
          -455 -519 -7 -9 -4 -7 -2 -11 rlinecurve
          -6 -40 -99 callgsubr
          424 -33 callsubr
          54 hlineto
          -104 callsubr
          34 197 rlineto
          -107 callgsubr
          -57 -57 callsubr
          -8 -80 rlineto
          -297 hlineto
          460 522 7 9 4 7 2 11 rlinecurve
          6 37 rlineto
          -107 callgsubr
          -470 hlineto
          -86 callgsubr
          208 82 -96 callgsubr
          hintmask 00101000
          -61 callsubr
        </CharString>
        <CharString name="Zcaron">
          31 callsubr
          53 5 callsubr
          91 95 58 294 -100 92 hintmask 00000000
          hintmask 11010100
          91 521 rmoveto
          -62 callsubr
          13 2 hvcurveto
          10 79 rlineto
          267 hlineto
          -455 -519 -7 -9 -4 -7 -2 -11 rlinecurve
          -6 -40 -99 callgsubr
          424 -33 callsubr
          54 hlineto
          -104 callsubr
          34 197 rlineto
          -107 callgsubr
          -57 -57 callsubr
          -8 -80 rlineto
          -297 hlineto
          460 522 7 9 4 7 2 11 rlinecurve
          6 37 rlineto
          -107 callgsubr
          -470 hlineto
          -86 callgsubr
          357 199 -92 callgsubr
          hintmask 00101000
          -33 callgsubr
        </CharString>
        <CharString name="Zdotaccent">
          31 callsubr
          51 143 hstemhm
          91 95 128 145 -21 92 hintmask 00000000
          hintmask 11010100
          91 521 rmoveto
          -62 callsubr
          13 2 hvcurveto
          10 79 rlineto
          267 hlineto
          -455 -519 -7 -9 -4 -7 -2 -11 rlinecurve
          -6 -40 -99 callgsubr
          424 -33 callsubr
          54 hlineto
          -104 callsubr
          34 197 rlineto
          -107 callgsubr
          -57 -57 callsubr
          -8 -80 rlineto
          -297 hlineto
          460 522 7 9 4 7 2 11 rlinecurve
          6 37 rlineto
          -107 callgsubr
          -470 hlineto
          -86 callgsubr
          hintmask 00101000
          267 66 -69 callsubr
        </CharString>
        <CharString name="a">
          -17 callsubr
          hstemhm
          30 113 hintmask 00000000
          hintmask 10110000
          -35 callgsubr
          hintmask 11010000
          -90 callgsubr
          hintmask 10110000
          -59 callgsubr
          hintmask 11010000
          -51 callgsubr
          hintmask 10110000
          3 callsubr
          endchar
        </CharString>
        <CharString name="aacute">
          -17 callsubr
          105 152 hstemhm
          30 113 148 181 hintmask 00000000
          hintmask 10101000
          -35 callgsubr
          hintmask 11001000
          -90 callgsubr
          hintmask 10101000
          -59 callgsubr
          hintmask 11001000
          -51 callgsubr
          hintmask 10101000
          3 callsubr
          53 524 -69 callgsubr
          hintmask 00010100
          -9 callgsubr
        </CharString>
        <CharString name="abreve">
          -32 0 0 97 198 endchar
        </CharString>
        <CharString name="acircumflex">
          -32 -32 0 97 195 endchar
        </CharString>
        <CharString name="acute">
          580 152 hstem
          272 181 vstem
          275 598 -69 callgsubr
          -9 callgsubr
        </CharString>
        <CharString name="acute.cap">
          732 126 hstem
          268 179 vstem
          271 746 -96 callgsubr
          -62 callgsubr
          endchar
        </CharString>
        <CharString name="adieresis">
          -32 1 0 97 200 endchar
        </CharString>
        <CharString name="ae">
          205 -12 84 134 74 144 87 -82 82 hstemhm
          25 113 555 118 hintmask 00000000
          hintmask 11011100
          761 46 rmoveto
          10 8 1 4 -7 11 -17 31 rcurveline
          -6 11 -4 1 -11 -6 rrcurveto
          -21 -35 -35 -13 -51 hhcurveto
          -78 -33 48 65 8 0 9 1 8 hvcurveto
          -2 20 22 -2 22 hhcurveto
          120 130 41 131 1 hvcurveto
          76 -51 57 -99 -60 -51 -23 -42 -36 vhcurveto
          10 50 rlineto
          -107 callgsubr
          -68 hlineto
          -68 callgsubr
          -2 hvcurveto
          -9 -47 rlineto
          27 -20 -41 35 -65 hhcurveto
          -190 -74 -182 -152 -129 68 -60 102 83 65 34 76 50 hvcurveto
          -67 25 58 -43 101 hhcurveto
          66 67 21 37 51 hvcurveto
          -525 27 rmoveto
          -74 -24 42 76 93 35 145 127 71 31 -52 -1 1 hvcurveto
          -36 -194 rlineto
          -72 -12 -67 -37 -52 hhcurveto
          hintmask 11101100
          396 351 rmoveto
          37 24 -16 -35 -68 -88 -25 -63 -35 callsubr
          65 73 hhcurveto
          endchar
        </CharString>
        <CharString name="aeacute">
          205 154 0 241 194 endchar
        </CharString>
        <CharString name="agrave">
          -32 -71 0 97 193 endchar
        </CharString>
        <CharString name="amacron">
          -17 callsubr
          137 81 hstemhm
          30 113 67 309 hintmask 00000000
          hintmask 10101000
          -35 callgsubr
          hintmask 11001000
          -90 callgsubr
          hintmask 10101000
          -59 callgsubr
          hintmask 11001000
          -51 callgsubr
          hintmask 10101000
          3 callsubr
          hintmask 00010100
          249 538 -77 callgsubr
        </CharString>
        <CharString name="ampersand">
          211 -214 68 129 77 -52 -21 476 83 -69 81 hstemhm
          42 117 246 119 157 84 hintmask 00000000
          hintmask 01001111
          794 476 rmoveto
          13 -1 4 3 2 12 11 -31 callsubr
          -224 -106 callgsubr
          74 hlineto
          24 -50 11 -48 -45 vvcurveto
          -137 -77 -87 -99 -29 vhcurveto
          -36 93 -27 68 -93 19 rrcurveto
          52 -1 123 40 113 vvcurveto
          hintmask 01010111
          81 -65 52 -109 -204 -104 -148 -153 -164 111 -98 200 25 25 1 3 24 vhcurveto
          hintmask 10101111
          57 -126 rlineto
          -49 23 25 -26 56 hhcurveto
          44 35 16 16 23 hvcurveto
          10 -12 callgsubr
          -6 11 -6 13 rcurveline
          -6 31 callgsubr
          -5 -13 -11 -2 -11 hhcurveto
          -24 -10 12 25 -11 hvcurveto
          -53 116 rlineto
          127 38 104 127 163 vvcurveto
          46 -9 46 -18 49 vhcurveto
          -345 -415 rmoveto
          hintmask 01010111
          -1 -13 -13 0 -13 hhcurveto
          -136 -59 79 115 86 46 123 127 42 31 -20 -42 -54 -61 -31 -67 -10 hvcurveto
          -13 -2 -3 -3 -2 -13 -4 -23 rcurveline
          -1 -13 2 -3 13 -3 52 -14 27 -66 45 -105 rrcurveto
          endchar
        </CharString>
        <CharString name="aogonek">
          -31 -231 66 153 85 -67 -21 444 66 -66 82 hstemhm
          30 113 169 91 -49 116 hintmask 00000000
          hintmask 11010110
          444 495 rmoveto
          -68 callgsubr
          -2 hvcurveto
          hintmask 11001101
          -4 -22 rlineto
          22 -16 -46 31 -65 hhcurveto
          -190 -74 -187 -152 -129 63 -55 102 65 55 27 54 39 hvcurveto
          hintmask 10101101
          -2 -42 13 -34 42 -8 rrcurveto
          hintmask 11001110
          -46 -34 -49 -47 -61 -89 callsubr
          48 49 55 49 31 hvcurveto
          hintmask 11010101
          14 9 14 9 13 10 -64 callgsubr
          67 388 rlineto
          -107 callgsubr
          -283 -422 rmoveto
          -74 -24 37 76 hvcurveto
          hintmask 11001110
          93 34 150 127 71 31 -52 -1 1 vhcurveto
          -35 -194 rlineto
          hintmask 11010101
          -72 -13 -66 -37 -52 hhcurveto
          endchar
        </CharString>
        <CharString name="apostrophe">
          746 -20 hstem
          309 124 vstem
          383 590 -32 callsubr
        </CharString>
        <CharString name="approxequal">
          13 122 153 50 153 hstemhm
          44 506 -477 506 hintmask 10100000
          173 275 -65 callgsubr
          -71 -110 55 -74 hhcurveto
          29 203 -65 callgsubr
          hhcurveto
          hintmask 01010000
          -71 -110 55 -74 hhcurveto
          endchar
        </CharString>
        <CharString name="aring">
          -17 callsubr
          90 52 97 52 hstemhm
          30 113 102 58 85 56 hintmask 00000000
          hintmask 10100100
          -35 callgsubr
          hintmask 11000100
          -90 callgsubr
          hintmask 10100100
          -59 callgsubr
          hintmask 11000100
          -51 callgsubr
          hintmask 10100100
          3 callsubr
          hintmask 00011011
          102 491 -79 callgsubr
          endchar
        </CharString>
        <CharString name="aringacute">
          -17 callsubr
          60 52 97 52 22 -7 callgsubr
          30 113 104 58 -8 179 -86 56 hintmask 0000000000000000
          hintmask 1010001000000000
          -35 callgsubr
          hintmask 1100001000000000
          -90 callgsubr
          hintmask 1010001000000000
          -59 callgsubr
          hintmask 1100001000000000
          -51 callgsubr
          hintmask 1010001000000000
          3 callsubr
          hintmask 0001100101000000
          104 461 -79 callgsubr
          -47 88 -96 callgsubr
          hintmask 0000010010000000
          -61 callsubr
        </CharString>
        <CharString name="asciicircum">
          -39 314 376 hstem
          93 429 vstem
          428 328 rmoveto
          -10 2 6 -42 callsubr
          64 hlineto
          10 4 4 10 -2 hvcurveto
          -107 348 rlineto
          10 -2 -6 -21 callgsubr
          -47 hlineto
          -62 callgsubr
          -229 -348 rlineto
          -10 -7 -10 callgsubr
          71 hlineto
          10 8 4 10 6 hvcurveto
          161 259 rlineto
          endchar
        </CharString>
        <CharString name="asciitilde">
          13 215 153 hstem
          80 506 vstem
          209 368 -65 callgsubr
          -71 -110 55 -74 hhcurveto
          endchar
        </CharString>
        <CharString name="asterisk">
          -137 746 -20 hstem
          106 382 vstem
          269 610 rmoveto
          -96 51 -11 6 -5 -1 -8 -10 rlinecurve
          -7 -10 -8 -10 0 -4 10 -8 rlinecurve
          86 -72 -114 -71 -11 -6 -1 -5 4 -12 rlinecurve
          3 -5 4 -12 4 -2 11 5 rlinecurve
          121 51 -8 -118 rlineto
          -13 -1 3 -30 callsubr
          10 hlineto
          13 4 -70 callgsubr
          35 119 98 -50 -19 callsubr
          8 9 8 10 0 4 -10 8 rlinecurve
          -88 73 115 71 11 6 1 5 -5 12 rlinecurve
          -1 4 -5 12 -4 2 -11 -5 rlinecurve
          -123 -51 10 120 rlineto
          13 1 -3 -34 callsubr
          -11 hlineto
          -13 -4 -80 callgsubr
          endchar
        </CharString>
        <CharString name="at">
          254 -147 37 110 50 -50 74 302 69 142 38 hstemhm
          47 48 126 95 179 100 179 43 hintmask 0000000000000000
          hintmask 1101111110000000
          550 401 rmoveto
          19 -13 -38 25 -56 hhcurveto
          -160 -62 -158 -127 -109 54 -51 85 55 47 16 42 33 hvcurveto
          -36 6 32 -22 54 hhcurveto
          182 48 160 119 233 -142 113 -231 -241 -156 -178 -236 -247 167 -111 222 24 24 1 2 24 hvcurveto
          13 1 3 4 -2 12 rrcurveto
          6 vlineto
          -2 13 -3 3 -13 -2 rrcurveto
          -2 -21 -22 -1 -21 hhcurveto
          -193 -152 94 229 204 131 170 211 224 113 -111 -197 -126 -52 -103 -97 -26 -9 26 31 5 hvcurveto
          53 310 rlineto
          -107 callgsubr
          -63 hlineto
          -68 callgsubr
          -2 hvcurveto
          hintmask 1011111110000000
          -153 -343 rmoveto
          -63 -21 44 53 78 31 127 106 61 26 -43 -1 hvcurveto
          -31 -168 rlineto
          -61 -9 -56 -29 -44 hhcurveto
          endchar
        </CharString>
        <CharString name="atilde">
          -17 callsubr
          123 114 hstemhm
          30 113 26 355 hintmask 00000000
          hintmask 10101000
          -35 callgsubr
          hintmask 11001000
          -90 callgsubr
          hintmask 10101000
          -59 callgsubr
          hintmask 11001000
          -51 callgsubr
          hintmask 10101000
          3 callsubr
          19 638 -77 callsubr
          hhcurveto
          hintmask 00010100
          -29 callgsubr
        </CharString>
        <CharString name="b">
          -33 -12 85 340 93 160 80 hstem
          436 118 vstem
          153 48 rmoveto
          -28 27 48 -32 71 hhcurveto
          177 78 159 171 121 -61 67 -101 -63 -60 -28 -54 -42 hvcurveto
          53 307 rlineto
          -107 callgsubr
          -138 hlineto
          -59 callsubr
          -114 -656 -2 -10 8 -10 12 7 rlinecurve
          277 416 rmoveto
          69 29 -49 -70 -110 -30 -111 -118 -72 -39 52 1 -1 hvcurveto
          31 182 rlineto
          72 13 66 33 52 hhcurveto
          endchar
        </CharString>
        <CharString name="backslash">
          -86 -101 846 hstem
          81 412 vstem
          414 -83 rmoveto
          -15 5 4 -3 16 hhcurveto
          39 hlineto
          15 3 4 14 -5 hvcurveto
          -330 810 rlineto
          15 -5 -4 3 -16 hhcurveto
          -40 hlineto
          -15 -3 -4 -14 5 hvcurveto
          endchar
        </CharString>
        <CharString name="bar">
          -366 745 -20 hstem
          25 222 vstem
          246 730 rmoveto
          -107 callgsubr
          -45 hlineto
          -68 callgsubr
          -2 hvcurveto
          -143 -816 -99 callgsubr
          45 hlineto
          -104 callsubr
          endchar
        </CharString>
        <CharString name="braceleft">
          -264 -150 82 341 86 301 85 hstem
          59 343 vstem
          158 273 rmoveto
          -98 -408 rlineto
          -12 -3 2 -30 callsubr
          159 hlineto
          -104 callsubr
          9 56 2 -47 callsubr
          -1 rlinecurve
          -72 -5 129 733 70 -5 13 -1 3 3 3 12 rlinecurve
          9 59 rlineto
          -107 callgsubr
          -159 -57 callsubr
          -38 -371 rlineto
          -81 hlineto
          -68 callgsubr
          -2 hvcurveto
          -9 -56 -99 callgsubr
          endchar
        </CharString>
        <CharString name="braceright">
          -263 -149 85 301 86 341 82 hstem
          -43 343 vstem
          201 323 rmoveto
          98 408 rlineto
          12 3 -2 -34 callsubr
          -159 hlineto
          -68 callgsubr
          -2 hvcurveto
          -9 -56 -106 callsubr
          72 5 2 callgsubr
          159 hlineto
          13 3 3 13 2 hvcurveto
          38 371 rlineto
          81 hlineto
          -104 callsubr
          9 56 rlineto
          -107 callgsubr
          endchar
        </CharString>
        <CharString name="bracketleft">
          -286 -150 82 728 85 hstem
          40 336 vstem
          233 -79 rmoveto
          2 -47 callsubr
          -1 -72 -5 rcurveline
          129 733 70 -5 13 -1 3 3 3 12 rlinecurve
          9 59 rlineto
          -107 callgsubr
          -151 hlineto
          -68 callgsubr
          -2 hvcurveto
          -151 -866 -99 callgsubr
          151 hlineto
          -104 callsubr
          endchar
        </CharString>
        <CharString name="bracketright">
          -286 -149 85 728 82 hstem
          -35 336 vstem
          108 675 rmoveto
          -2 -12 2 -3 13 1 72 5 rcurveline
          2 callgsubr
          151 hlineto
          -104 callsubr
          151 866 rlineto
          -107 callgsubr
          -151 hlineto
          -68 callgsubr
          -2 hvcurveto
          endchar
        </CharString>
        <CharString name="breve">
          579 80 hstem
          210 333 vstem
          370 659 -44 callsubr
        </CharString>
        <CharString name="breve.cap">
          735 76 hstem
          243 330 vstem
          404 811 -91 callsubr
        </CharString>
        <CharString name="brokenbar">
          -366 745 -20 hstem
          24 222 vstem
          155 218 rmoveto
          -107 callgsubr
          -45 hlineto
          -68 callgsubr
          -2 hvcurveto
          -53 -304 -99 callgsubr
          45 hlineto
          -104 callsubr
          85 831 rmoveto
          -68 callgsubr
          -2 hvcurveto
          -47 -272 -99 callgsubr
          45 hlineto
          -104 callsubr
          47 272 rlineto
          -107 callgsubr
          endchar
        </CharString>
        <CharString name="bullet">
          -262 248 187 hstem
          88 206 vstem
          182 248 rmoveto
          66 46 46 57 47 -33 37 -60 -65 -48 -44 -56 -46 27 -41 67 hvcurveto
          endchar
        </CharString>
        <CharString name="c">
          -151 -12 84 348 86 hstem
          26 116 235 86 vstem
          377 335 rmoveto
          -13 3 -3 12 vhcurveto
          54 35 callgsubr
          95 8 -45 76 -123 hhcurveto
          -190 -87 -160 -153 -120 60 -85 132 73 63 22 36 51 hvcurveto
          -25 callsubr
          -7 11 -16 32 rcurveline
          -6 11 -5 1 -10 -6 rrcurveto
          -25 -44 -30 -9 -39 hhcurveto
          -90 -28 53 71 98 32 126 117 54 35 -23 -62 -3 hvcurveto
          endchar
        </CharString>
        <CharString name="cacute">
          -151 -6 0 99 194 endchar
        </CharString>
        <CharString name="caron">
          -103 580 161 hstem
          241 297 vstem
          466 741 rmoveto
          -7 callsubr
          -9 -8 hvcurveto
          -68 -84 -43 85 rlineto
          8 -4 -7 -21 callgsubr
          -55 hlineto
          -10 -4 -4 -9 4 hvcurveto
          61 -135 rlineto
          -9 4 6 -42 callsubr
          76 hlineto
          10 8 4 9 8 hvcurveto
          107 18 callgsubr
          9 8 -2 -21 callgsubr
          endchar
        </CharString>
        <CharString name="caron.alt">
          526 220 hstem
          295 134 vstem
          295 541 -9 callsubr
          -10 -6 -4 -11 -2 hvcurveto
          endchar
        </CharString>
        <CharString name="caron.cap">
          732 131 hstem
          260 294 vstem
          487 863 -92 callgsubr
          -33 callgsubr
        </CharString>
        <CharString name="ccaron">
          -151 -40 0 99 207 endchar
        </CharString>
        <CharString name="ccedilla">
          -151 -12 83 352 88 hstem
          26 116 49 85 101 85 vstem
          377 340 rmoveto
          -13 3 -3 12 vhcurveto
          53 35 callgsubr
          101 9 -45 70 -123 hhcurveto
          -190 -87 -166 -153 -117 56 -82 124 -5 hvcurveto
          -41 -49 -87 callgsubr
          18 22 58 5 52 20 43 31 rlinecurve
          -25 callsubr
          -7 11 -16 31 rcurveline
          -6 11 -5 1 -10 -6 rrcurveto
          -25 -44 -30 -9 -39 hhcurveto
          -89 -29 52 73 98 32 129 117 54 35 -21 -62 -3 hvcurveto
          endchar
        </CharString>
        <CharString name="ccircumflex">
          -151 -57 0 99 195 endchar
        </CharString>
        <CharString name="cdotaccent">
          -151 -39 0 99 199 endchar
        </CharString>
        <CharString name="cedilla">
          -32 35 hstemhm
          211 85 hintmask 00000000
          hintmask 11000000
          239 3 rmoveto
          -54 -64 -87 callgsubr
          29 35 rlineto
          endchar
        </CharString>
        <CharString name="cedilla.cap">
          -32 35 hstemhm
          211 85 hintmask 00000000
          hintmask 11000000
          239 3 rmoveto
          -54 -64 -87 callgsubr
          29 35 rlineto
          endchar
        </CharString>
        <CharString name="cent">
          -155 34 79 398 -20 hstem
          39 105 215 74 vstem
          150 -59 rmoveto
          -42 callgsubr
          25 78 rlineto
          21 hlineto
          49 54 15 24 47 hvcurveto
          11 6 2 4 -5 12 -14 30 17 callgsubr
          2 -11 -5 rrcurveto
          -13 -31 -31 -8 -30 hhcurveto
          -10 -9 0 2 -9 hvcurveto
          98 314 rlineto
          30 -9 10 -21 -30 vvcurveto
          -7 0 -8 -1 -9 vhcurveto
          -12 -2 -13 callsubr
          40 hlineto
          13 3 11 callgsubr
          3 14 1 13 12 vvcurveto
          61 -32 41 -58 19 vhcurveto
          23 76 rlineto
          12 4 -39 callsubr
          -10 hlineto
          -68 callgsubr
          -4 hvcurveto
          -22 -70 rlineto
          -179 7 -84 -145 -155 vvcurveto
          -85 37 -73 80 -19 vhcurveto
          -27 -85 rlineto
          -12 -4 -13 callsubr
          4 291 rmoveto
          99 42 94 92 9 vhcurveto
          -94 -303 rlineto
          -28 21 -12 37 43 vvcurveto
          endchar
        </CharString>
        <CharString name="circumflex">
          580 161 hstem
          220 297 vstem
          293 580 rmoveto
          10 8 4 9 8 hvcurveto
          68 84 43 -85 rlineto
          -8 4 7 -42 callsubr
          54 hlineto
          10 4 4 9 -4 hvcurveto
          -61 18 callgsubr
          9 -4 -6 -21 callgsubr
          -76 hlineto
          -7 callsubr
          -9 -8 hvcurveto
          -107 -135 rlineto
          -9 -8 2 -15 callgsubr
        </CharString>
        <CharString name="circumflex.cap">
          732 131 hstem
          245 294 vstem
          316 732 -103 callgsubr
          -49 callsubr
        </CharString>
        <CharString name="colon">
          -344 -19 138 259 138 hstemhm
          30 152 -82 152 hintmask 10100000
          6 callgsubr
          hintmask 01010000
          70 397 rmoveto
          -71 callsubr
          endchar
        </CharString>
        <CharString name="comma">
          -331 -157 282 hstem
          32 147 vstem
          117 -57 rmoveto
          34 41 28 30 47 vvcurveto
          35 -25 29 -41 -50 -31 -34 -41 -29 16 -24 10 -16 vhcurveto
          -57 -107 -6 -11 2 -5 11 -6 rlinecurve
          9 -5 11 -7 -45 callsubr
        </CharString>
        <CharString name="commaaccent">
          -13 callgsubr
          hstem
          191 124 vstem
          264 -226 -102 callgsubr
        </CharString>
        <CharString name="commaaccent.cap">
          -13 callgsubr
          hstem
          191 124 vstem
          264 -226 -102 callgsubr
        </CharString>
        <CharString name="copyright">
          257 -12 34 125 64 269 64 114 35 hstem
          86 43 145 87 406 43 vstem
          443 693 rmoveto
          -209 -148 -151 -203 -203 135 -148 222 218 149 148 209 197 -151 151 -216 hvcurveto
          -1 -671 rmoveto
          -181 -132 128 189 189 122 130 191 187 138 -130 -189 -196 -135 -121 -190 hvcurveto
          15 458 rmoveto
          44 20 -17 -39 4 hvcurveto
          -13 2 3 -30 callsubr
          29 hlineto
          13 3 3 13 hvcurveto
          68 -1 -40 52 -89 hhcurveto
          -131 -53 -94 -107 -105 48 -91 130 89 45 52 68 2 hvcurveto
          13 -3 3 -13 vhcurveto
          -29 -57 callsubr
          -44 -4 -26 -12 -44 hhcurveto
          -70 -20 54 81 81 26 53 70 hvcurveto
          endchar
        </CharString>
        <CharString name="d">
          -37 -12 86 347 85 160 80 hstem
          25 113 210 116 vstem
          -70 callsubr
          endchar
        </CharString>
        <CharString name="dagger">
          -132 679 -20 hstem
          81 392 vstem
          153 -56 rmoveto
          -13 -2 3 -30 callsubr
          33 hlineto
          -104 callsubr
          100 468 -50 callsubr
        </CharString>
        <CharString name="daggerdbl">
          -132 679 -20 hstem
          234 69 vstem
          233 303 rmoveto
          -34 -107 -129 -16 -13 -2 -3 -3 -3 -12 rlinecurve
          -3 -25 -2 -12 2 -3 13 -2 rlinecurve
          123 -15 -5 -162 rlineto
          -13 -1 3 -30 callsubr
          22 hlineto
          -42 callgsubr
          49 162 130 16 13 2 3 3 3 12 rlinecurve
          3 25 2 -47 callsubr
          2 rlinecurve
          -123 16 4 107 33 108 -50 callsubr
        </CharString>
        <CharString name="dcaron">
          0 -12 86 347 85 20 220 -80 80 hstemhm
          25 113 210 116 142 134 hintmask 11011100
          -70 callsubr
          hintmask 00100010
          402 657 -48 callgsubr
        </CharString>
        <CharString name="dcroat">
          -32 -12 87 334 87 62 53 55 80 hstem
          26 113 210 116 vstem
          426 746 rmoveto
          -59 callsubr
          -9 -55 rlineto
          -145 hlineto
          -86 callgsubr
          -3 -23 -99 callgsubr
          144 hlineto
          -22 -118 rlineto
          22 -14 -45 34 -69 hhcurveto
          -190 -69 -167 -152 -129 63 -60 102 65 54 26 55 39 hvcurveto
          -49 16 -32 62 -27 callgsubr
          vhcurveto
          -64 callgsubr
          81 461 rlineto
          45 hlineto
          -86 callsubr
          3 23 rlineto
          -107 callgsubr
          -44 hlineto
          21 120 rlineto
          -107 callgsubr
          -326 -671 rmoveto
          -74 -25 40 76 93 27 125 127 71 31 -52 -1 1 hvcurveto
          -28 -176 rlineto
          -72 -12 -66 -33 -52 hhcurveto
          endchar
        </CharString>
        <CharString name="degree">
          -307 435 43 190 43 hstem
          40 43 190 43 vstem
          178 668 rmoveto
          53 42 -42 -53 -53 -42 -42 -53 -53 -42 42 53 53 42 42 53 hvcurveto
          -233 vmoveto
          76 62 62 76 76 -62 62 -76 -76 -62 -62 -76 -76 62 -62 76 hvcurveto
          endchar
        </CharString>
        <CharString name="dieresis">
          594 122 hstem
          186 -11 callsubr
          vstem
          444 594 -98 callsubr
        </CharString>
        <CharString name="dieresis.cap">
          738 122 hstem
          227 -11 callsubr
          vstem
          485 738 -98 callsubr
        </CharString>
        <CharString name="divide">
          -93 82 138 45 65 58 138 hstemhm
          33 468 -326 152 -98 152 hintmask 10001000
          240 82 rmoveto
          -71 callsubr
          hintmask 00100100
          54 306 rmoveto
          -71 callsubr
          hintmask 01010000
          -260 -108 -51 callsubr
          428 hlineto
          -104 callsubr
          6 35 rlineto
          -107 callgsubr
          -428 hlineto
          -68 callgsubr
          -2 hvcurveto
          endchar
        </CharString>
        <CharString name="dollar">
          -192 -17 74 -72 164 224 157 hstemhm
          51 103 117 100 hintmask 00000000
          hintmask 10111000
          110 -98 rmoveto
          13 4 -70 callgsubr
          19 66 rlineto
          108 114 51 125 89 -69 35 -56 31 hvcurveto
          42 140 15 -3 8 -4 10 -5 rlinecurve
          -12 -54 rlineto
          -12 -3 2 -30 callsubr
          54 hlineto
          -86 callsubr
          17 105 2 12 -3 4 -12 4 rlinecurve
          -25 8 -31 7 -32 2 15 51 rcurveline
          12 3 -39 callsubr
          -10 hlineto
          -13 -4 -80 callgsubr
          -15 -49 rlineto
          -123 1 -94 -58 -110 vvcurveto
          hintmask 01111000
          -75 44 -28 82 -41 vhcurveto
          -47 -161 -20 3 -10 6 -9 8 rlinecurve
          13 57 -41 callgsubr
          -3 hvcurveto
          hintmask 10111000
          -18 -112 -2 -12 3 -4 12 -4 rlinecurve
          25 -8 31 -7 38 -2 -19 -68 rcurveline
          -12 -3 2 -30 callsubr
          114 301 rmoveto
          35 -20 22 -17 -37 vvcurveto
          -55 -57 -16 -42 -1 vhcurveto
          37 272 rmoveto
          -35 16 -20 17 31 vvcurveto
          44 46 21 47 -2 vhcurveto
          endchar
        </CharString>
        <CharString name="dotaccent">
          580 143 hstem
          294 145 vstem
          361 580 -69 callsubr
        </CharString>
        <CharString name="dotaccent.cap">
          730 143 hstem
          318 145 vstem
          385 730 -69 callsubr
        </CharString>
        <CharString name="dotlessi">
          -327 -13 -12 callsubr
          427 81 hstemhm
          53 195 hintmask 00000000
          hintmask 01110000
          -92 callsubr
          hintmask 10110000
          -104 callgsubr
          -4 10 21 4 hvcurveto
          68 381 rlineto
          -107 callgsubr
          endchar
        </CharString>
        <CharString name="dotlessj">
          26 callsubr
          hstem
          -175 413 vstem
          85 495 rmoveto
          -36 callgsubr
          -77 -441 rlineto
          -86 -15 -35 -41 -61 hhcurveto
          -22 -18 4 7 -19 hvcurveto
          -11 5 -4 -2 -5 -12 -20 -48 rcurveline
          -5 -3 callgsubr
          -4 rrcurveto
          -13 33 42 -8 37 hhcurveto
          137 42 89 110 19 hvcurveto
          92 521 rlineto
          -107 callgsubr
          endchar
        </CharString>
        <CharString name="e">
          -6 callsubr
          hstem
          25 116 201 115 vstem
          -87 callsubr
          endchar
        </CharString>
        <CharString name="eacute">
          -6 callsubr
          74 152 hstemhm
          25 116 113 181 -93 115 hintmask 11101010
          -87 callsubr
          -21 178 -69 callgsubr
          hintmask 00010100
          -9 callgsubr
        </CharString>
        <CharString name="ebreve">
          -150 -44 0 101 198 endchar
        </CharString>
        <CharString name="ecaron">
          -150 -64 0 101 207 endchar
        </CharString>
        <CharString name="ecircumflex">
          -150 -61 0 101 195 endchar
        </CharString>
        <CharString name="edieresis">
          -6 callsubr
          88 122 hstemhm
          25 116 14 126 61 115 -99 126 hintmask 11101010
          -87 callsubr
          hintmask 00010101
          135 174 -98 callsubr
        </CharString>
        <CharString name="edotaccent">
          -150 -53 0 101 199 endchar
        </CharString>
        <CharString name="egrave">
          -150 -113 0 101 193 endchar
        </CharString>
        <CharString name="eight">
          -89 -12 77 514 77 hstemhm
          17 109 -20 114 144 115 -84 107 -16 callgsubr
          17 133 rmoveto
          -81 60 -64 137 140 125 61 131 78 -53 51 -67 42 vhcurveto
          hintmask 11010100
          74 36 69 55 86 vvcurveto
          66 -47 62 -125 -123 -101 -66 -113 -62 33 -40 42 -31 vhcurveto
          hintmask 11101000
          -90 -48 -74 -62 -101 vvcurveto
          347 27 rmoveto
          -68 -64 -27 -71 -71 -32 34 56 69 61 39 58 32 vhcurveto
          57 -37 62 -32 -66 vvcurveto
          hintmask 11010100
          31 356 rmoveto
          -57 -54 -35 -52 -27 vhcurveto
          -41 32 -28 29 45 vvcurveto
          60 51 16 49 45 30 -22 -41 vhcurveto
          endchar
        </CharString>
        <CharString name="ellipsis">
          148 -19 138 hstemhm
          30 152 97 152 103 152 hintmask 11000000
          6 callgsubr
          hintmask 10100000
          249 hmoveto
          -71 callsubr
          hintmask 10010000
          255 hmoveto
          -71 callsubr
          endchar
        </CharString>
        <CharString name="emacron">
          -6 callsubr
          106 81 hstemhm
          25 116 17 309 -125 115 hintmask 11101010
          -87 callsubr
          hintmask 00010100
          160 192 -77 callgsubr
        </CharString>
        <CharString name="emdash">
          377 248 77 hstem
          5 985 vstem
          962 248 rmoveto
          -104 callsubr
          8 47 rlineto
          -107 callgsubr
          -943 hlineto
          -68 callgsubr
          -2 hvcurveto
          -8 -47 -99 callgsubr
          endchar
        </CharString>
        <CharString name="endash">
          248 77 hstem
          -5 510 vstem
          477 248 rmoveto
          -104 callsubr
          8 47 rlineto
          -107 callgsubr
          -468 hlineto
          -68 callgsubr
          -2 hvcurveto
          -8 -47 -99 callgsubr
          endchar
        </CharString>
        <CharString name="eng">
          -22 -240 82 179 -21 412 99 -96 80 hstemhm
          407 120 hintmask 00000000
          hintmask 11011000
          -55 callsubr
          hintmask 11101000
          52 299 rlineto
          54 9 58 44 67 hhcurveto
          51 15 -25 -40 -16 -3 -19 -3 -21 hvcurveto
          -59 -338 rlineto
          -69 -12 -30 -42 -62 hhcurveto
          -26 -17 4 8 -19 hvcurveto
          -11 5 -4 -2 -6 -11 -21 -44 rcurveline
          -6 -11 1 -4 12 -5 rrcurveto
          -14 29 40 -8 37 hhcurveto
          137 50 89 86 16 hvcurveto
          70 386 rlineto
          4 24 3 30 15 vvcurveto
          80 -44 41 -82 -64 -59 -24 -59 -50 vhcurveto
          hintmask 11011000
          9 52 rlineto
          -107 callgsubr
          -139 hlineto
          -36 callgsubr
          endchar
        </CharString>
        <CharString name="eogonek">
          -154 -231 66 153 84 134 74 145 86 hstemhm
          25 116 -27 91 134 118 hintmask 00000000
          hintmask 11111010
          407 46 rmoveto
          10 8 1 4 -7 11 -17 31 rcurveline
          -6 11 -4 1 -11 -6 rrcurveto
          -21 -35 -35 -13 -51 hhcurveto
          -78 -33 50 63 8 0 9 1 8 hvcurveto
          -2 20 22 -2 22 hhcurveto
          120 130 41 131 1 hvcurveto
          76 -51 57 -105 -187 -89 -173 -153 -115 54 -79 137 -3 vhcurveto
          hintmask 11110110
          -62 -42 -40 -50 -53 -89 callsubr
          48 59 64 54 22 hvcurveto
          hintmask 11111010
          33 14 28 14 28 20 rrcurveto
          -129 379 rmoveto
          37 24 -17 -35 -68 -88 -25 -63 -17 callgsubr
          endchar
        </CharString>
        <CharString name="equal">
          -93 141 65 114 65 hstemhm
          12 468 -438 468 hintmask 01010000
          43 335 -51 callsubr
          428 hlineto
          -104 callsubr
          6 35 rlineto
          -107 callgsubr
          -428 hlineto
          -68 callgsubr
          -2 hvcurveto
          hintmask 10100000
          -36 -214 -51 callsubr
          428 hlineto
          -104 callsubr
          6 35 rlineto
          -107 callgsubr
          -428 hlineto
          -68 callgsubr
          -2 hvcurveto
          endchar
        </CharString>
        <CharString name="eth">
          -95 -12 82 274 87 241 75 hstem
          17 107 288 100 vstem
          404 576 rmoveto
          5 -24 3 -28 -30 vvcurveto
          -41 -5 -46 -9 -51 vhcurveto
          42 -22 -47 33 -75 hhcurveto
          -148 -89 -110 -153 -111 66 -69 121 257 51 279 198 72 -6 41 -12 37 hvcurveto
          101 43 15 6 3 5 -4 14 rlinecurve
          -2 6 -3 14 -4 1 -15 -6 rlinecurve
          -105 -45 rlineto
          67 -33 -61 27 -78 hhcurveto
          -108 -71 -43 -106 -22 hvcurveto
          -15 -4 4 -4 15 hhcurveto
          48 hlineto
          15 4 4 15 5 hvcurveto
          53 14 30 21 54 hhcurveto
          46 32 -17 -39 22 hvcurveto
          -98 -43 -15 -6 -3 -5 3 -14 rlinecurve
          2 -6 4 -14 4 -1 15 6 rlinecurve
          73 -274 rmoveto
          -78 -11 -27 -111 -118 hhcurveto
          -70 -27 43 60 90 45 81 92 56 48 -44 -41 12 hvcurveto
          endchar
        </CharString>
        <CharString name="exclam">
          -370 -19 127 570 -20 hstem
          18 140 vstem
          122 156 rmoveto
          13 4 -70 callgsubr
          81 337 27 155 rlineto
          -107 callgsubr
          -76 hlineto
          -68 callgsubr
          -2 hvcurveto
          -27 -153 -37 -338 rlineto
          -13 -2 3 -30 callsubr
          -14 -175 6 callsubr
        </CharString>
        <CharString name="exclamdown">
          -370 -184 20 550 127 hstem
          108 140 vstem
          144 338 rmoveto
          -13 -4 -80 callgsubr
          -81 -337 -27 -155 -99 callgsubr
          76 hlineto
          -104 callsubr
          27 153 37 338 rlineto
          13 2 -3 -34 callsubr
          14 175 7 callgsubr
        </CharString>
        <CharString name="f">
          -277 -239 79 574 81 181 83 hstem
          -151 599 vstem
          -47 -160 rmoveto
          -25 -23 8 8 -15 hvcurveto
          -12 5 -4 -2 -5 -11 -17 -43 rcurveline
          -5 -11 1 -4 12 -6 rrcurveto
          -13 26 41 -10 40 hhcurveto
          140 25 85 82 14 hvcurveto
          86 486 rlineto
          120 hlineto
          -99 callsubr
          -120 hlineto
          13 73 rlineto
          -37 callsubr
          46 rcurveline
          5 -63 callgsubr
          -17 -97 rlineto
          -61 hlineto
          -86 callgsubr
          -8 -52 -106 callsubr
          61 hlineto
          -83 -466 rlineto
          30 callsubr
        </CharString>
        <CharString name="ff">
          48 -239 76 579 79 170 84 -73 84 hstemhm
          -151 924 hintmask 00000000
          hintmask 11011000
          -47 -163 rmoveto
          -78 callsubr
          486 rlineto
          120 hlineto
          -99 callsubr
          -120 hlineto
          13 73 rlineto
          -56 callgsubr
          -17 -98 rlineto
          -213 hlineto
          11 62 rlineto
          hintmask 11101000
          -56 callgsubr
          -15 -87 rlineto
          -61 hlineto
          -86 callgsubr
          -8 -52 -106 callsubr
          61 hlineto
          -83 -469 rlineto
          hintmask 11011000
          30 callsubr
        </CharString>
        <CharString name="ffi">
          316 10 callgsubr
          428 79 170 84 -73 84 hstemhm
          -151 1045 hintmask 00000000
          hintmask 10110110
          571 -38 callgsubr
          -213 hlineto
          11 62 rlineto
          hintmask 10111010
          -56 callgsubr
          -15 -87 rlineto
          -61 -67 callsubr
          61 1 -83 -471 rlineto
          -72 -13 -10 -36 -61 hhcurveto
          -78 callsubr
          488 rlineto
          202 hlineto
          -58 -333 rlineto
          -59 -10 20 -36 65 hhcurveto
          42 42 23 20 25 hvcurveto
          hintmask 11010110
          -104 callgsubr
          -5 10 21 4 hvcurveto
          70 380 rlineto
          -107 callgsubr
          endchar
        </CharString>
        <CharString name="ffl">
          326 10 callgsubr
          428 79 171 84 -74 84 hstemhm
          -151 1090 hintmask 00000000
          hintmask 10110110
          831 728 rmoveto
          19 -50 -50 13 -43 hhcurveto
          -157 -40 19 callsubr
          -213 hlineto
          14 63 rlineto
          hintmask 10111010
          72 12 11 -47 callgsubr
          18 -43 callgsubr
          -17 -88 rlineto
          -61 hlineto
          -86 callgsubr
          -8 -50 -106 callsubr
          61 hlineto
          -83 -471 rlineto
          -72 -13 -10 -36 -61 hhcurveto
          -78 callsubr
          488 120 -1 13 -1 3 3 3 12 rlinecurve
          8 51 rlineto
          -107 callgsubr
          -120 hlineto
          14 73 rlineto
          hintmask 10110110
          72 12 38 36 62 hhcurveto
          34 42 -2 -16 41 hvcurveto
          -102 -575 rlineto
          -59 -10 20 -36 65 hhcurveto
          42 42 23 20 25 hvcurveto
          hintmask 11010110
          -68 callsubr
          631 2 11 -3 3 -11 -2 rlinecurve
          endchar
        </CharString>
        <CharString name="fi">
          -7 10 callgsubr
          428 79 181 84 hstemhm
          -151 720 hintmask 00000000
          hintmask 10111100
          246 -38 callgsubr
          -61 -67 callsubr
          61 1 -83 -471 rlineto
          -72 -12 -11 -36 -61 hhcurveto
          -83 callgsubr
          488 rlineto
          201 hlineto
          -57 -333 rlineto
          -59 -10 20 -36 65 hhcurveto
          42 42 23 20 25 hvcurveto
          hintmask 11011100
          -104 callgsubr
          -5 10 21 4 hvcurveto
          69 380 rlineto
          -107 callgsubr
          endchar
        </CharString>
        <CharString name="five">
          -148 -141 83 265 86 122 96 hstem
          -27 91 241 111 vstem
          431 415 rmoveto
          -86 callsubr
          11 66 rlineto
          -107 callgsubr
          -292 hlineto
          -13 -4 -80 callgsubr
          -87 -300 -3 -3 callgsubr
          -6 rlinecurve
          14 -6 12 -5 5 0 11 7 rlinecurve
          23 33 41 14 36 hhcurveto
          60 34 -36 -74 -93 -54 -62 -98 -53 -36 20 56 5 0 5 1 6 hvcurveto
          11 1 -2 3 -12 hhcurveto
          -60 hlineto
          -13 -3 -3 -12 -1 hvcurveto
          -2 -10 0 -9 -8 vvcurveto
          -94 67 -53 111 172 93 111 152 104 -65 67 -91 -41 -35 -8 -19 -36 vhcurveto
          47 149 rlineto
          endchar
        </CharString>
        <CharString name="fl">
          1 10 callgsubr
          426 81 181 84 hstemhm
          -151 765 hintmask 00000000
          hintmask 10111100
          507 728 rmoveto
          20 -47 -54 12 -49 hhcurveto
          -151 -40 19 callsubr
          -61 hlineto
          -86 callgsubr
          -8 -52 -106 callsubr
          61 hlineto
          -83 -469 rlineto
          -72 -13 -10 -36 -61 hhcurveto
          -83 callgsubr
          486 rlineto
          120 hlineto
          -99 callsubr
          -120 hlineto
          13 73 rlineto
          72 12 36 36 62 hhcurveto
          41 44 -11 -16 33 hvcurveto
          -100 -566 rlineto
          -59 -10 20 -36 65 hhcurveto
          42 42 23 20 25 hvcurveto
          hintmask 11011100
          -68 callsubr
          631 2 11 -3 3 -11 -2 rlinecurve
          endchar
        </CharString>
        <CharString name="florin">
          -239 83 345 80 180 82 hstem
          -76 558 vstem
          108 269 rmoveto
          -86 callgsubr
          -7 -49 -106 callsubr
          60 hlineto
          -44 -241 rlineto
          -70 -13 -9 -36 -61 hhcurveto
          -21 -22 7 7 -16 hvcurveto
          -12 5 -4 -1 -6 -12 -20 -45 rcurveline
          -6 -11 1 -4 12 -6 rrcurveto
          -13 26 41 -10 40 hhcurveto
          138 25 83 81 15 hvcurveto
          49 264 rlineto
          120 hlineto
          13 -1 3 3 3 12 7 51 33 callsubr
          72 rlineto
          72 13 10 36 61 hhcurveto
          18 24 -7 -7 16 hvcurveto
          12 -5 4 1 6 12 21 44 rcurveline
          6 -63 callgsubr
          -17 -95 rlineto
          endchar
        </CharString>
        <CharString name="four">
          -99 15 84 412 -20 hstem
          -9 495 vstem
          458 15 rmoveto
          -8 callgsubr
          54 rlineto
          -107 callgsubr
          -100 hlineto
          70 397 rlineto
          -107 callgsubr
          -84 hlineto
          -13 -5 -2 -10 -8 hvcurveto
          -306 -390 -7 -9 -4 -7 -2 -11 rlinecurve
          -8 -52 -99 callgsubr
          247 hlineto
          -23 -133 -99 callgsubr
          73 hlineto
          -104 callsubr
          23 133 rlineto
          -41 369 rmoveto
          -49 -285 rlineto
          -175 hlineto
          endchar
        </CharString>
        <CharString name="foursuperior">
          -261 461 58 230 -20 hstem
          55 319 vstem
          207 403 -51 callsubr
          52 hlineto
          -104 callsubr
          11 58 rlineto
          49 hlineto
          13 3 11 callgsubr
          5 28 rlineto
          12 1 -2 -34 callsubr
          -49 hlineto
          37 215 rlineto
          -107 callgsubr
          -65 hlineto
          -13 -5 -2 -10 -8 hvcurveto
          -172 -207 -7 -9 -4 -7 -2 -11 rlinecurve
          -3 26 callgsubr
          149 hlineto
          35 210 rmoveto
          -26 -152 rlineto
          -101 hlineto
          endchar
        </CharString>
        <CharString name="fraction">
          -423 4 -21 696 -20 hstem
          -150 526 vstem
          372 666 -61 callgsubr
          endchar
        </CharString>
        <CharString name="g">
          29 callsubr
          hstemhm
          25 112 -16 callgsubr
          565 -67 callgsubr
          -131 hlineto
          -86 callgsubr
          hintmask 11011000
          -55 callgsubr
          hintmask 11101000
          23 callsubr
          hintmask 11011000
          21 callgsubr
          hintmask 11101000
          -72 -12 -64 -36 -55 hhcurveto
          endchar
        </CharString>
        <CharString name="gbreve">
          -37 -16 0 103 198 endchar
        </CharString>
        <CharString name="gcircumflex">
          -37 -20 0 103 195 endchar
        </CharString>
        <CharString name="gcommaaccent">
          29 callsubr
          74 219 hstemhm
          25 112 159 124 hintmask 00000000
          hintmask 11100100
          565 -67 callgsubr
          -131 hlineto
          -86 callgsubr
          hintmask 11010100
          -55 callgsubr
          hintmask 11100100
          23 callsubr
          hintmask 11010100
          21 callgsubr
          hintmask 11100100
          -72 -12 -64 -36 -55 hhcurveto
          hintmask 00001010
          111 661 -31 callgsubr
        </CharString>
        <CharString name="gdotaccent">
          -37 -14 0 103 199 endchar
        </CharString>
        <CharString name="germandbls">
          8 -239 76 151 70 624 78 hstemhm
          301 109 67 112 -109 111 hintmask 00000000
          hintmask 11111000
          -51 -163 rmoveto
          -25 -23 8 8 -15 hvcurveto
          -12 5 -4 -2 -5 -11 -17 -40 rcurveline
          -5 -11 1 -4 12 -6 rrcurveto
          -13 26 41 -10 40 hhcurveto
          139 26 85 81 14 hvcurveto
          115 645 rlineto
          72 13 33 38 83 hhcurveto
          66 25 -27 -41 hvcurveto
          -103 -176 -32 -133 vvcurveto
          hintmask 11110100
          -122 179 0 -101 vvcurveto
          -44 -31 -21 -54 -38 -37 11 10 -25 vhcurveto
          -11 4 -4 -2 -4 -11 -13 -39 rcurveline
          -4 -3 callgsubr
          -4 rrcurveto
          -12 30 42 -11 52 hhcurveto
          112 83 60 100 hvcurveto
          135 -181 20 84 vvcurveto
          hintmask 11111000
          81 179 38 127 vvcurveto
          86 -98 41 -97 -172 -61 -95 -82 -15 vhcurveto
          -114 -641 rlineto
          -72 -13 -9 -33 -61 hhcurveto
          endchar
        </CharString>
        <CharString name="grave">
          580 152 hstem
          328 133 vstem
          438 717 -24 callgsubr
        </CharString>
        <CharString name="grave.cap">
          732 126 hstem
          363 124 vstem
          460 843 -82 callgsubr
        </CharString>
        <CharString name="greater">
          -93 45 435 hstem
          16 465 vstem
          386 270 rmoveto
          -343 -143 -11 -4 -5 -7 -2 -10 rlinecurve
          -9 -50 -2 -10 4 -3 11 4 rlinecurve
          427 179 11 4 5 7 2 10 rlinecurve
          6 38 2 10 -3 7 -9 4 rlinecurve
          -366 172 -9 4 -4 -3 -2 -10 rlinecurve
          -9 -48 -1 -10 2 -7 10 -4 rlinecurve
          endchar
        </CharString>
        <CharString name="greaterequal">
          -93 0 65 hstem
          -5 479 vstem
          10 101 rmoveto
          -2 -11 3 -2 11 4 427 172 rcurveline
          12 5 4 4 2 12 6 38 rcurveline
          3 12 -3 4 -11 6 -363 177 rcurveline
          -11 5 -4 -1 -2 -12 -10 -44 rcurveline
          -3 -12 3 -4 11 -6 294 -138 rcurveline
          -343 -139 -12 -5 -4 -4 -2 -12 rlinecurve
          409 -100 rmoveto
          -107 callgsubr
          -392 hlineto
          -86 callgsubr
          -5 -35 -99 callgsubr
          392 hlineto
          -86 callsubr
          endchar
        </CharString>
        <CharString name="guillemotleft">
          -130 84 408 hstemhm
          78 230 -64 230 hintmask 11000000
          233 492 rmoveto
          -13 -5 -2 -11 -7 hvcurveto
          -124 -179 -7 -11 -1 -5 4 -12 rlinecurve
          56 -173 rlineto
          -12 4 13 callsubr
          66 hlineto
          12 3 3 12 -4 hvcurveto
          -59 189 129 191 rlineto
          9 7 -2 4 -12 hhcurveto
          hintmask 10100000
          102 hmoveto
          -13 -5 -2 -11 -7 hvcurveto
          -124 -179 -7 -11 -1 -5 4 -12 rlinecurve
          56 -173 rlineto
          -12 4 13 callsubr
          66 hlineto
          12 3 3 12 -4 hvcurveto
          -59 189 129 191 rlineto
          9 7 -2 4 -12 hhcurveto
          endchar
        </CharString>
        <CharString name="guillemotright">
          -130 84 408 hstemhm
          35 230 -64 230 hintmask 11000000
          110 84 rmoveto
          -60 callgsubr
          hintmask 10100000
          230 hmoveto
          -60 callgsubr
          endchar
        </CharString>
        <CharString name="guilsinglleft">
          -296 84 408 hstem
          78 230 vstem
          233 492 rmoveto
          -13 -5 -2 -11 -7 hvcurveto
          -124 -179 -7 -11 -1 -5 4 -12 rlinecurve
          56 -173 rlineto
          -12 4 13 callsubr
          66 hlineto
          12 3 3 12 -4 hvcurveto
          -59 189 129 191 rlineto
          9 7 -2 4 -12 hhcurveto
          endchar
        </CharString>
        <CharString name="guilsinglright">
          -296 84 408 hstem
          35 230 vstem
          110 84 rmoveto
          -60 callgsubr
          endchar
        </CharString>
        <CharString name="h">
          25 callgsubr
          hstemhm
          355 118 -65 119 hintmask 00000000
          hintmask 00111100
          -55 callsubr
          51 294 rlineto
          hintmask 00111010
          -15 callsubr
          hintmask 01011100
          -42 -203 -2 callsubr
          hintmask 10011100
          -104 callgsubr
          -3 10 21 4 hvcurveto
          hintmask 00111010
          45 213 -18 callgsubr
          54 308 rlineto
          -107 callgsubr
          -139 hlineto
          -59 callsubr
          endchar
        </CharString>
        <CharString name="hbar">
          -24 -12 -12 callsubr
          33 -21 397 99 62 53 55 80 hstemhm
          355 118 -67 119 hintmask 00000000
          hintmask 00111110
          148 611 rmoveto
          -43 hlineto
          -86 callgsubr
          -3 -23 -99 callgsubr
          43 hlineto
          -95 -543 -48 callsubr
          49 284 rlineto
          hintmask 00111101
          -15 callsubr
          hintmask 01011110
          -40 -193 -2 callsubr
          hintmask 10011110
          -104 callgsubr
          -3 10 21 4 hvcurveto
          hintmask 00111101
          43 203 -18 callgsubr
          26 145 rlineto
          149 hlineto
          -86 callsubr
          3 23 rlineto
          -107 callgsubr
          -148 hlineto
          20 120 rlineto
          -107 callgsubr
          -139 hlineto
          -59 callsubr
          endchar
        </CharString>
        <CharString name="hcircumflex">
          25 callgsubr
          26 5 callsubr
          63 294 -2 118 -65 119 hintmask 0000000000000000
          hintmask 0011100100000000
          -55 callsubr
          51 294 rlineto
          hintmask 0011100010000000
          -15 callsubr
          hintmask 0101100100000000
          -42 -203 -2 callsubr
          hintmask 1001100100000000
          -104 callgsubr
          -3 10 21 4 hvcurveto
          hintmask 0011100010000000
          45 213 -18 callgsubr
          54 308 rlineto
          -107 callgsubr
          -139 hlineto
          -59 callsubr
          -23 106 -103 callgsubr
          hintmask 0000011000000000
          -49 callsubr
        </CharString>
        <CharString name="hungarumlaut">
          580 152 hstem
          192 307 vstem
          333 594 -19 callgsubr
          -204 -124 -19 callgsubr
          endchar
        </CharString>
        <CharString name="hungarumlaut.cap">
          732 126 hstem
          252 313 vstem
          398 746 -38 callsubr
          -57 callgsubr
        </CharString>
        <CharString name="hyphen">
          -341 218 97 hstem
          29 235 vstem
          232 218 -25 callgsubr
        </CharString>
        <CharString name="hyphen.case">
          -341 258 97 hstem
          30 235 vstem
          233 258 -25 callgsubr
        </CharString>
        <CharString name="i">
          -327 -13 -12 callsubr
          427 81 85 143 hstemhm
          116 145 hintmask 00000000
          hintmask 01111000
          -92 callsubr
          hintmask 10111000
          -104 callgsubr
          -4 10 21 4 hvcurveto
          68 381 rlineto
          -107 callgsubr
          -54 callsubr
          endchar
        </CharString>
        <CharString name="iacute">
          -328 -13 -12 callsubr
          427 81 85 152 hstemhm
          53 195 -100 181 hintmask 00000000
          hintmask 01101000
          -92 callsubr
          hintmask 10101000
          -104 callgsubr
          -4 10 21 4 hvcurveto
          68 381 rlineto
          -107 callgsubr
          -73 103 -69 callgsubr
          hintmask 00010100
          -9 callgsubr
        </CharString>
        <CharString name="ibreve">
          -328 -13 -12 callsubr
          427 81 84 80 hstemhm
          42 333 -322 195 hintmask 00000000
          hintmask 01100100
          -92 callsubr
          hintmask 10100100
          -104 callgsubr
          -4 10 21 4 hvcurveto
          68 381 rlineto
          -107 callgsubr
          hintmask 00011000
          -22 164 -44 callsubr
        </CharString>
        <CharString name="icircumflex">
          -328 -13 -12 callsubr
          427 81 85 161 hstemhm
          30 297 -274 195 hintmask 00000000
          hintmask 01100100
          -92 callsubr
          hintmask 10100100
          -104 callgsubr
          -4 10 21 4 hvcurveto
          68 381 rlineto
          -107 callgsubr
          -121 85 rmoveto
          10 8 4 9 8 hvcurveto
          68 84 43 -85 rlineto
          -8 4 7 -42 callsubr
          54 hlineto
          10 4 4 9 -4 hvcurveto
          -61 18 callgsubr
          9 -4 -6 -21 callgsubr
          -76 hlineto
          -7 callsubr
          -9 -8 hvcurveto
          -107 -135 rlineto
          hintmask 00011000
          -9 -8 2 -15 callgsubr
        </CharString>
        <CharString name="idieresis">
          -328 -13 -12 callsubr
          427 81 99 122 hstemhm
          25 126 -98 195 -20 126 hintmask 00000000
          hintmask 01100100
          -92 callsubr
          hintmask 10100100
          -104 callgsubr
          -4 10 21 4 hvcurveto
          68 381 rlineto
          -107 callgsubr
          hintmask 00011010
          59 99 -98 callsubr
        </CharString>
        <CharString name="idotaccent">
          -327 -13 -12 callsubr
          427 81 85 143 hstemhm
          116 145 hintmask 00000000
          hintmask 01111000
          -92 callsubr
          hintmask 10111000
          -104 callgsubr
          -4 10 21 4 hvcurveto
          68 381 rlineto
          -107 callgsubr
          -54 callsubr
          endchar
        </CharString>
        <CharString name="igrave">
          -328 -13 -12 callsubr
          427 81 85 152 hstemhm
          53 195 -140 133 hintmask 00000000
          hintmask 01101000
          -92 callsubr
          hintmask 10101000
          -104 callgsubr
          -4 10 21 4 hvcurveto
          68 381 rlineto
          -107 callgsubr
          hintmask 00010100
          -6 222 -24 callgsubr
        </CharString>
        <CharString name="ij">
          -47 -240 87 140 -12 callsubr
          427 81 -80 80 85 143 hstemhm
          116 145 142 145 hintmask 00000000
          hintmask 00110110
          -92 callsubr
          hintmask 01010110
          -104 callgsubr
          -4 10 21 4 hvcurveto
          68 381 rlineto
          -107 callgsubr
          -54 callsubr
          hintmask 10001101
          189 -85 rmoveto
          -36 callgsubr
          -77 -441 rlineto
          -86 -15 -35 -41 -61 hhcurveto
          -22 -18 4 7 -19 hvcurveto
          -11 5 -4 -2 -5 -12 -20 -48 rcurveline
          -5 -3 callgsubr
          -4 rrcurveto
          -13 33 42 -8 37 hhcurveto
          137 42 89 110 19 hvcurveto
          92 521 rlineto
          -107 callgsubr
          -54 callsubr
          endchar
        </CharString>
        <CharString name="imacron">
          -328 -13 -12 callsubr
          427 81 117 81 hstemhm
          31 309 -287 195 hintmask 00000000
          hintmask 01100100
          -92 callsubr
          hintmask 10100100
          -104 callgsubr
          -4 10 21 4 hvcurveto
          68 381 rlineto
          -107 callgsubr
          hintmask 00011000
          87 117 -77 callgsubr
        </CharString>
        <CharString name="infinity">
          116 264 162 hstem
          35 667 vstem
          702 353 rmoveto
          81 -55 74 -99 -78 -46 -39 -61 -51 vhcurveto
          62 -46 -46 37 -78 hhcurveto
          -99 -69 -72 -93 -97 69 -61 96 69 55 40 52 44 hvcurveto
          32 -41 49 -34 56 -11 19 -3 19 -1 19 2 rrcurveto
          76 7 64 59 99 vvcurveto
          -88 -6 rmoveto
          -42 -24 -41 -47 -43 -42 33 45 -35 vhcurveto
          47 33 37 37 44 hhcurveto
          53 24 -32 -47 hvcurveto
          -295 -7 rmoveto
          -56 -41 -35 -22 -37 hhcurveto
          -49 -31 35 46 45 26 38 52 43 31 -27 -59 41 hvcurveto
          endchar
        </CharString>
        <CharString name="integral">
          -233 -216 83 750 83 -17 -20 hstemhm
          125 104 -70 104 hintmask 00000000
          hintmask 10101000
          359 662 rmoveto
          2 9 1 8 -12 4 rrcurveto
          hintmask 11010000
          6 -18 -31 11 -47 hhcurveto
          -79 -50 -43 -84 -30 2 -24 1 -26 hvcurveto
          hintmask 10101000
          29 -519 rlineto
          1 -20 1 -14 -19 vvcurveto
          -40 -19 -14 -33 -21 -15 4 5 -15 vhcurveto
          -12 4 -3 -3 -2 -8 -10 -47 rcurveline
          -2 -9 -1 -8 12 -4 rrcurveto
          -6 18 31 -11 47 hhcurveto
          79 50 43 84 29 -2 22 -1 25 hvcurveto
          hintmask 11010000
          -29 533 rlineto
          -1 12 -1 10 21 vvcurveto
          40 19 14 33 21 15 -4 -5 15 vhcurveto
          hintmask 10101000
          12 -4 3 3 2 8 rrcurveto
          endchar
        </CharString>
        <CharString name="iogonek">
          -327 -231 66 178 -21 422 81 85 143 hstemhm
          -12 91 -24 114 -53 145 hintmask 00000000
          hintmask 11110100
          85 495 rmoveto
          -68 callgsubr
          -2 hvcurveto
          -10 -58 callsubr
          -57 -332 -8 -47 11 -32 37 -11 rlinecurve
          hintmask 11111010
          -65 -43 -42 -52 -54 -89 callsubr
          47 57 55 49 29 hvcurveto
          hintmask 11110100
          20 12 19 11 15 12 -104 callgsubr
          -4 10 21 4 hvcurveto
          68 381 rlineto
          -107 callgsubr
          hintmask 11111010
          -54 callsubr
          endchar
        </CharString>
        <CharString name="itilde">
          -328 -13 -12 callsubr
          427 81 103 114 hstemhm
          11 355 -313 195 hintmask 00000000
          hintmask 01100100
          -92 callsubr
          hintmask 10100100
          -104 callgsubr
          -4 10 21 4 hvcurveto
          68 381 rlineto
          -107 callgsubr
          -122 217 -77 callsubr
          hhcurveto
          hintmask 00011000
          -29 callgsubr
        </CharString>
        <CharString name="j">
          26 callsubr
          85 143 hstem
          116 145 vstem
          85 495 rmoveto
          -36 callgsubr
          -77 -441 rlineto
          -86 -15 -35 -41 -61 hhcurveto
          -22 -18 4 7 -19 hvcurveto
          -11 5 -4 -2 -5 -12 -20 -48 rcurveline
          -5 -3 callgsubr
          -4 rrcurveto
          -13 33 42 -8 37 hhcurveto
          137 42 89 110 19 hvcurveto
          92 521 rlineto
          -107 callgsubr
          -54 callsubr
          endchar
        </CharString>
        <CharString name="jcircumflex">
          26 callsubr
          85 161 hstemhm
          -175 413 -212 297 hintmask 11010000
          85 495 rmoveto
          -36 callgsubr
          -77 -441 rlineto
          -86 -15 -35 -41 -61 hhcurveto
          -22 -18 4 7 -19 hvcurveto
          -11 5 -4 -2 -5 -12 -20 -48 rcurveline
          -5 -3 callgsubr
          -4 rrcurveto
          -13 33 42 -8 37 hhcurveto
          137 42 89 110 19 hvcurveto
          92 521 rlineto
          -107 callgsubr
          -125 85 rmoveto
          10 8 4 9 8 hvcurveto
          68 84 43 -85 rlineto
          -8 4 7 -42 callsubr
          54 hlineto
          10 4 4 9 -4 hvcurveto
          -61 18 callgsubr
          9 -4 -6 -21 callgsubr
          -76 hlineto
          -7 callsubr
          -9 -8 hvcurveto
          -107 -135 rlineto
          hintmask 00101000
          -9 -8 2 -15 callgsubr
        </CharString>
        <CharString name="k">
          -72 -12 14 callgsubr
          hintmask 00000000
          hintmask 00111110
          -40 callsubr
          hintmask 01011110
          16 -108 -1 callsubr
          hintmask 10011110
          10 -12 callgsubr
          -5 11 -7 15 rcurveline
          -5 12 -74 callsubr
          -7 -14 -11 -2 -2 callgsubr
          -6 10 26 -3 hvcurveto
          -12 100 -11 84 -26 28 -57 7 rlinecurve
          81 15 63 64 24 86 rrcurveto
          12 3 -2 3 -12 hhcurveto
          -77 hlineto
          -13 -4 -80 callgsubr
          -96 -29 -53 -52 -77 hhcurveto
          -25 hlineto
          69 399 rlineto
          -107 callgsubr
          endchar
        </CharString>
        <CharString name="kcommaaccent">
          -72 -13 callgsubr
          58 14 callgsubr
          -358 124 hintmask 0000000000000000
          hintmask 0001111100000000
          -40 callsubr
          hintmask 0010111100000000
          16 -108 -1 callsubr
          hintmask 0100111100000000
          10 -12 callgsubr
          -5 11 -7 15 rcurveline
          -5 12 -74 callsubr
          -7 -14 -11 -2 -2 callgsubr
          -6 10 26 -3 hvcurveto
          -12 100 -11 84 -26 28 -57 7 rlinecurve
          81 15 63 64 24 86 rrcurveto
          12 3 -2 3 -12 hhcurveto
          -77 hlineto
          -13 -4 -80 callgsubr
          -96 -29 -53 -52 -77 hhcurveto
          -25 hlineto
          69 399 rlineto
          -107 callgsubr
          hintmask 1000000010000000
          -22 -972 -102 callgsubr
        </CharString>
        <CharString name="kgreenlandic">
          -76 -12 72 -51 -21 33 -21 226 77 111 81 hstemhm
          38 488 hintmask 00000000
          hintmask 00111100
          80 495 rmoveto
          -68 callgsubr
          -2 hvcurveto
          -9 -52 -106 callsubr
          44 hlineto
          -70 -399 -48 callsubr
          38 211 rlineto
          43 hlineto
          69 9 -19 -55 8 hvcurveto
          hintmask 01011100
          12 -79 -1 callsubr
          hintmask 10011100
          10 -12 callgsubr
          -5 11 -7 15 rcurveline
          -5 12 -74 callsubr
          -7 -14 -11 -2 -2 callgsubr
          -6 10 26 -3 hvcurveto
          -8 71 -11 84 -35 28 -57 7 rlinecurve
          82 15 60 76 31 103 rrcurveto
          12 3 -2 3 -12 hhcurveto
          -77 hlineto
          -13 -4 -80 callgsubr
          -114 -31 -55 -63 -78 hhcurveto
          -25 hlineto
          30 23 callgsubr
          endchar
        </CharString>
        <CharString name="l">
          -332 35 callsubr
          hstemhm
          52 229 hintmask 00000000
          hintmask 01110000
          128 -72 callsubr
          hintmask 10110000
          -68 callsubr
          632 rlineto
          -107 callgsubr
          endchar
        </CharString>
        <CharString name="lacute">
          -332 35 callsubr
          34 -7 callgsubr
          52 229 -116 179 hintmask 00000000
          hintmask 01101000
          128 -72 callsubr
          hintmask 10101000
          -68 callsubr
          632 rlineto
          -107 callgsubr
          -99 48 -96 callgsubr
          hintmask 00010100
          -61 callsubr
        </CharString>
        <CharString name="lcaron">
          -301 -13 -12 callsubr
          539 220 -80 80 hstemhm
          52 229 24 134 hintmask 00000000
          hintmask 01011000
          128 -72 callsubr
          hintmask 10011000
          -68 callsubr
          632 rlineto
          -107 callgsubr
          hintmask 00100100
          71 -15 -48 callgsubr
        </CharString>
        <CharString name="lcommaaccent">
          -332 -13 callgsubr
          57 -12 callsubr
          679 80 hstemhm
          39 124 -111 229 hintmask 00000000
          hintmask 00110100
          128 -72 callsubr
          hintmask 01010100
          -68 callsubr
          632 rlineto
          -107 callgsubr
          hintmask 10001000
          -155 -972 -102 callgsubr
        </CharString>
        <CharString name="ldot">
          -215 -13 -12 callsubr
          290 143 246 80 hstemhm
          53 229 6 145 hintmask 00000000
          hintmask 01011000
          129 -72 callsubr
          hintmask 10011000
          -68 callsubr
          632 rlineto
          -107 callgsubr
          hintmask 00100100
          87 -469 -69 callsubr
        </CharString>
        <CharString name="less">
          -93 45 435 hstem
          55 465 vstem
          519 469 -46 callsubr
          endchar
        </CharString>
        <CharString name="lessequal">
          -93 0 65 hstem
          5 514 vstem
          518 520 -46 callsubr
          -504 -453 -51 callsubr
          392 hlineto
          -86 callsubr
          5 35 rlineto
          -107 callgsubr
          -392 24 callsubr
        </CharString>
        <CharString name="logicalnot">
          -93 285 65 hstem
          27 467 vstem
          448 167 rmoveto
          -104 callsubr
          26 153 rlineto
          -107 callgsubr
          -428 hlineto
          -86 callgsubr
          -5 -35 -99 callgsubr
          381 hlineto
          -18 -103 -99 callgsubr
          endchar
        </CharString>
        <CharString name="longs">
          -277 -239 83 830 86 hstem
          -151 599 vstem
          -46 -156 rmoveto
          -25 -23 8 8 -15 hvcurveto
          -12 5 -4 -2 -5 -11 -18 -47 rcurveline
          -5 -11 1 -4 12 -6 rrcurveto
          -13 26 41 -10 40 hhcurveto
          140 25 85 82 14 hvcurveto
          113 638 rlineto
          72 13 10 -47 callgsubr
          19 49 rcurveline
          5 -63 callgsubr
          -113 -641 rlineto
          30 callsubr
        </CharString>
        <CharString name="lozenge">
          -27 0 86 -65 -21 593 86 0 -20 hstemhm
          63 475 hintmask 00000000
          hintmask 01011000
          234 14 rmoveto
          -10 4 6 -42 callsubr
          95 hlineto
          10 6 4 10 4 hvcurveto
          164 312 5 10 3 6 -5 10 rlinecurve
          -162 313 rlineto
          10 -4 -6 -21 callgsubr
          -95 hlineto
          -10 -6 -4 -10 -4 hvcurveto
          -171 -314 -5 -9 -2 -6 5 -9 rlinecurve
          hintmask 10101000
          237 266 rmoveto
          135 -254 -133 -253 -135 253 rlineto
          endchar
        </CharString>
        <CharString name="lslash">
          -291 35 callsubr
          hstemhm
          12 317 hintmask 00000000
          hintmask 01110000
          219 374 rmoveto
          87 34 12 5 3 4 3 12 rlinecurve
          4 31 2 11 -3 3 -11 -5 rlinecurve
          -86 -33 53 295 rlineto
          -107 callgsubr
          -139 hlineto
          -59 callsubr
          -47 -268 -75 -28 -12 -5 -4 -4 -2 -12 rlinecurve
          -6 -35 -2 -11 3 -3 11 5 rlinecurve
          76 28 -44 -251 rlineto
          -59 -10 20 -36 65 hhcurveto
          42 42 23 20 25 hvcurveto
          hintmask 10110000
          -104 callgsubr
          -5 10 21 4 hvcurveto
          endchar
        </CharString>
        <CharString name="m">
          246 -13 -12 callsubr
          34 -21 410 96 -91 80 hstemhm
          625 118 -66 119 hintmask 00000000
          hintmask 00110010
          796 382 rmoveto
          79 -44 45 -84 -59 -58 -25 -63 -50 vhcurveto
          50 -11 -37 38 -72 hhcurveto
          -55 -63 -20 -67 -50 hvcurveto
          hintmask 00101100
          9 61 rlineto
          12 2 -3 -34 callsubr
          -125 hlineto
          -13 -3 -5 callgsubr
          -1 -12 2 -3 13 1 rlinecurve
          43 hlineto
          -70 -400 -99 callgsubr
          78 hlineto
          -104 callsubr
          52 291 rlineto
          hintmask 00110010
          49 9 49 55 63 hhcurveto
          47 14 -24 -37 -17 -3 -20 -4 -23 hvcurveto
          -48 -274 -99 callgsubr
          80 hlineto
          -104 callsubr
          53 305 rlineto
          45 8 51 45 59 hhcurveto
          47 15 -24 -37 -17 -3 -21 -5 -27 hvcurveto
          hintmask 01001100
          -41 -202 -23 callgsubr
          hintmask 10001100
          -104 callgsubr
          -3 10 21 4 hvcurveto
          hintmask 00101010
          44 213 rlineto
          hintmask 00110010
          6 30 3 24 16 vvcurveto
          endchar
        </CharString>
        <CharString name="macron">
          622 81 hstem
          212 308 vstem
          492 622 -81 callgsubr
        </CharString>
        <CharString name="macron.cap">
          760 81 hstem
          241 308 vstem
          521 760 -81 callgsubr
        </CharString>
        <CharString name="minus">
          -93 265 65 hstem
          30 468 vstem
          31 280 -51 callsubr
          428 hlineto
          -104 callsubr
          6 35 rlineto
          -107 callgsubr
          -428 hlineto
          -68 callgsubr
          -2 hvcurveto
          endchar
        </CharString>
        <CharString name="mu">
          -24 -7 82 -75 79 416 -20 hstemhm
          82 112 198 112 hintmask 00000000
          hintmask 01111000
          504 -64 callsubr
        </CharString>
        <CharString name="multiply">
          -93 103 379 hstem
          63 416 vstem
          71 171 rmoveto
          -10 -8 0 -4 8 -10 21 -27 rcurveline
          8 -10 4 0 10 8 148 125 rcurveline
          110 -134 8 -10 4 0 10 8 rlinecurve
          31 27 10 8 0 4 -8 10 rlinecurve
          -111 134 157 131 10 8 0 4 -8 10 rlinecurve
          -22 29 -8 10 -4 0 -10 -8 rlinecurve
          -156 -133 -98 119 -8 10 -4 0 -10 -8 rlinecurve
          -31 -27 -10 -8 0 -4 8 -10 rlinecurve
          99 -119 rlineto
          endchar
        </CharString>
        <CharString name="n">
          27 callgsubr
          hstemhm
          355 118 -65 119 hintmask 00000000
          hintmask 00101100
          -55 callsubr
          hintmask 00110010
          -28 callgsubr
          hintmask 01001100
          22 callgsubr
          hintmask 10001100
          -104 callgsubr
          -3 10 21 4 hvcurveto
          hintmask 00110010
          -29 callsubr
          hintmask 00101100
          9 58 rlineto
          -107 callgsubr
          -126 hlineto
          -36 callgsubr
          endchar
        </CharString>
        <CharString name="nacute">
          -24 39 0 110 194 endchar
        </CharString>
        <CharString name="napostrophe">
          27 callgsubr
          284 -20 hstemhm
          107 124 124 118 -65 119 hintmask 0000000000000000
          hintmask 0010100100000000
          -55 callsubr
          hintmask 0011000010000000
          -28 callgsubr
          hintmask 0100100100000000
          22 callgsubr
          hintmask 1000100100000000
          -104 callgsubr
          -3 10 21 4 hvcurveto
          hintmask 0011000010000000
          -29 callsubr
          hintmask 0010100100000000
          9 58 rlineto
          -107 callgsubr
          -126 hlineto
          -36 callgsubr
          hintmask 0000011000000000
          67 208 -32 callsubr
        </CharString>
        <CharString name="ncaron">
          -24 -6 0 110 207 endchar
        </CharString>
        <CharString name="ncommaaccent">
          -24 -13 callgsubr
          57 37 callgsubr
          hstemhm
          182 124 49 118 -65 119 hintmask 0000000000000000
          hintmask 0001010100000000
          -55 callsubr
          hintmask 0001100010000000
          -28 callgsubr
          hintmask 0010010100000000
          22 callgsubr
          hintmask 0100010100000000
          -104 callgsubr
          -3 10 21 4 hvcurveto
          hintmask 0001100010000000
          -29 callsubr
          hintmask 0001010100000000
          9 58 rlineto
          -107 callgsubr
          -126 hlineto
          -36 callgsubr
          hintmask 1000001000000000
          141 -641 -102 callgsubr
        </CharString>
        <CharString name="nine">
          -77 -142 80 150 84 278 81 hstemhm
          9 91 -65 108 247 105 hintmask 00000000
          hintmask 11110100
          9 -11 rmoveto
          -93 67 -38 92 240 87 228 210 145 -65 90 -129 vhcurveto
          hintmask 11101100
          -161 -105 -107 -165 -91 58 -80 110 76 60 31 49 38 hvcurveto
          hintmask 11110100
          -165 -35 -78 -65 -89 hhcurveto
          -55 -20 24 43 hvcurveto
          4 0 4 3 vvcurveto
          8 -1 2 -8 vhcurveto
          -64 hlineto
          -12 -4 -3 -13 -1 hvcurveto
          -1 -7 0 -7 -7 vvcurveto
          hintmask 11101100
          234 183 rmoveto
          -71 -29 46 61 98 46 73 95 79 27 -54 -61 -92 -42 -71 -105 hvcurveto
          endchar
        </CharString>
        <CharString name="notequal">
          -93 141 65 114 65 hstem
          11 499 vstem
          44 335 -51 callsubr
          203 hlineto
          -69 -114 rlineto
          -154 hlineto
          -68 callgsubr
          -2 hvcurveto
          -6 -35 -99 callgsubr
          126 hlineto
          -49 -82 rlineto
          -9 -6 2 -4 12 hhcurveto
          23 hlineto
          13 4 2 11 7 hvcurveto
          49 82 rlineto
          247 hlineto
          -104 callsubr
          6 35 rlineto
          -107 callgsubr
          -219 hlineto
          69 114 rlineto
          170 hlineto
          -86 callsubr
          5 35 rlineto
          -107 callgsubr
          -141 hlineto
          46 75 rlineto
          9 6 -2 4 -12 hhcurveto
          -23 hlineto
          -13 -5 -2 -11 -6 hvcurveto
          -46 -75 rlineto
          -232 24 callsubr
        </CharString>
        <CharString name="ntilde">
          -24 -10 0 110 196 endchar
        </CharString>
        <CharString name="numbersign">
          -60 4 -21 188 36 123 36 hstem
          22 513 vstem
          191 330 rmoveto
          -45 -123 rlineto
          -104 hlineto
          -86 callgsubr
          -6 vlineto
          -105 callsubr
          98 hlineto
          -63 -173 rlineto
          -12 -4 -13 callsubr
          5 hlineto
          -42 callgsubr
          63 173 rlineto
          133 hlineto
          -61 -173 rlineto
          -12 -4 -13 callsubr
          5 hlineto
          -42 callgsubr
          61 173 rlineto
          123 hlineto
          -86 callsubr
          6 vlineto
          -107 callgsubr
          -116 hlineto
          43 123 rlineto
          118 hlineto
          -86 callsubr
          6 vlineto
          -107 callgsubr
          -111 hlineto
          53 150 rlineto
          12 4 -39 callsubr
          -5 hlineto
          -68 callgsubr
          -4 hvcurveto
          -53 -150 rlineto
          -132 hlineto
          55 150 rlineto
          12 4 -39 callsubr
          -5 hlineto
          -68 callgsubr
          -4 hvcurveto
          -55 -150 rlineto
          -111 hlineto
          -86 callgsubr
          -6 vlineto
          -105 callsubr
          273 hmoveto
          -43 -123 rlineto
          -134 hlineto
          45 123 rlineto
          endchar
        </CharString>
        <CharString name="o">
          -83 -12 518 hstem
          25 481 vstem
          -65 callsubr
          endchar
        </CharString>
        <CharString name="oacute">
          -83 -12 518 74 152 hstemhm
          25 481 -233 181 hintmask 10100000
          -65 callsubr
          -112 292 -69 callgsubr
          hintmask 01010000
          -9 callgsubr
        </CharString>
        <CharString name="obreve">
          -83 -14 0 111 198 endchar
        </CharString>
        <CharString name="ocircumflex">
          -83 -49 0 111 195 endchar
        </CharString>
        <CharString name="odieresis">
          -83 -10 0 111 200 endchar
        </CharString>
        <CharString name="oe">
          208 -13 83 -82 84 134 74 144 87 hstemhm
          25 116 247 113 198 118 hintmask 00000000
          hintmask 01111110
          767 46 rmoveto
          10 8 1 4 -7 11 -17 31 rcurveline
          -6 11 -4 1 -11 -6 rrcurveto
          -21 -35 -35 -13 -51 hhcurveto
          -78 -33 50 63 8 0 9 1 8 hvcurveto
          -2 20 22 -2 22 hhcurveto
          120 130 41 131 1 hvcurveto
          76 -51 57 -105 -79 -62 -32 -55 -47 vhcurveto
          70 -40 -74 17 -52 hhcurveto
          -184 -98 -144 -180 hvcurveto
          hintmask 10111010
          -131 71 -69 118 84 68 31 55 48 vhcurveto
          hintmask 01111010
          -50 27 58 -35 84 hhcurveto
          hintmask 01111110
          66 67 21 37 51 hvcurveto
          -379 265 rmoveto
          hintmask 10111110
          -84 -33 -157 -124 -68 -22 52 65 88 24 149 125 vhcurveto
          hintmask 01111110
          64 34 -33 -80 hvcurveto
          250 114 rmoveto
          37 24 -17 -35 -68 -88 -25 -63 -17 callgsubr
          endchar
        </CharString>
        <CharString name="ogonek">
          -231 66 186 -21 hstem
          114 91 vstem
          248 8 rmoveto
          -80 -46 -54 -58 -61 -89 callsubr
          48 57 60 51 28 hvcurveto
          4 vlineto
          endchar
        </CharString>
        <CharString name="ogonek.cap">
          -231 66 186 -21 hstem
          114 91 vstem
          248 8 rmoveto
          -80 -46 -54 -58 -61 -89 callsubr
          48 57 60 51 28 hvcurveto
          4 vlineto
          endchar
        </CharString>
        <CharString name="ograve">
          -83 -79 0 111 193 endchar
        </CharString>
        <CharString name="ohungarumlaut">
          -83 35 0 111 205 endchar
        </CharString>
        <CharString name="omacron">
          -83 -12 518 106 81 hstemhm
          25 481 -318 309 hintmask 10100000
          506 308 rmoveto
          -190 -106 -130 -186 -118 -71 68 131 180 98 139 184 75 124 -29 -169 vhcurveto
          -118 -2 rmoveto
          80 -34 33 -64 -125 -24 -144 -88 -65 22 -51 68 124 33 151 84 vhcurveto
          hintmask 01010000
          80 306 -77 callgsubr
        </CharString>
        <CharString name="one">
          -284 0 79 350 81 hstem
          -17 298 vstem
          81 511 rmoveto
          -68 callgsubr
          -2 hvcurveto
          -9 -54 -106 callsubr
          79 3 -61 -352 rlineto
          -73 hlineto
          -13 1 -3 -3 -3 -12 -8 -96 callsubr
          255 hlineto
          -104 callsubr
          9 50 2 -47 callsubr
          -1 rlinecurve
          -72 hlineto
          73 417 rlineto
          -107 callgsubr
          endchar
        </CharString>
        <CharString name="onehalf">
          277 0 65 -61 -21 298 67 -42 65 203 68 37 -20 hstemhm
          78 218 -126 526 13 88 hintmask 0010101000000000
          151 642 rmoveto
          -68 callgsubr
          -2 hvcurveto
          -6 -38 -99 callgsubr
          51 2 -40 -228 rlineto
          -46 hlineto
          -13 1 -3 -3 -3 -12 -6 -38 -94 callsubr
          178 hlineto
          -86 callsubr
          6 38 2 -47 callsubr
          -1 rlinecurve
          -46 hlineto
          48 -14 callgsubr
          hintmask 0100010100000000
          421 24 -61 callgsubr
          hintmask 1001000010000000
          404 310 rmoveto
          40 13 -21 -28 -84 -136 -73 -69 -35 hvcurveto
          -11 -5 -4 -4 -2 -13 -4 -28 -94 callsubr
          256 hlineto
          -104 callsubr
          4 35 rlineto
          -107 callgsubr
          -165 hlineto
          98 46 102 58 94 vvcurveto
          66 -50 42 -75 -79 -64 -36 -80 -17 vhcurveto
          -12 -3 -13 callsubr
          39 hlineto
          -42 callgsubr
          34 10 23 17 39 hhcurveto
          endchar
        </CharString>
        <CharString name="onequarter">
          277 4 -21 90 58 150 67 13 -20 233 68 37 -20 hstemhm
          88 218 -108 526 -248 319 hintmask 0010101000000000
          161 642 rmoveto
          -68 callgsubr
          -2 hvcurveto
          -6 -38 -99 callgsubr
          51 2 -40 -228 rlineto
          -46 hlineto
          -13 1 -3 -3 -3 -12 -6 -38 -94 callsubr
          178 hlineto
          -86 callsubr
          6 38 2 -47 callsubr
          -1 rlinecurve
          -46 hlineto
          48 -14 callgsubr
          hintmask 1000010100000000
          439 24 -61 callgsubr
          hintmask 0101000010000000
          348 19 -51 callsubr
          52 hlineto
          -104 callsubr
          11 58 rlineto
          49 hlineto
          13 3 11 callgsubr
          5 28 rlineto
          12 1 -2 -34 callsubr
          -49 hlineto
          37 215 rlineto
          -107 callgsubr
          -65 hlineto
          -13 -5 -2 -10 -8 hvcurveto
          -172 -207 -7 -9 -4 -7 -2 -11 rlinecurve
          -3 26 callgsubr
          149 hlineto
          35 210 rmoveto
          -26 -152 rlineto
          -101 hlineto
          endchar
        </CharString>
        <CharString name="onesuperior">
          -338 388 67 226 68 hstem
          59 218 vstem
          132 749 rmoveto
          -68 callgsubr
          -2 hvcurveto
          -6 -38 -99 callgsubr
          51 2 -40 -228 rlineto
          -46 hlineto
          -13 1 -3 -3 -3 -12 -6 -38 -94 callsubr
          178 hlineto
          -86 callsubr
          6 38 2 -47 callsubr
          -1 rlinecurve
          -46 hlineto
          48 -14 callgsubr
          endchar
        </CharString>
        <CharString name="ordfeminine">
          -159 326 67 240 52 -52 63 hstemhm
          75 91 139 90 hintmask 00000000
          hintmask 11010000
          370 685 rmoveto
          -68 callgsubr
          -2 hvcurveto
          -1 -7 rlineto
          hintmask 10111000
          17 -15 -30 16 -39 hhcurveto
          -137 -54 -129 -107 -90 46 -44 75 40 43 20 32 26 hvcurveto
          -33 -2 17 -19 42 hhcurveto
          28 28 11 11 17 hvcurveto
          11 6 1 5 -4 11 -3 8 rcurveline
          -5 10 -3 2 -11 -4 rrcurveto
          -2 -6 -5 -1 -5 hhcurveto
          -8 -5 5 15 3 hvcurveto
          hintmask 11010000
          46 267 rlineto
          -107 callgsubr
          -198 -292 rmoveto
          -47 -17 22 53 hvcurveto
          hintmask 10110000
          65 21 100 84 44 23 -33 -1 1 vhcurveto
          -24 -132 rlineto
          hintmask 11010000
          -50 -9 -43 -24 -33 hhcurveto
          endchar
        </CharString>
        <CharString name="ordmasculine">
          -174 326 370 hstemhm
          93 349 -256 161 hintmask 00000000
          442 559 rmoveto
          119 -88 18 -55 -132 -74 -105 -126 -91 52 -48 86 vhcurveto
          hintmask 11000000
          135 76 106 127 hvcurveto
          -95 1 rmoveto
          -58 -24 -114 -82 -43 -12 34 53 59 16 103 82 vhcurveto
          hintmask 10100000
          41 22 -24 -53 hvcurveto
          endchar
        </CharString>
        <CharString name="oslash">
          -83 -100 691 hstem
          25 481 vstem
          506 313 rmoveto
          101 -45 51 -52 25 vhcurveto
          40 87 rlineto
          10 5 -2 4 -12 hhcurveto
          -38 hlineto
          -46 callgsubr
          -11 -6 hvcurveto
          -32 -69 rlineto
          2 -14 -14 1 -12 hhcurveto
          -184 -98 -144 -180 -89 32 -61 59 -30 hvcurveto
          -43 -93 rlineto
          -10 -5 2 -4 12 hhcurveto
          37 hlineto
          -78 callgsubr
          11 6 hvcurveto
          35 76 rlineto
          -2 12 12 -1 13 hhcurveto
          186 106 136 190 hvcurveto
          -118 -2 rmoveto
          -84 -33 -157 -124 -6 -5 0 1 -5 vhcurveto
          150 324 rlineto
          15 -19 8 -27 -38 vvcurveto
          -98 113 rmoveto
          6 6 -1 6 hhcurveto
          -148 -319 rlineto
          -14 21 -5 29 33 vvcurveto
          88 24 149 125 vhcurveto
          endchar
        </CharString>
        <CharString name="oslashacute">
          -83 -23 0 249 194 endchar
        </CharString>
        <CharString name="otilde">
          -83 -12 518 92 114 hstemhm
          25 481 -352 355 hintmask 10100000
          -65 callsubr
          -143 406 -77 callsubr
          hhcurveto
          hintmask 01010000
          -29 callgsubr
        </CharString>
        <CharString name="p">
          -32 -209 -21 218 85 339 94 -91 80 hstemhm
          437 117 hintmask 00000000
          hintmask 11011000
          295 -12 rmoveto
          171 88 142 188 hvcurveto
          hintmask 11101000
          116 -59 72 -111 -61 -58 -19 -61 -49 vhcurveto
          hintmask 11011000
          10 54 rlineto
          -107 callgsubr
          -128 hlineto
          -59 callsubr
          -110 -630 -99 callgsubr
          80 hlineto
          -104 callsubr
          44 249 rlineto
          -19 21 54 -27 61 hhcurveto
          hintmask 11101000
          43 424 rmoveto
          69 30 -43 -69 -108 -31 -119 -118 -72 -41 52 1 -1 hvcurveto
          33 181 rlineto
          72 13 66 33 52 hhcurveto
          endchar
        </CharString>
        <CharString name="paragraph">
          -98 -160 88 670 81 hstem
          48 504 vstem
          524 -89 callgsubr
          -152 hlineto
          -165 -132 -65 -165 -112 86 -61 127 hvcurveto
          -35 -228 rlineto
          -81 -14 -40 -39 -60 hhcurveto
          -23 -20 4 7 -20 hvcurveto
          -12 4 -4 -1 -5 -12 -19 -49 rcurveline
          -5 -3 callgsubr
          -5 rrcurveto
          -13 30 36 -7 37 hhcurveto
          138 55 89 110 19 hvcurveto
          100 559 rlineto
          endchar
        </CharString>
        <CharString name="parenleft">
          -287 -150 81 730 84 hstem
          91 95 vstem
          245 -81 rmoveto
          2 -47 callsubr
          -1 -48 -3 rcurveline
          5 377 116 356 45 -3 13 -1 4 3 2 12 rlinecurve
          9 57 rlineto
          -107 callgsubr
          -111 hlineto
          -68 callgsubr
          -4 hvcurveto
          -135 -409 rlineto
          -3 -10 -2 -10 -11 vvcurveto
          -2 -425 rlineto
          -13 3 -3 13 vhcurveto
          111 hlineto
          -86 callsubr
          endchar
        </CharString>
        <CharString name="parenright">
          -287 -149 84 730 81 hstem
          160 95 vstem
          101 677 rmoveto
          -2 -12 2 -3 13 1 48 3 rcurveline
          -5 -377 -116 -356 -45 3 -13 1 -4 -3 -2 -12 rlinecurve
          -9 -57 -99 callgsubr
          111 hlineto
          -42 callgsubr
          135 409 rlineto
          3 10 2 10 11 vvcurveto
          2 425 rlineto
          13 -3 3 -13 vhcurveto
          -111 24 callsubr
        </CharString>
        <CharString name="partialdiff">
          -27 478 135 hstemhm
          56 455 -337 224 hintmask 00000000
          511 320 rmoveto
          231 -59 145 -174 -82 -52 -39 -40 -40 vhcurveto
          -11 -11 7 -9 5 -5 35 -34 rcurveline
          5 -5 7 -4 9 9 rrcurveto
          24 22 38 31 51 hhcurveto
          76 38 -62 -131 10 hvcurveto
          30 -22 -47 28 -59 hhcurveto
          -127 -85 -92 -159 -129 64 -110 160 hvcurveto
          hintmask 11000000
          158 73 111 221 hvcurveto
          -226 -249 rmoveto
          -86 -25 81 80 96 30 67 78 59 38 -35 -37 17 hvcurveto
          1 -8 1 -9 -9 vvcurveto
          hintmask 10100000
          -105 -12 -121 -101 vhcurveto
          endchar
        </CharString>
        <CharString name="percent">
          210 -17 68 234 68 -64 66 236 66 hstemhm
          40 86 161 86 62 86 161 86 hintmask 00000000
          hintmask 11011111
          435 135 rmoveto
          hintmask 10111111
          22 callsubr
          hintmask 11011111
          -122 -71 -111 -109 hvcurveto
          hintmask 10111111
          86 -3 rmoveto
          56 21 101 80 39 21 32 callgsubr
          134 510 rmoveto
          9 7 -2 4 -12 hhcurveto
          -45 14 callsubr
          44 hlineto
          13 5 2 11 7 hvcurveto
          -190 441 rmoveto
          hintmask 11011111
          22 callsubr
          hintmask 10111111
          -122 -71 -111 -109 hvcurveto
          hintmask 11011111
          86 -3 rmoveto
          56 20 101 80 39 22 32 callgsubr
          endchar
        </CharString>
        <CharString name="period">
          -344 -19 138 hstem
          29 152 vstem
          94 13 callgsubr
          endchar
        </CharString>
        <CharString name="periodcentered">
          -370 279 138 hstem
          60 152 vstem
          125 279 rmoveto
          -71 callsubr
          endchar
        </CharString>
        <CharString name="perthousand">
          445 -17 62 211 61 6 62 211 61 hstemhm
          53 81 138 81 6 81 138 81 31 81 138 81 hintmask 0000000000000000
          hintmask 1101101111000000
          690 115 rmoveto
          -27 callsubr
          21 49 vhcurveto
          -412 hmoveto
          -27 callsubr
          20 50 vhcurveto
          163 527 rmoveto
          9 7 -2 4 -12 hhcurveto
          -46 14 callsubr
          45 hlineto
          13 5 2 11 7 hvcurveto
          -125 459 rmoveto
          hintmask 0011110000000000
          -83 51 -49 73 116 60 110 99 82 -53 43 -69 vhcurveto
          hintmask 1101101111000000
          -113 -65 -100 -102 hvcurveto
          hintmask 0011110000000000
          81 hmoveto
          47 15 94 72 33 18 -15 -49 -48 -15 -99 -71 -35 -17 17 53 vhcurveto
          endchar
        </CharString>
        <CharString name="pi">
          17 0 495 hstem
          235 176 vstem
          58 495 rmoveto
          -10 -5 -5 -10 hvcurveto
          -52 vlineto
          -11 5 -4 10 vhcurveto
          65 -398 hlineto
          -10 4 -5 11 vhcurveto
          82 hlineto
          -22 callgsubr
          398 176 -398 vlineto
          -10 4 -5 11 vhcurveto
          82 hlineto
          -22 callgsubr
          398 58 vlineto
          -22 callgsubr
          52 vlineto
          11 -5 4 -10 vhcurveto
          -523 hlineto
          endchar
        </CharString>
        <CharString name="plus">
          -93 265 65 hstem
          30 468 vstem
          56 330 12 callgsubr
          -33 -192 -99 callgsubr
          41 hlineto
          -86 callsubr
          33 192 rlineto
          179 hlineto
          -104 callsubr
          6 35 rlineto
          -107 callgsubr
          -179 hlineto
          31 23 callgsubr
          -41 hlineto
          -68 callgsubr
          -2 hvcurveto
          -31 -177 rlineto
          endchar
        </CharString>
        <CharString name="plusminus">
          -93 0 65 207 65 hstem
          -13 515 vstem
          60 337 12 callgsubr
          -36 -207 rlineto
          -175 hlineto
          -68 callgsubr
          -2 hvcurveto
          -6 -35 -99 callgsubr
          428 hlineto
          -104 callsubr
          6 35 rlineto
          -107 callgsubr
          -180 hlineto
          36 207 rlineto
          179 hlineto
          -104 callsubr
          6 35 rlineto
          -107 callgsubr
          -179 hlineto
          31 23 callgsubr
          -41 hlineto
          -68 callgsubr
          -2 hvcurveto
          -31 -177 rlineto
          endchar
        </CharString>
        <CharString name="product">
          126 -138 817 hstemhm
          220 303 -235 167 hintmask 00000000
          55 -59 rmoveto
          1 callgsubr
          -49 -4 callgsubr
          218 -5 callsubr
          49 vlineto
          hintmask 11000000
          10 -5 5 -10 vhcurveto
          -53 652 303 hlineto
          hintmask 10100000
          -652 -53 vlineto
          1 callgsubr
          -49 vlineto
          hintmask 11000000
          -4 callsubr
          218 -5 callsubr
          49 -32 callgsubr
          -53 723 hlineto
          11 -5 4 -10 vhcurveto
          -497 hlineto
          1 callgsubr
          hintmask 10100000
          -723 vlineto
          endchar
        </CharString>
        <CharString name="q">
          -42 -240 -12 callsubr
          228 86 347 85 -11 -20 hstemhm
          26 114 167 117 hintmask 00000000
          hintmask 01101110
          451 495 rmoveto
          -13 -4 -80 callgsubr
          hintmask 01110110
          -9 -35 rlineto
          36 -27 -42 25 -64 hhcurveto
          -185 -78 -172 -161 -122 66 -63 100 63 58 25 54 38 hvcurveto
          -41 -212 rlineto
          -59 -11 21 -36 65 hhcurveto
          42 43 23 20 25 hvcurveto
          hintmask 10101110
          -104 callgsubr
          -5 10 21 4 hvcurveto
          109 608 rlineto
          -107 callgsubr
          -282 -421 rmoveto
          -71 -27 41 68 hvcurveto
          hintmask 01110110
          108 34 130 126 73 29 -52 -1 vhcurveto
          -33 -188 rlineto
          hintmask 10101110
          -72 -12 -67 -34 -52 hhcurveto
          endchar
        </CharString>
        <CharString name="question">
          -158 -19 127 510 78 hstem
          96 140 131 111 vstem
          209 158 rmoveto
          -104 callsubr
          23 134 rlineto
          137 36 90 74 120 vvcurveto
          104 -66 55 -116 -114 -86 -53 -113 -15 vhcurveto
          -13 -2 -13 callsubr
          59 hlineto
          -86 callsubr
          65 13 36 24 59 hhcurveto
          62 25 -38 -49 -105 -86 -33 -90 -18 hvcurveto
          -12 -3 -4 -3 -2 -13 -31 -183 -94 callsubr
          1 -177 6 callsubr
        </CharString>
        <CharString name="questiondown">
          -158 -202 78 510 127 hstem
          -8 111 131 140 vstem
          261 336 rmoveto
          -68 callgsubr
          -2 hvcurveto
          -23 -134 rlineto
          -137 -36 -90 -74 -120 vvcurveto
          -104 66 -55 116 114 86 53 113 15 vhcurveto
          13 2 -39 callsubr
          -59 hlineto
          -86 callgsubr
          -65 -13 -36 -24 -59 hhcurveto
          -62 -25 38 49 105 86 33 90 18 hvcurveto
          12 3 4 3 2 13 31 183 rcurveline
          -107 callgsubr
          -1 177 7 callgsubr
        </CharString>
        <CharString name="quotedbl">
          -249 457 222 hstemhm
          108 121 hintmask 00000000
          hintmask 11000000
          158 457 rmoveto
          -42 callgsubr
          29 89 3 9 3 12 2 9 rlinecurve
          12 73 rlineto
          -107 callgsubr
          -70 hlineto
          -68 callgsubr
          -2 hvcurveto
          -12 -71 rlineto
          -2 -9 -1 -12 -10 vvcurveto
          -3 -89 rlineto
          -13 3 -3 13 vhcurveto
          hintmask 00000000
          186 hmoveto
          -42 callgsubr
          29 89 3 9 3 12 2 9 rlinecurve
          12 73 rlineto
          -107 callgsubr
          -70 hlineto
          -68 callgsubr
          -2 hvcurveto
          -12 -71 rlineto
          -2 -9 -1 -12 -10 vvcurveto
          -3 -89 rlineto
          -13 3 -3 13 vhcurveto
          endchar
        </CharString>
        <CharString name="quotedblbase">
          -219 -152 244 hstemhm
          28 34 callgsubr
          101 -64 -79 callsubr
          hintmask 10100000
          214 79 -79 callsubr
          endchar
        </CharString>
        <CharString name="quotedblleft">
          -219 749 -20 hstemhm
          120 34 callgsubr
          171 662 -54 callgsubr
          hintmask 10100000
          86 -79 -54 callgsubr
          endchar
        </CharString>
        <CharString name="quotedblright">
          -219 753 -20 hstemhm
          143 34 callgsubr
          216 597 -79 callsubr
          hintmask 10100000
          214 79 -79 callsubr
          endchar
        </CharString>
        <CharString name="quoteleft">
          -369 749 -20 hstem
          120 124 vstem
          171 662 -54 callgsubr
          endchar
        </CharString>
        <CharString name="quoteright">
          -369 753 -20 hstem
          143 124 vstem
          216 597 -79 callsubr
          endchar
        </CharString>
        <CharString name="quotesinglbase">
          -369 -152 244 hstem
          28 124 vstem
          101 -64 -79 callsubr
          endchar
        </CharString>
        <CharString name="quotesingle">
          -401 457 222 hstemhm
          108 121 hintmask 00000000
          hintmask 11000000
          158 457 rmoveto
          -42 callgsubr
          29 89 3 9 3 12 2 9 rlinecurve
          12 73 rlineto
          -107 callgsubr
          -70 hlineto
          -68 callgsubr
          -2 hvcurveto
          -12 -71 rlineto
          -2 -9 -1 -12 -10 vvcurveto
          -3 -89 rlineto
          -13 3 -3 13 vhcurveto
          endchar
        </CharString>
        <CharString name="r">
          -177 21 28 callsubr
          43 401 hintmask 00000000
          hintmask 10010100
          211 398 rmoveto
          14 82 rlineto
          -107 callgsubr
          -127 -106 callgsubr
          43 hlineto
          -69 -399 -48 callsubr
          44 252 rlineto
          hintmask 10100100
          30 callgsubr
          hintmask 11000100
          -9 -53 -99 callgsubr
          57 hlineto
          -104 callsubr
          hintmask 10001100
          23 132 3 13 -10 callsubr
          4 rlinecurve
          hintmask 11000100
          4 -18 -19 2 -16 hhcurveto
          hintmask 10010100
          -77 -54 -46 -62 -36 hvcurveto
          endchar
        </CharString>
        <CharString name="racute">
          -177 -37 0 114 194 endchar
        </CharString>
        <CharString name="radical">
          39 0 790 hstem
          26 636 vstem
          154 399 rmoveto
          140 -386 rlineto
          -7 2 5 -6 8 hhcurveto
          67 hlineto
          8 5 5 8 3 hvcurveto
          269 762 rlineto
          8 3 -4 7 -8 hhcurveto
          -71 hlineto
          -9 -4 -5 -8 -3 hvcurveto
          -217 -624 -123 357 -3 8 -7 3 -10 -5 rlinecurve
          -168 -87 -12 -6 -1 -7 4 -9 rlinecurve
          23 -47 4 -8 5 -5 11 6 rlinecurve
          endchar
        </CharString>
        <CharString name="rcaron">
          -177 -81 0 114 207 endchar
        </CharString>
        <CharString name="rcommaaccent">
          -177 -13 callgsubr
          91 28 callsubr
          9 124 -90 401 hintmask 00000000
          hintmask 01001001
          211 398 rmoveto
          14 82 rlineto
          -107 callgsubr
          -127 -106 callgsubr
          43 hlineto
          -69 -399 -48 callsubr
          44 252 rlineto
          hintmask 01010001
          30 callgsubr
          hintmask 01100001
          -9 -53 -99 callgsubr
          57 hlineto
          -104 callsubr
          hintmask 01000101
          23 132 3 13 -10 callsubr
          4 rlinecurve
          hintmask 01100001
          4 -18 -19 2 -16 hhcurveto
          hintmask 01001001
          -77 -54 -46 -62 -36 hvcurveto
          hintmask 10000010
          -129 -624 -102 callgsubr
        </CharString>
        <CharString name="registered">
          -125 390 23 68 21 58 24 52 27 56 23 hstem
          121 28 93 34 54 36 90 28 vstem
          300 742 rmoveto
          -104 -75 -75 -102 -101 68 -74 111 109 75 74 105 98 -76 75 -108 hvcurveto
          -329 vmoveto
          -88 -63 61 91 92 58 62 93 90 66 -62 -92 -94 -65 -58 -91 hvcurveto
          -12 68 rmoveto
          6 2 2 6 hvcurveto
          4 vlineto
          8 -2 1 -6 vhcurveto
          -12 58 23 hlineto
          36 -73 rlineto
          -5 2 3 -1 5 hhcurveto
          39 hlineto
          6 2 2 5 hvcurveto
          7 vlineto
          6 -2 1 -6 vhcurveto
          -18 hlineto
          -34 66 rlineto
          20 8 14 14 25 vvcurveto
          35 -26 13 -37 vhcurveto
          -71 hlineto
          -7 -2 -2 -6 hvcurveto
          -11 vlineto
          -7 2 -1 6 vhcurveto
          11 -134 -12 hlineto
          -5 -2 -1 -6 hvcurveto
          -7 vlineto
          -5 2 -2 6 vhcurveto
          62 155 rmoveto
          24 13 -6 -17 -22 -13 -7 -25 hvcurveto
          -16 52 hlineto
          endchar
        </CharString>
        <CharString name="revcommaaccent">
          580 219 hstem
          298 124 vstem
          349 736 -31 callgsubr
        </CharString>
        <CharString name="ring">
          565 27 callsubr
          565 -79 callgsubr
          endchar
        </CharString>
        <CharString name="ring.cap">
          718 27 callsubr
          718 -79 callgsubr
          endchar
        </CharString>
        <CharString name="s">
          -163 -12 75 366 77 hstemhm
          63 106 123 109 -64 89 hintmask 00000000
          hintmask 11110000
          -39 callgsubr
          hintmask 11101000
          -26 callgsubr
          hintmask 11110000
          33 callgsubr
          endchar
        </CharString>
        <CharString name="sacute">
          -163 -42 0 115 194 endchar
        </CharString>
        <CharString name="scaron">
          -163 -85 0 115 207 endchar
        </CharString>
        <CharString name="scedilla">
          -163 -12 74 371 78 hstemhm
          63 106 -1 85 39 109 -64 89 -16 callgsubr
          193 62 rmoveto
          -58 -26 24 42 -5 hvcurveto
          13 -2 -3 -34 callsubr
          -56 hlineto
          -12 -3 -3 -13 hvcurveto
          hintmask 11011000
          1 -101 71 -37 96 -2 -41 -49 rcurveline
          -5 -6 -2 -5 6 -6 9 -9 rcurveline
          12 -12 6 -10 -11 vvcurveto
          -23 -28 -23 -21 -15 vhcurveto
          -10 -8 -1 -4 6 -11 2 -4 rcurveline
          7 -11 4 -1 11 6 rrcurveto
          59 31 56 40 45 vvcurveto
          20 -11 14 -17 18 vhcurveto
          -14 14 18 22 rlineto
          101 10 71 53 100 vvcurveto
          94 -75 30 -65 25 vhcurveto
          hintmask 11100100
          -49 19 -43 15 38 vvcurveto
          39 38 20 44 65 20 -31 -39 1 vhcurveto
          -13 3 -3 13 vhcurveto
          57 hlineto
          13 3 3 13 hvcurveto
          82 5 -53 66 -117 hhcurveto
          -113 -85 -57 -109 -97 76 -24 64 -23 hvcurveto
          hintmask 11101000
          48 -17 41 -16 -46 vvcurveto
          -54 -47 -6 -52 vhcurveto
          endchar
        </CharString>
        <CharString name="scircumflex">
          -163 -95 0 115 195 endchar
        </CharString>
        <CharString name="scommaaccent">
          -163 -13 callgsubr
          58 75 366 77 hstemhm
          63 106 -47 124 46 109 -64 89 hintmask 00000000
          hintmask 01110100
          -39 callgsubr
          hintmask 01110010
          -26 callgsubr
          hintmask 01110100
          33 callgsubr
          hintmask 10001000
          -5 -289 -102 callgsubr
        </CharString>
        <CharString name="section">
          -50 -181 76 724 76 hstemhm
          -3 88 -8 93 36 84 -47 84 39 91 -1 90 hintmask 00000000
          hintmask 11010110
          159 198 rmoveto
          52 -85 32 -64 -57 vvcurveto
          -56 -34 -41 -54 vhcurveto
          hintmask 11101010
          -41 -29 15 49 5 0 6 1 6 hvcurveto
          12 1 -39 callsubr
          -56 hlineto
          -13 -3 -3 -12 -1 hvcurveto
          -2 -11 0 -9 -9 vvcurveto
          -106 82 -22 83 174 121 148 168 102 -58 88 -48 76 vhcurveto
          -34 53 -27 49 42 vvcurveto
          56 49 18 43 vhcurveto
          hintmask 11010101
          51 26 -30 -48 -3 hvcurveto
          -13 -1 -13 callsubr
          58 35 callgsubr
          1 8 0 8 7 vvcurveto
          107 -93 24 -90 -176 -110 -118 -153 vhcurveto
          hintmask 11010110
          -77 38 -76 44 -73 vhcurveto
          hintmask 11011010
          47 312 rmoveto
          -140 160 -101 -156 vvcurveto
          -60 -21 -56 -29 -47 vhcurveto
          hintmask 11010110
          6 31 5 28 27 166 -157 105 131 vvcurveto
          47 17 49 23 36 vhcurveto
          5 -3 rlineto
          hintmask 11011010
          -6 -20 -3 -19 -18 vvcurveto
          endchar
        </CharString>
        <CharString name="semicolon">
          -331 77 397 44 46 endchar
        </CharString>
        <CharString name="seven">
          -162 415 96 hstem
          -6 484 vstem
          345 415 rmoveto
          -348 -535 rlineto
          -9 -6 2 -4 12 hhcurveto
          77 hlineto
          13 5 2 11 6 hvcurveto
          352 536 6 9 3 8 2 11 rlinecurve
          8 52 rlineto
          -107 callgsubr
          -409 hlineto
          -68 callgsubr
          -2 hvcurveto
          -11 -66 -99 callgsubr
          endchar
        </CharString>
        <CharString name="six">
          -77 -12 82 271 84 148 83 hstemhm
          37 105 246 108 -66 92 hintmask 00000000
          hintmask 11110100
          522 525 rmoveto
          93 -67 38 -87 -245 -86 -253 -195 -130 64 -90 129 vhcurveto
          hintmask 11111000
          161 105 101 165 91 -55 80 -110 -71 -65 -33 -42 -37 hvcurveto
          hintmask 11110100
          159 38 81 64 82 hhcurveto
          54 17 -24 -42 -13 0 -6 11 hvcurveto
          63 hlineto
          12 6 3 13 hvcurveto
          6 0 8 7 vvcurveto
          hintmask 11111000
          -239 -184 rmoveto
          68 37 -41 -61 -98 -46 -71 -95 -82 -23 56 61 97 49 57 92 hvcurveto
          endchar
        </CharString>
        <CharString name="slash">
          -174 745 -20 hstem
          -20 525 vstem
          503 731 rmoveto
          10 5 -2 4 -12 hhcurveto
          -46 hlineto
          -46 callgsubr
          -11 -6 hvcurveto
          -443 -818 rlineto
          -10 -5 2 -4 12 hhcurveto
          45 hlineto
          -78 callgsubr
          11 6 hvcurveto
          endchar
        </CharString>
        <CharString name="space">
          -423 endchar
        </CharString>
        <CharString name="sterling">
          -162 0 83 -67 -21 236 64 159 77 hstemhm
          -37 486 -134 87 hintmask 00000000
          hintmask 10111000
          81 233 rmoveto
          -10 -55 -12 -39 -29 -40 rrcurveto
          hintmask 01111000
          -12 -15 -18 -19 -24 -13 -11 -6 -3 -4 2 -13 2 -19 rcurveline
          2 -13 3 -3 13 1 rrcurveto
          hintmask 10111000
          3 28 41 2 36 hhcurveto
          hintmask 10110100
          274 hlineto
          -104 callsubr
          21 124 rlineto
          -107 callgsubr
          -54 -57 callsubr
          -5 -55 rlineto
          -213 hlineto
          56 50 10 27 16 71 rrcurveto
          142 hlineto
          -42 callgsubr
          10 34 rlineto
          12 4 -39 callsubr
          -147 hlineto
          17 72 rlineto
          60 15 19 27 50 hhcurveto
          27 24 -8 -11 14 hvcurveto
          -13 -55 rlineto
          -12 -3 2 -30 callsubr
          48 hlineto
          -86 callsubr
          19 115 3 12 -3 4 -12 3 rlinecurve
          9 -36 -38 8 -43 hhcurveto
          -103 -71 -38 -125 -31 hvcurveto
          -18 -73 rlineto
          -41 hlineto
          -68 callgsubr
          -4 hvcurveto
          -8 -32 rlineto
          -12 -4 -13 callsubr
          endchar
        </CharString>
        <CharString name="summation">
          -36 -122 82 635 84 hstemhm
          292 128 38 callsubr
          417 277 rmoveto
          4 5 1 8 -6 8 -242 297 rcurveline
          321 -5 callsubr
          54 vlineto
          10 -4 5 -11 vhcurveto
          -440 hlineto
          1 callgsubr
          -52 vlineto
          -7 3 -6 3 -4 vhcurveto
          242 -300 6 -7 -1 -6 -6 -8 rlinecurve
          -247 -310 rlineto
          -7 -9 -3 -3 -11 vvcurveto
          -48 vlineto
          -10 4 -5 11 vhcurveto
          460 hlineto
          11 4 4 11 hvcurveto
          52 -32 callgsubr
          -343 hlineto
          endchar
        </CharString>
        <CharString name="t">
          -261 -12 80 345 82 hstem
          66 117 vstem
          331 -67 callgsubr
          -100 hlineto
          23 18 callgsubr
          -107 callgsubr
          -80 hlineto
          -86 callgsubr
          -23 -135 rlineto
          -56 hlineto
          -86 callgsubr
          -8 -53 -106 callsubr
          56 hlineto
          -44 -241 rlineto
          -5 -27 -5 -29 -26 vvcurveto
          -57 23 -45 99 46 45 13 14 31 vhcurveto
          11 5 2 4 -4 12 -9 34 0 callsubr
          -11 -4 rrcurveto
          -6 -15 -20 -5 -25 hhcurveto
          -36 -11 18 34 16 2 19 4 23 hvcurveto
          42 235 rlineto
          endchar
        </CharString>
        <CharString name="t_t">
          48 -12 80 345 82 hstem
          66 117 192 117 vstem
          640 -67 callgsubr
          -100 hlineto
          23 18 callgsubr
          -107 callgsubr
          -80 hlineto
          -86 callgsubr
          -23 -135 rlineto
          -197 hlineto
          23 18 callgsubr
          -107 callgsubr
          -80 hlineto
          -86 callgsubr
          -23 -135 rlineto
          -56 hlineto
          -86 callgsubr
          -8 -53 -106 callsubr
          56 hlineto
          -44 -241 rlineto
          -5 -27 -5 -29 -26 vvcurveto
          -57 23 -45 99 46 45 13 14 31 vhcurveto
          11 5 2 4 -4 12 -9 34 0 callsubr
          -11 -4 rrcurveto
          -6 -15 -20 -5 -25 hhcurveto
          -36 -11 18 34 16 2 19 4 23 hvcurveto
          42 235 rlineto
          198 hlineto
          -44 -241 rlineto
          -5 -27 -5 -29 -26 vvcurveto
          -57 23 -45 99 46 45 13 14 31 vhcurveto
          11 5 2 4 -4 12 -9 34 0 callsubr
          -11 -4 rrcurveto
          -6 -15 -20 -5 -25 hhcurveto
          -36 -11 18 34 16 2 19 4 23 hvcurveto
          42 235 rlineto
          endchar
        </CharString>
        <CharString name="tbar">
          -261 -12 75 179 58 113 82 hstem
          66 116 vstem
          -45 callgsubr
          -21 -115 rlineto
          -46 hlineto
          -86 callgsubr
          -4 -28 -99 callgsubr
          45 hlineto
          -12 -70 rlineto
          -5 -27 -5 -29 -26 vvcurveto
          -57 23 -45 99 46 45 13 14 31 vhcurveto
          11 5 2 4 -4 12 -10 29 0 callsubr
          -11 -4 rrcurveto
          -6 -15 -20 -5 -25 hhcurveto
          -36 -11 18 34 16 2 19 4 23 hvcurveto
          12 69 rlineto
          105 hlineto
          -86 callsubr
          4 28 rlineto
          -107 callgsubr
          -104 hlineto
          20 113 rlineto
          endchar
        </CharString>
        <CharString name="tcaron">
          -261 -12 80 345 82 49 220 hstemhm
          66 117 137 134 hintmask 11010000
          331 -67 callgsubr
          -100 hlineto
          23 18 callgsubr
          -107 callgsubr
          -80 hlineto
          -86 callgsubr
          -23 -135 rlineto
          -56 hlineto
          -86 callgsubr
          -8 -53 -106 callsubr
          56 hlineto
          -44 -241 rlineto
          -5 -27 -5 -29 -26 vvcurveto
          -57 23 -45 99 46 45 13 14 31 vhcurveto
          11 5 2 4 -4 12 -9 34 0 callsubr
          -11 -4 rrcurveto
          -6 -15 -20 -5 -25 hhcurveto
          -36 -11 18 34 16 2 19 4 23 hvcurveto
          42 235 rlineto
          89 146 -9 callsubr
          hintmask 00101000
          -10 -6 -4 -11 -2 hvcurveto
          endchar
        </CharString>
        <CharString name="thinspace">
          -573 endchar
        </CharString>
        <CharString name="thorn">
          -33 -209 -21 218 84 343 96 155 80 hstem
          434 119 vstem
          293 -12 rmoveto
          173 87 132 193 116 -59 82 -101 -67 -59 -31 -54 -42 hvcurveto
          54 305 rlineto
          -107 callgsubr
          -139 hlineto
          -91 callgsubr
          45 hlineto
          -156 -881 -99 callgsubr
          80 hlineto
          -104 callsubr
          44 249 rlineto
          -19 21 54 -27 61 hhcurveto
          44 427 rmoveto
          67 30 -46 -76 -118 -38 -103 -110 -72 -42 42 1 -1 hvcurveto
          34 191 rlineto
          72 13 61 37 58 hhcurveto
          endchar
        </CharString>
        <CharString name="three">
          -140 -141 83 231 80 195 83 hstemhm
          -22 92 228 109 -69 111 hintmask 00000000
          hintmask 11110100
          257 448 rmoveto
          56 25 -31 -44 -67 -49 -43 -63 -7 hvcurveto
          -3 -18 -23 0 -26 hhcurveto
          -68 callgsubr
          -2 hvcurveto
          -8 -49 rlineto
          -13 -2 2 -30 callsubr
          hintmask 11111000
          21 17 -1 -2 22 hvcurveto
          53 -4 40 -29 -59 vvcurveto
          -86 -47 -50 -83 -64 -34 21 57 4 0 5 1 5 vhcurveto
          10 1 -3 2 -9 hhcurveto
          -62 hlineto
          -13 -3 -3 -12 -2 hvcurveto
          -1 -9 -1 -9 -8 vvcurveto
          -95 65 -51 114 146 104 83 138 79 -54 47 -59 8 vhcurveto
          hintmask 11110100
          96 28 59 59 92 vvcurveto
          79 -58 59 -115 -107 -94 -54 -118 -21 vhcurveto
          -12 -2 -13 callsubr
          60 hlineto
          -86 callsubr
          67 17 40 22 54 hhcurveto
          endchar
        </CharString>
</ttFont>
